<svg width="65" height="65" viewBox="0 0 65 65" fill="none" xmlns="http://www.w3.org/2000/svg">
<path d="M0 0V65H65V0H0ZM34.8214 50.4911C34.8214 56.8184 31.0839 59.903 25.6735 59.903C20.7869 59.903 17.9504 57.3727 16.5112 54.3185L21.4848 51.3079C22.4439 53.0098 23.1722 54.4491 25.2658 54.4491C27.0069 54.4491 28.4375 53.6642 28.4375 50.61V30.1786H34.8214V50.4911ZM49.236 59.7579C43.5645 59.7579 39.8996 57.1985 38.1106 53.6642L43.0915 50.7812C44.3973 52.9199 46.1021 54.3446 49.1127 54.3446C51.6431 54.3446 53.1128 53.2246 53.1128 51.4791C53.1128 49.3855 51.5996 48.6441 48.8066 47.4166L47.2802 46.7608C42.8724 44.8863 39.9503 42.53 39.9503 37.5549C39.9503 32.9744 43.4397 29.6287 48.8936 29.6287C52.7777 29.6287 55.5677 30.8358 57.5772 34.3702L52.8125 37.433C51.765 35.557 50.6362 34.8214 48.8864 34.8214C47.0974 34.8214 45.9628 35.956 45.9628 37.433C45.9628 39.2655 47.0974 40.0069 49.7148 41.1415L51.2412 41.7959C56.4339 44.0215 59.3575 46.2936 59.3575 51.395C59.3589 56.8939 55.0396 59.7579 49.236 59.7579Z" fill="#2569F1"/>
</svg>
