<svg width="65" height="65" viewBox="0 0 65 65" fill="none" xmlns="http://www.w3.org/2000/svg">
<path fill-rule="evenodd" clip-rule="evenodd" d="M60.2406 18.4937C57.1931 20.5252 53.0597 21.6667 48.75 21.6667H32.5V32.5V54.1666C32.5 56.3093 31.5469 58.4038 29.7615 60.1854C27.9758 61.9669 25.438 63.3553 22.4687 64.1753C19.4994 64.9952 16.2319 65.2099 13.0798 64.7918C9.92753 64.3738 7.03219 63.3421 4.75942 61.827C2.48686 60.3119 0.93925 58.3816 0.312244 56.2801C-0.314762 54.1787 0.00704764 52.0004 1.23703 50.0209C2.46695 48.0414 4.54959 46.3495 7.22191 45.159C9.89422 43.9687 13.0362 43.3333 16.25 43.3333C11.9403 43.3333 7.80691 42.1919 4.75942 40.1604C1.71214 38.1287 0 35.3731 0 32.5C0 29.6269 1.71214 26.8713 4.75942 24.8396C7.80691 22.8081 11.9403 21.6667 16.25 21.6667C11.9403 21.6667 7.80691 20.5252 4.75942 18.4937C1.71214 16.4621 0 13.7065 0 10.8333C0 7.96016 1.71214 5.20466 4.75942 3.17301C7.80691 1.14136 11.9403 0 16.25 0H48.75C53.0597 0 57.1931 1.14136 60.2406 3.17301C63.2878 5.20466 65 7.96016 65 10.8333C65 13.7065 63.2878 16.4621 60.2406 18.4937ZM32.5 32.5C32.5 38.4831 39.7753 43.3333 48.75 43.3333C57.7247 43.3333 65 38.4831 65 32.5C65 26.5169 57.7247 21.6667 48.75 21.6667C39.7753 21.6667 32.5 26.5169 32.5 32.5Z" fill="#2569F1"/>
</svg>
