<?xml version="1.0" standalone="no"?>
<!DOCTYPE svg PUBLIC "-//W3C//DTD SVG 20010904//EN"
 "http://www.w3.org/TR/2001/REC-SVG-20010904/DTD/svg10.dtd">
<svg version="1.0" xmlns="http://www.w3.org/2000/svg"
 width="2048.000000pt" height="2048.000000pt" viewBox="0 0 2048.000000 2048.000000"
 preserveAspectRatio="xMidYMid meet">

<g transform="translate(0.000000,2048.000000) scale(0.100000,-0.100000)"
fill="#000000" stroke="none">
<path d="M6006 20379 c-13 -20 -20 -21 -95 -14 -45 4 -81 5 -81 2 0 -9 100
-107 108 -107 4 0 27 -18 50 -40 l42 -41 10 26 c6 15 10 57 10 95 0 99 -13
123 -44 79z"/>
<path d="M5167 20356 c-16 -13 -15 -14 15 -19 64 -10 120 -28 146 -46 15 -11
41 -22 57 -25 l30 -6 -24 20 c-13 11 -31 20 -42 20 -10 0 -21 5 -24 10 -3 6
-14 10 -23 10 -10 0 -34 11 -54 25 -42 28 -55 30 -81 11z"/>
<path d="M4007 20273 c-10 -10 -8 -82 3 -103 5 -10 22 -21 37 -24 16 -4 46
-16 69 -28 53 -27 74 -20 74 27 0 58 -23 91 -67 99 -56 9 -63 8 -63 -10 0 -8
-5 -12 -11 -9 -6 4 -8 14 -4 23 8 21 -22 41 -38 25z"/>
<path d="M5825 19761 c-26 -15 -30 -24 -33 -64 l-3 -47 33 0 c66 0 94 44 66
105 -13 29 -22 30 -63 6z"/>
<path d="M11290 19670 c-10 -7 10 -9 67 -8 46 2 83 6 83 11 0 11 -133 8 -150
-3z"/>
<path d="M11065 19645 c-16 -8 -46 -15 -65 -16 -34 -1 -34 -1 9 -10 34 -7 49
-5 61 6 8 8 27 18 40 24 21 8 22 10 5 10 -11 -1 -33 -7 -50 -14z"/>
<path d="M9340 19640 c-8 -5 -24 -10 -36 -10 -15 0 -24 -12 -38 -50 -10 -28
-16 -54 -13 -57 3 -3 20 0 38 6 18 6 44 11 58 12 15 0 20 3 11 6 -31 12 -41
25 -29 39 6 8 19 14 29 14 22 0 32 24 17 39 -13 13 -18 13 -37 1z"/>
<path d="M9538 19543 c12 -2 32 -2 45 0 12 2 2 4 -23 4 -25 0 -35 -2 -22 -4z"/>
<path d="M9660 19490 l-25 -20 23 0 c12 0 22 4 22 9 0 5 9 7 20 4 14 -4 20 0
20 11 0 22 -30 20 -60 -4z"/>
<path d="M10705 19482 c-11 -2 -27 -11 -37 -19 -14 -13 -19 -13 -41 1 -22 15
-26 15 -37 1 -7 -8 -25 -15 -41 -15 -19 0 -40 -11 -64 -35 -19 -20 -35 -39
-35 -43 0 -4 -15 -16 -32 -27 -18 -10 -45 -30 -59 -45 -14 -14 -57 -39 -95
-55 -38 -16 -72 -34 -76 -39 -17 -25 -16 4 2 36 10 20 16 39 12 42 -3 4 4 9
16 13 28 7 29 31 0 35 -35 5 -32 25 6 38 20 6 36 17 36 25 0 7 12 21 28 31
l27 19 -42 5 c-58 8 -169 0 -152 -11 9 -6 -1 -9 -28 -9 -23 0 -43 4 -45 9 -1
4 -24 11 -50 15 -40 6 -50 4 -67 -13 -12 -12 -25 -21 -31 -21 -5 0 -10 -9 -10
-21 0 -39 -19 -57 -72 -70 -29 -6 -68 -18 -86 -26 -29 -12 -35 -11 -62 9 -27
20 -35 21 -73 11 -34 -10 -45 -9 -56 2 -19 19 -5 35 30 35 16 0 40 7 53 15 21
14 24 13 41 -5 18 -20 19 -20 39 -2 12 11 30 24 41 30 17 10 11 11 -36 12 -61
0 -96 18 -86 44 4 9 3 16 -2 16 -18 0 -72 -23 -66 -28 3 -3 -15 -18 -40 -32
-25 -15 -53 -36 -61 -48 -8 -12 -20 -19 -27 -16 -7 2 -18 -10 -26 -27 -8 -17
-47 -66 -87 -108 -41 -42 -74 -78 -74 -81 0 -9 -103 -110 -112 -110 -9 0 -11
41 -2 64 3 9 12 16 19 16 7 0 25 15 39 33 14 17 34 40 43 50 9 10 17 29 18 43
0 22 8 30 45 44 30 12 46 24 48 38 3 22 31 44 71 57 13 4 37 20 52 36 16 16
33 29 39 29 15 0 12 20 -5 26 -8 4 -23 3 -32 0 -14 -6 -15 -9 -4 -16 21 -13
-43 -42 -95 -42 -38 -1 -44 -4 -55 -32 -16 -38 -26 -46 -61 -46 -15 0 -39 -11
-54 -25 -31 -29 -34 -30 -59 -11 -10 7 -16 20 -12 29 11 29 -7 27 -49 -8 -23
-19 -50 -35 -58 -35 -9 0 -25 -6 -36 -12 -29 -18 -45 1 -29 35 7 15 18 27 25
27 18 0 46 42 34 50 -5 3 -31 3 -57 0 -42 -4 -48 -8 -50 -30 -6 -66 -16 -90
-52 -117 -20 -15 -45 -39 -56 -53 -88 -111 -145 -116 -152 -11 -2 43 0 51 18
56 27 9 59 45 59 66 0 16 -4 17 -31 7 -18 -6 -34 -19 -36 -29 -3 -11 -12 -19
-20 -19 -13 0 -15 -9 -10 -47 5 -40 2 -54 -20 -85 -14 -21 -34 -40 -44 -43
-10 -4 -22 -18 -26 -33 -3 -15 -16 -43 -28 -62 -12 -19 -24 -43 -28 -52 -4
-10 -17 -18 -30 -18 -30 0 -71 -43 -92 -97 -10 -26 -34 -55 -62 -77 -25 -20
-52 -45 -60 -56 -8 -11 -18 -20 -24 -20 -15 0 -10 38 6 48 9 4 18 25 22 45 5
32 3 36 -11 31 -9 -3 -16 -10 -16 -14 0 -4 -11 -18 -25 -31 -13 -13 -25 -30
-25 -38 0 -8 -8 -20 -17 -27 -10 -7 -18 -16 -18 -21 -1 -4 -4 -18 -9 -30 -4
-14 -1 -33 8 -52 17 -33 21 -81 7 -81 -5 0 -12 7 -15 16 -10 27 -25 5 -32 -47
-5 -34 -13 -54 -26 -62 -11 -7 -29 -28 -40 -47 -12 -19 -34 -50 -50 -68 -15
-18 -40 -56 -54 -84 -14 -28 -32 -58 -40 -66 -8 -7 -14 -22 -14 -31 0 -20 -46
-107 -67 -129 -7 -7 -13 -20 -13 -28 0 -8 -4 -14 -10 -14 -5 0 -10 -7 -10 -15
0 -26 -39 -94 -60 -105 -27 -14 -25 -38 2 -42 13 -2 24 -11 26 -22 4 -17 -1
-18 -42 -12 -44 7 -46 6 -46 -17 0 -30 -15 -43 -61 -51 -36 -6 -61 -26 -72
-58 -4 -10 -12 -18 -20 -18 -20 0 -48 -65 -35 -78 11 -11 -14 -44 -82 -112
-11 -11 -18 -25 -15 -30 3 -5 0 -18 -7 -29 -9 -15 -9 -23 2 -35 15 -19 15 -19
-25 -32 -19 -6 -30 -16 -30 -28 0 -18 -21 -35 -85 -68 -20 -11 -26 -22 -28
-60 -2 -35 -9 -52 -25 -63 -19 -13 -20 -17 -7 -25 45 -26 55 -39 43 -51 -7 -7
-13 -21 -13 -31 0 -10 -9 -23 -20 -30 -11 -7 -20 -18 -20 -25 0 -7 -14 -16
-32 -21 -27 -7 -34 -15 -43 -49 -5 -23 -19 -51 -29 -62 -15 -17 -17 -24 -8
-33 19 -19 14 -38 -13 -48 -14 -5 -28 -18 -32 -27 -3 -10 -15 -28 -25 -40 -16
-17 -19 -32 -16 -80 2 -32 6 -65 9 -73 2 -9 -8 -20 -29 -29 -28 -13 -32 -19
-27 -41 7 -32 -9 -77 -37 -107 -12 -13 -18 -26 -15 -30 4 -3 1 -13 -5 -21 -7
-8 -13 -45 -13 -88 0 -62 -3 -76 -23 -94 -16 -15 -22 -32 -22 -63 0 -23 -7
-51 -15 -61 -9 -12 -15 -43 -15 -80 0 -34 -5 -95 -11 -136 -6 -41 -12 -102
-15 -135 -2 -33 -6 -85 -8 -115 -7 -93 5 -250 19 -250 7 0 15 15 19 33 3 17 8
41 10 52 21 100 26 132 26 159 0 18 5 37 12 44 7 7 13 46 15 88 2 42 10 92 18
110 8 19 22 49 30 68 8 19 15 47 15 64 0 16 6 32 13 35 8 3 22 31 32 64 11 34
21 51 23 40 3 -16 8 -14 33 12 16 17 29 41 29 54 0 22 29 72 30 52 2 -30 29
47 30 83 0 27 6 48 19 61 11 11 21 41 25 75 4 31 12 56 17 56 5 0 9 11 9 24 0
24 34 76 51 76 5 0 10 -8 10 -17 3 -32 21 71 20 111 -1 22 6 50 14 63 8 12 15
33 15 46 0 33 27 96 56 131 16 18 22 35 19 47 -5 14 0 21 18 28 19 7 28 22 37
59 6 28 22 60 36 73 24 22 33 37 80 129 13 25 24 41 24 36 0 -17 30 17 60 70
16 30 35 54 40 54 5 0 12 11 16 25 6 24 63 95 77 95 3 0 34 27 69 60 34 33 67
60 73 60 6 0 31 23 56 51 24 28 64 61 89 74 61 32 222 174 250 222 28 46 72
89 100 98 11 4 18 10 15 15 -6 9 23 22 34 15 5 -2 19 7 31 20 13 14 30 25 37
25 8 0 25 12 40 26 30 30 63 44 102 44 19 0 30 6 33 18 3 12 25 23 64 35 32 9
72 28 88 42 16 14 41 25 57 25 17 0 35 9 47 25 17 21 23 23 52 15 17 -5 37
-14 44 -19 9 -8 22 -2 47 19 24 21 45 29 72 30 20 0 37 5 37 11 0 14 71 4 104
-13 28 -16 63 -11 103 14 20 12 41 17 53 13 12 -4 26 -2 33 3 7 5 28 12 47 14
19 3 43 8 52 12 13 6 21 1 29 -18 15 -32 50 -34 86 -6 14 11 41 20 60 20 19 0
47 7 63 15 21 11 36 12 55 5 40 -15 62 -12 85 12 19 21 22 21 73 8 28 -7 84
-13 122 -13 49 0 75 -4 87 -14 10 -9 24 -13 35 -8 62 25 273 20 273 -6 0 -15
42 -32 49 -20 5 8 16 7 38 -4 17 -9 65 -17 110 -19 47 -2 91 -10 110 -20 18
-9 43 -16 57 -16 14 0 37 -5 52 -10 15 -6 57 -13 93 -15 36 -2 80 -9 96 -15
17 -6 82 -14 145 -17 63 -3 123 -10 134 -15 17 -9 155 -39 266 -57 25 -4 54
-12 65 -18 11 -6 47 -14 80 -18 33 -4 77 -16 98 -26 21 -9 70 -27 110 -40 40
-12 79 -28 88 -35 9 -8 40 -21 70 -30 30 -9 62 -23 72 -32 19 -17 82 -42 106
-42 8 0 24 -9 35 -19 12 -10 93 -66 181 -124 88 -58 174 -117 191 -131 18 -14
36 -26 41 -26 5 0 31 -23 58 -51 26 -27 73 -69 104 -91 53 -39 85 -66 134
-115 12 -12 42 -38 67 -58 106 -87 173 -162 247 -279 41 -67 83 -130 92 -141
9 -11 27 -40 40 -65 13 -25 30 -52 37 -60 24 -29 94 -174 94 -195 0 -11 6 -29
14 -40 52 -75 79 -264 75 -535 -3 -288 -3 -289 13 -308 27 -32 68 -140 61
-160 -3 -7 2 -21 11 -31 17 -18 22 -40 50 -196 25 -143 36 -229 40 -311 3 -44
9 -116 15 -160 5 -43 12 -164 15 -267 3 -104 8 -193 12 -198 4 -6 11 -5 20 2
8 6 17 9 20 6 8 -7 7 -141 -1 -165 -3 -12 2 -33 14 -53 l20 -33 10 27 c6 15
17 27 26 27 10 0 15 10 15 30 0 16 6 33 14 37 7 4 21 24 30 45 10 20 26 38 37
41 11 3 19 9 18 14 -4 22 3 33 20 33 11 0 21 -5 23 -10 2 -7 32 -2 78 14 41
13 87 27 103 30 15 4 27 13 27 21 0 8 17 19 38 25 125 39 166 47 214 44 42 -3
47 -1 23 5 -16 5 -24 9 -17 10 6 0 12 7 12 14 0 21 62 45 132 53 34 3 70 13
79 21 14 12 22 12 60 -3 24 -10 47 -21 50 -26 7 -11 52 5 47 17 -3 9 86 63
105 64 4 1 7 -5 7 -13 0 -9 15 -17 40 -21 23 -4 54 -18 69 -31 16 -13 34 -24
40 -24 6 0 11 -9 11 -20 0 -11 5 -20 11 -20 6 0 23 -8 37 -18 15 -10 42 -18
61 -18 35 1 50 19 103 126 7 14 19 32 26 40 7 8 29 40 49 70 19 30 42 60 49
66 8 6 27 30 42 53 62 92 292 336 382 406 36 28 99 73 140 100 100 66 107 70
165 101 27 14 52 29 55 33 3 4 52 31 109 59 58 29 109 56 115 61 6 4 25 11 41
15 17 4 37 13 45 20 18 15 190 86 208 86 7 0 29 9 49 20 21 11 45 20 53 20 9
0 24 6 35 14 11 7 45 19 75 25 30 7 94 26 142 44 l88 31 1 141 1 140 13 -110
c13 -109 11 -185 -6 -185 -5 0 -9 -23 -9 -51 0 -43 3 -50 16 -45 9 3 20 6 25
6 4 0 6 6 3 14 -3 8 4 21 16 29 12 8 22 24 23 36 1 17 8 21 39 21 21 0 38 4
38 8 0 5 19 14 43 21 23 7 49 17 57 22 8 5 22 12 30 15 8 4 34 15 57 26 23 11
46 17 51 14 4 -2 14 -1 22 4 13 8 12 12 -5 24 -18 14 -15 15 44 9 49 -5 62 -3
57 6 -11 17 12 41 38 41 12 0 39 9 61 20 22 11 34 20 27 20 -6 0 -9 7 -6 15 4
10 20 15 48 16 33 0 37 2 21 9 -14 7 -9 8 18 4 39 -7 157 14 157 27 0 4 -10
10 -22 12 -13 2 8 5 45 6 38 0 78 6 90 12 11 7 67 13 124 15 75 3 110 8 129
21 21 13 27 14 34 3 4 -7 15 -10 24 -7 29 11 16 26 -26 30 -34 3 -30 4 20 5
36 1 62 -2 62 -8 0 -5 19 -9 43 -9 23 1 33 4 22 6 -22 6 -36 23 -29 35 6 10
44 11 44 1 0 -5 18 -8 41 -8 31 0 39 3 36 15 -3 13 9 14 80 12 47 -2 83 1 83
6 0 5 24 12 53 15 28 3 66 12 82 21 17 9 47 16 68 16 20 0 37 4 37 9 0 4 48
11 108 14 99 5 200 23 212 38 5 6 169 25 313 35 48 3 87 10 87 15 0 14 78 11
82 -3 4 -10 11 -10 34 1 l29 15 -35 7 c-20 4 0 5 46 2 76 -5 82 -4 87 16 6 23
20 26 105 22 l52 -3 0 1071 c0 663 -4 1071 -9 1071 -6 0 -13 -4 -16 -10 -3 -5
-26 -10 -50 -10 -24 0 -47 5 -50 10 -9 14 -35 12 -35 -2 0 -7 -14 -21 -31 -30
-36 -21 -129 -25 -129 -5 0 8 -2 9 -8 1 -12 -20 -75 -41 -144 -48 -56 -6 -67
-11 -74 -29 -6 -20 -8 -18 -11 11 -4 31 -5 32 -26 17 -12 -8 -29 -15 -39 -15
-10 0 -18 -4 -18 -8 0 -12 -68 -34 -80 -27 -13 8 -80 -13 -80 -26 0 -5 -15 -9
-34 -9 -24 0 -36 5 -39 18 -4 16 -5 16 -6 0 -1 -19 -39 -25 -123 -20 -34 2
-38 0 -38 -23 0 -23 -4 -25 -40 -25 -25 0 -40 5 -40 13 0 9 -2 9 -8 0 -4 -6
-26 -19 -50 -28 -37 -15 -47 -16 -68 -5 -21 12 -26 11 -48 -13 -28 -30 -44
-34 -52 -12 -4 9 -19 15 -37 15 -29 0 -30 -1 -11 -15 29 -22 2 -35 -78 -35
-44 0 -71 -5 -81 -14 -11 -11 -30 -13 -73 -10 -43 4 -55 3 -44 -5 11 -8 2 -11
-37 -11 -29 0 -53 -4 -53 -8 0 -5 -18 -15 -40 -22 -22 -7 -40 -17 -40 -22 0
-4 -15 -8 -34 -8 -26 0 -35 5 -39 21 -6 21 -6 21 -29 -2 -33 -34 -63 -49 -97
-49 -16 0 -50 -9 -75 -19 -32 -14 -46 -16 -49 -8 -3 9 -13 7 -36 -6 -18 -11
-35 -16 -38 -13 -3 3 -14 1 -24 -5 -13 -6 -25 -6 -39 1 -14 7 -20 7 -20 0 0
-5 -9 -10 -20 -10 -11 0 -20 5 -20 10 0 6 -9 10 -20 10 -14 0 -20 -7 -20 -24
0 -27 -20 -32 -167 -42 -40 -3 -73 -10 -73 -15 0 -5 -22 -9 -49 -9 -76 0 -111
-10 -111 -31 0 -17 -8 -19 -80 -19 -52 0 -80 -4 -80 -11 0 -6 -7 -8 -15 -5 -9
3 -18 -1 -21 -9 -10 -25 -24 -6 -24 31 0 19 -4 34 -10 34 -7 0 -10 -313 -10
-918 l0 -918 -122 -32 c-68 -18 -152 -42 -188 -53 -36 -10 -75 -19 -86 -19
-12 0 -77 -18 -144 -40 -67 -22 -129 -40 -138 -40 -8 0 -38 -7 -66 -15 -28 -8
-85 -24 -126 -35 -41 -11 -95 -27 -120 -35 -25 -8 -56 -15 -70 -15 -14 -1 -43
-9 -65 -20 -22 -11 -53 -19 -68 -20 -15 0 -44 -7 -64 -15 -44 -19 -309 -85
-338 -85 -11 0 -37 -9 -58 -20 -20 -11 -54 -20 -74 -20 -21 0 -51 -7 -67 -15
-15 -8 -55 -19 -87 -24 -33 -6 -64 -13 -70 -17 -6 -3 -34 -12 -62 -19 -29 -7
-95 -24 -147 -38 -52 -13 -116 -27 -142 -31 -27 -4 -48 -11 -48 -16 0 -4 -19
-11 -42 -15 -24 -3 -70 -15 -103 -25 -89 -28 -169 -49 -275 -71 -52 -12 -142
-36 -200 -55 -58 -19 -118 -34 -135 -34 -16 0 -43 -7 -60 -16 -16 -8 -48 -18
-71 -21 -36 -5 -44 -2 -53 16 -14 25 -21 265 -11 366 4 39 3 102 -2 140 -5 39
-11 97 -12 130 -3 68 -20 127 -47 167 -11 14 -19 42 -19 61 0 19 -9 45 -20 60
-21 27 -26 62 -10 72 16 10 11 41 -10 60 -21 19 -100 175 -100 197 0 8 -7 24
-16 36 -8 12 -14 32 -12 44 4 27 28 36 28 11 0 -11 13 -32 29 -47 l29 -27 4
30 c4 30 -24 91 -43 91 -5 0 -18 19 -29 42 -18 38 -19 44 -5 64 36 55 6 265
-49 349 -10 15 -20 41 -23 58 -5 29 -17 58 -98 232 -18 39 -36 78 -39 88 -5
16 -75 130 -117 189 -10 15 -19 36 -19 46 0 10 -9 27 -20 37 -11 10 -20 24
-20 30 0 7 -7 18 -14 25 -8 6 -25 32 -37 56 -35 73 -103 157 -171 209 -35 28
-72 59 -83 70 -11 11 -40 36 -65 56 -64 51 -205 192 -213 212 -3 9 -11 17 -17
17 -5 0 -10 9 -10 20 0 13 -12 25 -32 35 -61 27 -155 107 -168 141 -5 13 -32
33 -62 47 -29 13 -75 45 -103 70 -31 29 -60 47 -75 47 -14 0 -36 7 -50 15 -14
7 -62 32 -106 54 -45 21 -98 55 -117 75 -31 31 -39 35 -61 26 -35 -13 -53 -4
-59 30 -7 32 -62 100 -82 100 -21 0 -26 -16 -16 -43 9 -24 8 -25 -29 -23 -22
1 -48 10 -58 19 -10 9 -28 17 -40 17 -12 0 -22 5 -22 10 0 15 -29 12 -47 -5
-16 -17 -33 -12 -33 10 0 16 -64 41 -140 54 -60 11 -125 35 -135 51 -4 6 -23
7 -46 4 -23 -4 -50 -2 -62 4 -12 6 -35 13 -52 14 -25 2 -30 8 -30 28 l0 25
105 -3 c58 -2 124 -9 146 -17 40 -13 84 -11 84 5 0 13 -24 28 -60 35 -19 4
-39 11 -45 15 -21 16 -83 18 -102 5 -25 -20 -83 -19 -83 0 0 20 -67 20 -89 1
-21 -19 -130 -24 -140 -7 -4 6 -21 12 -37 12 -16 0 -92 3 -169 5 -117 4 -142
8 -155 23 -8 10 -24 16 -35 13z m-95 -51 c0 -6 -4 -13 -10 -16 -5 -3 -10 1
-10 9 0 9 5 16 10 16 6 0 10 -4 10 -9z m267 -13 c-3 -8 -6 -5 -6 6 -1 11 2 17
5 13 3 -3 4 -12 1 -19z m-677 -98 c0 -13 -61 -51 -74 -47 -23 8 -15 27 16 41
40 17 58 19 58 6z m-120 -70 c0 -5 -9 -10 -21 -10 -11 0 -17 5 -14 10 3 6 13
10 21 10 8 0 14 -4 14 -10z m-924 -22 c4 -6 -7 -24 -26 -41 -29 -26 -37 -28
-74 -22 -23 4 -61 7 -84 6 -59 -2 -51 22 10 29 25 3 53 13 62 23 20 20 101 24
112 5z m-241 -77 c-3 -6 -11 -8 -17 -5 -6 4 -5 9 3 15 16 10 23 4 14 -10z
m-45 -1 c0 -5 -4 -10 -10 -10 -5 0 -10 5 -10 10 0 6 5 10 10 10 6 0 10 -4 10
-10z m2940 1 c0 -5 -7 -11 -15 -15 -9 -3 -15 0 -15 9 0 8 7 15 15 15 8 0 15
-4 15 -9z m-103 -7 c-3 -3 -12 -4 -19 -1 -8 3 -5 6 6 6 11 1 17 -2 13 -5z
m320 -16 c-3 -8 -6 -5 -6 6 -1 11 2 17 5 13 3 -3 4 -12 1 -19z m-3097 -40 c0
-21 -13 -30 -34 -22 -21 8 -20 23 1 46 18 20 33 9 33 -24z m2710 12 c-32 -25
-79 -45 -87 -37 -3 4 2 18 11 32 13 20 24 25 59 25 l42 0 -25 -20z m125 10
c-3 -5 -13 -10 -21 -10 -8 0 -12 5 -9 10 3 6 13 10 21 10 8 0 12 -4 9 -10z
m-2645 -20 c0 -5 -5 -10 -10 -10 -6 0 -15 -11 -20 -25 -13 -34 -39 -43 -56
-20 -13 18 -10 40 5 31 4 -3 21 4 37 14 34 22 44 24 44 10z m2420 -34 c0 -3
-4 -8 -10 -11 -5 -3 -10 -1 -10 4 0 6 5 11 10 11 6 0 10 -2 10 -4z m-2790 -27
c0 -11 -9 -32 -20 -46 l-20 -26 0 40 c0 22 3 43 7 46 14 14 33 6 33 -14z m933
-84 c-10 -17 -73 -65 -85 -65 -17 0 -7 20 25 49 34 33 75 43 60 16z m426 -21
c-20 -24 -50 -37 -61 -26 -6 6 3 17 23 30 36 22 58 20 38 -4z m591 -70 c0 -2
-19 -4 -42 -4 -26 0 -38 4 -30 8 12 8 72 4 72 -4z m-750 -8 c0 -3 -4 -8 -10
-11 -5 -3 -10 -1 -10 4 0 6 5 11 10 11 6 0 10 -2 10 -4z m9620 -390 c0 -3 -4
-8 -10 -11 -5 -3 -10 -1 -10 4 0 6 5 11 10 11 6 0 10 -2 10 -4z m-5805 -1096
c3 -5 -1 -10 -10 -10 -9 0 -13 5 -10 10 3 6 8 10 10 10 2 0 7 -4 10 -10z
m5818 -957 c-13 -2 -35 -2 -50 0 -16 2 -5 4 22 4 28 0 40 -2 28 -4z m-400 -30
c-13 -2 -33 -2 -45 0 -13 2 -3 4 22 4 25 0 35 -2 23 -4z m-30 -50 c-29 -2 -77
-2 -105 0 -29 2 -6 3 52 3 58 0 81 -1 53 -3z m-353 -33 c0 -5 -18 -10 -40 -10
-22 0 -40 5 -40 10 0 6 18 10 40 10 22 0 40 -4 40 -10z m-4245 -1808 c-4 -4
-10 -1 -12 6 -3 6 -11 12 -19 12 -15 0 -19 12 -7 23 3 4 15 -2 26 -14 10 -11
16 -23 12 -27z"/>
<path d="M9138 19468 c9 -9 15 -9 24 0 9 9 7 12 -12 12 -19 0 -21 -3 -12 -12z"/>
<path d="M10400 19436 c0 -8 -12 -17 -26 -20 -15 -4 -33 -14 -41 -21 -8 -8
-25 -15 -39 -15 -17 0 -24 -5 -24 -20 0 -19 25 -29 32 -12 2 4 29 20 61 36 62
30 94 66 57 66 -11 0 -20 -6 -20 -14z"/>
<path d="M8568 19433 c7 -3 16 -2 19 1 4 3 -2 6 -13 5 -11 0 -14 -3 -6 -6z"/>
<path d="M8005 19412 c-25 -8 -59 -33 -69 -50 -11 -19 17 -56 68 -91 39 -27
53 -31 111 -31 86 0 105 10 105 58 0 47 -4 53 -64 91 -50 31 -101 39 -151 23z"/>
<path d="M9057 19402 c-27 -16 -31 -32 -10 -39 6 -2 18 3 27 12 15 15 20 15
63 -6 40 -19 47 -20 57 -7 6 8 21 20 34 27 39 21 24 28 -60 29 -62 1 -90 -3
-111 -16z"/>
<path d="M8515 19279 c-11 -17 2 -22 42 -14 36 8 37 8 13 15 -37 11 -48 11
-55 -1z"/>
<path d="M8472 19240 c9 -13 14 -16 20 -7 4 6 2 15 -5 19 -21 14 -28 9 -15
-12z"/>
<path d="M8480 19156 c0 -20 -4 -36 -10 -36 -5 0 -10 -9 -10 -20 0 -25 12 -26
31 -2 21 24 23 66 5 82 -14 11 -16 8 -16 -24z"/>
<path d="M8023 19121 c-43 -36 -25 -62 50 -76 44 -9 67 6 67 42 0 18 -9 28
-35 39 -44 18 -55 17 -82 -5z"/>
<path d="M5870 19000 c-30 -11 -67 -20 -82 -20 -34 0 -42 -16 -57 -118 -8 -51
-8 -79 -1 -92 12 -23 30 -27 30 -7 0 8 22 24 49 37 44 20 58 22 118 16 149
-16 233 -15 233 2 0 10 -111 52 -136 52 -12 0 -33 11 -48 25 -21 19 -38 25
-73 25 -38 0 -44 2 -34 14 7 8 34 17 62 21 27 4 49 10 49 14 0 8 -43 51 -51
51 -2 -1 -29 -10 -59 -20z"/>
<path d="M8297 18923 c-4 -3 -7 -11 -7 -17 0 -6 5 -5 12 2 6 6 9 14 7 17 -3 3
-9 2 -12 -2z"/>
<path d="M6175 18820 c-8 -13 38 -30 78 -29 24 1 26 3 10 6 -25 5 -30 18 -10
26 6 3 -7 6 -30 6 -23 1 -45 -4 -48 -9z"/>
<path d="M6429 18789 c26 -5 50 -5 60 1 11 7 -2 9 -44 9 l-60 -1 44 -9z"/>
<path d="M7960 18590 c-22 -48 -23 -69 -1 -56 10 7 32 50 45 89 3 10 0 17 -8
17 -7 0 -23 -22 -36 -50z"/>
<path d="M19485 18490 c-3 -5 3 -10 14 -10 12 0 21 5 21 10 0 6 -6 10 -14 10
-8 0 -18 -4 -21 -10z"/>
<path d="M5074 18481 c-2 -2 -4 -23 -4 -45 0 -32 3 -38 11 -26 8 11 12 12 16
3 2 -7 11 -13 19 -13 9 0 12 5 8 11 -4 7 1 10 12 7 10 -2 27 -20 37 -40 11
-20 25 -35 31 -32 6 2 18 -1 26 -6 13 -9 13 -11 0 -20 -13 -9 -13 -10 0 -11 8
0 41 -3 74 -5 80 -7 93 -1 72 31 -18 28 -21 61 -6 70 33 20 84 -41 62 -75 -9
-15 -8 -19 4 -24 22 -9 22 -9 37 20 14 26 24 34 104 73 26 13 55 27 63 31 33
16 11 25 -75 30 -49 3 -96 9 -103 14 -13 8 -380 15 -388 7z m166 -71 c0 -5 -2
-10 -4 -10 -3 0 -8 5 -11 10 -3 6 -1 10 4 10 6 0 11 -4 11 -10z"/>
<path d="M17600 18065 c0 -10 10 -15 27 -15 26 0 26 1 7 15 -25 19 -34 19 -34
0z"/>
<path d="M14861 17086 c-9 -11 -10 -20 -2 -35 6 -11 11 -38 11 -60 0 -23 5
-41 10 -41 10 0 7 136 -3 146 -2 2 -10 -2 -16 -10z"/>
<path d="M9106 16228 c-11 -6 -51 -10 -90 -8 -39 1 -127 2 -196 2 -108 0 -126
-3 -137 -18 -8 -11 -38 -23 -74 -31 -33 -6 -85 -24 -116 -39 -47 -22 -62 -25
-89 -16 -30 9 -57 3 -55 -12 4 -27 -4 -38 -36 -55 -32 -16 -40 -17 -51 -5 -11
12 -17 12 -40 0 -15 -7 -58 -21 -97 -30 -97 -24 -103 -26 -118 -39 -7 -7 -22
-17 -32 -23 -15 -8 -21 -24 -23 -60 -2 -27 -8 -52 -14 -55 -18 -11 2 -49 25
-50 197 -4 232 -3 230 9 -4 16 15 15 32 -2 8 -7 31 -17 52 -21 21 -4 40 -11
43 -16 4 -5 19 -5 37 0 30 9 73 3 147 -19 22 -7 58 -9 87 -5 29 4 49 3 49 -3
0 -5 21 -15 48 -22 49 -14 65 -27 57 -47 -13 -36 151 -136 213 -131 21 2 37
-2 39 -9 7 -18 -27 -29 -38 -12 -6 10 -11 11 -19 3 -8 -8 -7 -14 5 -24 26 -21
17 -130 -11 -130 -8 0 -14 -9 -14 -20 0 -11 -8 -23 -17 -27 -10 -3 -28 -15
-41 -26 -21 -20 -36 -21 -275 -22 -248 -2 -445 -19 -513 -45 -16 -7 -51 -16
-78 -21 -61 -11 -226 -85 -297 -132 -78 -52 -209 -175 -209 -197 0 -20 -12
-31 -100 -86 -61 -38 -74 -55 -65 -84 5 -15 0 -23 -22 -32 -15 -6 -40 -23 -54
-36 -15 -13 -44 -30 -65 -37 -21 -7 -40 -17 -41 -22 -2 -5 19 -15 47 -23 52
-14 64 -28 30 -37 -11 -3 -20 -10 -20 -15 0 -13 92 0 139 19 20 8 70 30 112
49 43 19 83 32 90 29 30 -10 219 -11 219 -1 0 6 4 6 11 -1 8 -8 6 -18 -7 -37
-19 -30 -9 -50 21 -44 24 4 45 39 28 45 -20 7 -15 23 7 23 11 0 20 7 20 15 0
18 39 29 100 29 73 0 213 -23 222 -36 6 -10 18 -9 56 5 70 24 109 23 118 -5 5
-17 0 -27 -21 -44 l-27 -21 50 -13 c28 -6 61 -11 74 -10 36 3 48 1 48 -10 0
-5 -22 -10 -49 -10 -27 0 -68 -7 -92 -16 -31 -11 -87 -18 -184 -20 -77 -2
-175 -7 -217 -11 -43 -5 -78 -5 -78 -1 0 4 -17 0 -37 -9 -21 -8 -47 -19 -58
-23 -11 -4 -33 -13 -48 -19 -15 -6 -36 -11 -47 -11 -10 0 -21 -4 -25 -10 -11
-17 58 -43 164 -61 57 -9 107 -22 110 -27 6 -10 113 -43 196 -61 220 -45 495
-36 697 25 26 8 53 14 60 14 7 0 26 7 41 15 16 8 47 20 69 25 44 12 146 74
165 100 9 12 75 62 101 76 1 0 -1 9 -4 19 -6 14 -18 17 -83 14 -137 -5 -191
-1 -185 15 3 8 20 17 38 20 18 4 43 17 56 31 13 14 31 25 41 25 9 0 30 7 45
15 16 8 39 15 50 15 12 0 40 6 62 14 22 8 61 18 86 21 26 4 50 13 54 20 4 7
17 17 30 24 30 16 29 58 -3 101 -29 40 -31 52 -7 49 9 -2 30 0 45 4 22 6 27
12 22 27 -9 27 23 42 66 30 48 -14 66 -13 51 2 -15 15 -15 23 1 40 15 17 31
42 57 91 17 31 19 44 11 73 -12 44 -6 59 38 104 20 19 43 45 51 58 12 18 20
21 48 16 59 -11 92 43 56 94 -14 20 -14 22 5 22 23 0 85 75 78 94 -3 8 10 30
29 51 38 42 74 97 74 114 0 6 -11 11 -24 11 -13 0 -26 7 -30 15 -3 8 -12 15
-20 15 -16 0 -16 9 -1 131 5 39 -9 94 -31 120 -8 8 -14 28 -14 42 0 22 -5 27
-27 28 -28 2 -37 3 -100 15 -20 4 -33 2 -33 -4 0 -5 -9 -12 -19 -15 -15 -3
-26 5 -43 29 -25 37 -43 45 -108 47 l-42 2 6 38 c4 24 2 37 -5 37 -12 0 -55
-30 -95 -68 -26 -23 -40 -21 -62 10 -15 21 -48 24 -55 4 -3 -7 -3 -32 0 -55 4
-27 2 -41 -6 -41 -6 0 -11 11 -11 23 0 16 -9 28 -25 35 -14 7 -30 24 -35 38
-13 32 -66 84 -88 84 -8 0 -23 6 -31 14 -12 11 -21 12 -35 4z m494 -213 c0 -8
-4 -15 -10 -15 -5 0 -10 7 -10 15 0 8 5 15 10 15 6 0 10 -7 10 -15z m-1085
-834 c87 -11 224 -49 248 -69 23 -20 22 -59 -3 -72 -22 -12 -182 -16 -200 -5
-18 11 -80 -4 -80 -20 0 -16 -9 -18 -47 -15 -13 1 -58 -11 -100 -25 -60 -21
-90 -26 -128 -22 -44 4 -54 2 -73 -18 -16 -16 -31 -22 -48 -19 -13 2 -34 -1
-45 -7 -15 -8 -19 -8 -15 0 11 17 -16 13 -52 -9 -17 -11 -40 -19 -50 -18 -44
3 -82 -3 -82 -14 0 -7 -19 -26 -41 -42 -38 -27 -44 -28 -110 -22 -57 6 -69 5
-69 -7 0 -22 -39 -9 -66 22 l-22 25 52 51 c47 47 103 85 211 142 52 28 218 83
249 83 14 0 37 5 53 11 47 19 245 57 298 57 28 1 82 -3 120 -7z m370 -691 c-3
-5 -11 -10 -16 -10 -6 0 -7 5 -4 10 3 6 11 10 16 10 6 0 7 -4 4 -10z"/>
<path d="M18332 16148 c7 -19 35 -21 41 -3 5 11 0 15 -19 15 -16 0 -24 -5 -22
-12z"/>
<path d="M11481 16101 c-6 -10 -16 -42 -22 -70 -10 -46 -12 -50 -30 -40 -11 5
-25 7 -31 3 -6 -4 -8 -3 -4 4 3 6 3 13 -2 16 -4 2 -9 21 -10 42 -2 20 -5 41
-8 45 -7 12 -37 -21 -64 -69 -13 -23 -26 -40 -28 -37 -3 3 -18 -13 -34 -35
-17 -22 -34 -40 -40 -40 -5 0 -7 -9 -3 -20 8 -26 -11 -60 -35 -60 -11 0 -20
-6 -20 -13 0 -22 -39 -47 -76 -47 -19 0 -33 -4 -30 -9 14 -22 -22 -40 -91 -47
-70 -6 -73 -6 -73 15 0 30 -38 29 -42 -1 -4 -28 -59 -57 -110 -58 -30 0 -38
-4 -38 -19 0 -23 19 -31 71 -31 28 0 39 -4 39 -15 0 -8 -5 -15 -12 -15 -7 0
-5 -5 5 -12 19 -15 37 -60 37 -93 0 -15 14 -35 40 -56 71 -59 111 -139 90
-179 -9 -18 -3 -29 50 -81 33 -34 60 -67 60 -75 0 -13 14 -18 47 -17 6 0 9 -6
6 -13 -4 -10 8 -20 36 -32 24 -10 41 -24 41 -33 0 -9 6 -19 13 -22 17 -6 37
-94 37 -160 0 -88 54 -195 108 -211 12 -4 22 -12 22 -18 0 -35 150 -122 228
-132 33 -4 52 -3 52 4 0 13 33 13 47 -1 6 -6 21 -8 33 -4 13 4 19 10 14 14 -5
3 -10 14 -12 24 -3 15 1 17 20 11 13 -4 35 -7 50 -6 16 0 28 -3 28 -8 0 -9 85
-5 197 11 39 6 93 9 120 8 26 -1 58 1 70 5 12 4 24 2 28 -4 3 -5 21 -10 40
-10 18 0 40 -3 49 -6 19 -7 21 -33 4 -35 -7 -1 -20 -3 -28 -4 -8 -1 -36 -3
-62 -4 -27 0 -48 -5 -48 -11 0 -5 8 -10 19 -10 10 0 30 -9 44 -20 19 -15 40
-20 84 -20 32 0 83 -7 113 -15 30 -9 90 -20 132 -25 87 -11 132 -26 123 -40
-3 -5 -11 -7 -18 -5 -7 3 -41 7 -77 9 -36 3 -96 10 -135 16 -132 20 -250 32
-300 31 -27 0 -70 6 -95 14 -66 22 -168 45 -196 45 -13 0 -42 11 -64 25 -49
31 -50 31 -50 0 0 -26 32 -47 57 -38 7 3 15 -1 17 -8 2 -8 7 -23 12 -34 4 -11
6 -24 5 -28 -1 -5 3 -6 9 -2 9 5 11 0 9 -22 -1 -10 60 -33 87 -33 14 0 24 -6
24 -14 0 -16 21 -26 55 -26 12 0 28 -7 35 -15 13 -15 192 -75 227 -75 11 0 40
-7 63 -15 24 -8 79 -20 124 -25 45 -6 106 -15 136 -20 86 -14 238 -11 315 5
39 8 89 15 112 15 24 0 78 7 120 15 43 8 99 17 126 20 42 6 46 8 37 25 -5 10
-26 24 -45 30 -19 6 -33 16 -30 21 4 5 -5 9 -19 9 -23 0 -25 3 -20 29 5 25 2
30 -22 39 l-29 10 37 1 c20 1 40 6 43 11 3 6 30 10 58 10 45 1 50 2 35 14 -23
17 -13 53 17 58 29 6 73 -12 141 -57 29 -19 57 -35 63 -35 6 0 11 -3 11 -8 0
-9 71 -32 99 -32 10 0 21 6 24 14 3 8 19 16 36 18 l30 3 -20 43 c-11 23 -24
42 -29 42 -17 0 -11 28 8 33 13 3 9 7 -15 16 -18 7 -31 17 -30 23 1 6 -16 21
-38 33 -22 13 -41 30 -43 39 -2 9 -8 16 -13 16 -5 0 -9 5 -9 11 0 10 -88 104
-230 246 -49 49 -147 122 -218 163 -14 8 -32 20 -39 27 -7 6 -26 14 -43 18
-16 4 -30 11 -30 16 0 5 -8 9 -17 9 -10 0 -31 8 -48 18 -16 10 -66 24 -110 31
-44 7 -109 19 -145 26 -103 22 -158 25 -445 27 -268 1 -295 4 -295 36 0 14
-35 42 -53 42 -37 0 -15 59 34 90 36 22 43 33 42 67 -1 16 25 25 33 12 3 -6
10 -6 17 -1 7 5 29 15 49 21 20 7 42 19 48 27 7 7 21 14 31 14 10 0 26 8 36
19 10 10 37 22 61 26 23 4 42 10 42 15 0 14 75 59 112 65 21 4 36 11 33 15 -8
13 54 33 85 27 22 -5 32 -2 39 11 8 14 25 17 94 17 82 0 85 -1 130 -37 25 -21
49 -38 53 -38 4 0 26 -12 47 -27 37 -26 117 -44 195 -43 28 0 52 -1 128 -3 56
-2 64 -5 114 -47 49 -42 73 -57 140 -92 35 -18 49 -38 50 -70 0 -28 30 -53 53
-45 16 6 67 -24 67 -40 0 -7 16 -31 37 -53 33 -37 38 -40 52 -26 14 15 13 19
-4 49 -27 47 -94 121 -116 129 -11 4 -23 18 -29 32 -5 13 -14 27 -19 31 -6 3
-11 14 -11 24 0 10 -9 21 -20 24 -11 3 -23 12 -26 22 -4 9 -18 29 -33 44 -41
45 -47 55 -60 93 -13 40 -54 83 -70 74 -13 -8 -51 11 -51 24 0 6 11 10 24 10
23 0 41 23 32 39 -3 4 -23 16 -46 26 -22 10 -40 24 -40 32 0 7 -4 13 -9 13 -6
0 -37 27 -69 61 -50 50 -65 60 -88 57 -22 -2 -29 -8 -29 -25 0 -13 -4 -23 -10
-23 -5 0 -10 12 -10 26 0 23 -18 44 -40 44 -5 0 -3 -4 5 -10 12 -8 12 -10 -3
-16 -12 -4 -17 -15 -15 -33 3 -25 1 -26 -37 -23 -49 4 -55 10 -31 28 12 8 14
14 7 14 -7 0 -26 9 -42 21 -16 11 -37 19 -47 17 -9 -2 -37 11 -61 29 -52 39
-55 40 -75 11 l-15 -21 -41 28 c-37 26 -49 28 -143 31 -56 1 -136 10 -177 19
-41 10 -104 21 -140 25 -71 9 -130 27 -130 41 0 13 -149 9 -184 -6 -147 -61
-188 -72 -228 -56 -16 6 -39 5 -65 -2 -48 -12 -76 2 -71 36 2 11 -6 25 -19 34
-19 13 -23 13 -32 -6z m573 -30 c6 -9 -16 -21 -40 -21 -20 0 -17 18 4 23 28 8
31 7 36 -2z m546 -1028 c36 -8 94 -23 130 -34 36 -11 70 -19 76 -19 6 0 22 -8
35 -18 13 -11 42 -22 65 -25 65 -11 173 -64 184 -91 10 -26 30 -44 30 -27 0 6
12 11 26 11 17 0 28 -6 31 -20 3 -11 12 -20 19 -20 8 0 14 -10 14 -25 0 -19
-5 -25 -22 -26 -13 -1 -38 -2 -55 -4 -27 -2 -33 1 -33 17 0 18 -5 20 -36 15
-21 -4 -50 -1 -68 7 -17 7 -36 11 -43 9 -17 -6 -89 33 -97 53 -5 12 -14 15
-39 10 -103 -22 -177 -18 -177 9 0 12 -15 15 -62 16 -173 2 -250 6 -256 16
-10 15 -119 27 -127 13 -10 -16 -77 -1 -97 21 -16 19 -16 21 4 44 12 14 42 32
67 41 25 9 55 20 66 25 37 15 60 17 180 17 66 -1 149 -7 185 -15z m677 -330
c-9 -9 -20 -13 -24 -9 -4 4 -1 11 7 16 25 16 35 11 17 -7z m-1577 -188 l25
-14 -25 -9 c-19 -7 -29 -6 -42 6 -37 32 -6 44 42 17z m1257 -211 c-3 -3 -12
-4 -19 -1 -8 3 -5 6 6 6 11 1 17 -2 13 -5z"/>
<path d="M7020 15931 c0 -6 5 -13 10 -16 6 -3 10 1 10 9 0 9 -4 16 -10 16 -5
0 -10 -4 -10 -9z"/>
<path d="M6990 15870 c0 -11 5 -20 10 -20 6 0 10 9 10 20 0 11 -4 20 -10 20
-5 0 -10 -9 -10 -20z"/>
<path d="M6980 15814 c0 -31 23 -28 28 4 2 15 -2 22 -12 22 -11 0 -16 -9 -16
-26z"/>
<path d="M8060 15760 c-12 -8 -10 -10 8 -10 13 0 20 4 17 10 -7 12 -6 12 -25
0z"/>
<path d="M17440 15710 c0 -5 9 -10 21 -10 11 0 17 5 14 10 -3 6 -13 10 -21 10
-8 0 -14 -4 -14 -10z"/>
<path d="M17370 15450 c-36 -16 -75 -30 -86 -30 -12 0 -27 -6 -33 -14 -7 -8
-27 -18 -44 -22 -18 -3 -48 -15 -67 -25 -19 -10 -102 -51 -185 -91 -320 -156
-533 -307 -695 -493 -51 -58 -100 -122 -100 -130 0 -3 -11 -21 -23 -38 -59
-80 -157 -295 -157 -345 0 -9 -7 -30 -15 -46 -25 -48 -74 -380 -60 -412 5 -13
9 -15 12 -6 7 18 30 15 38 -5 6 -16 8 -15 25 7 11 14 20 32 20 41 0 9 11 20
24 23 26 6 47 47 27 54 -8 3 -8 9 0 24 6 11 9 29 6 39 -3 11 7 35 24 59 16 22
29 44 29 50 0 12 35 31 44 23 3 -3 6 5 6 19 0 30 32 74 60 83 11 4 20 12 20
19 0 8 7 19 15 26 8 7 12 16 9 21 -3 5 8 15 25 22 17 7 28 16 24 20 -3 4 -1 7
6 7 15 0 81 52 81 64 0 5 8 15 18 22 9 7 17 18 17 25 0 8 16 18 35 24 41 12
87 52 92 80 2 14 14 22 38 26 19 4 37 3 38 -2 2 -5 13 2 23 15 11 14 28 28 39
31 11 4 20 12 20 20 0 15 22 25 56 25 13 0 24 5 24 11 0 6 7 8 15 5 9 -3 28 6
47 24 17 16 46 35 64 42 19 7 34 17 34 24 0 14 23 24 56 24 13 0 24 5 24 10 0
6 10 10 23 10 24 0 150 50 155 62 2 5 11 8 21 8 9 0 26 7 37 15 10 8 33 15 50
15 17 0 37 7 44 15 7 9 21 13 30 10 37 -12 40 13 38 283 l-3 261 -65 -29z"/>
<path d="M6717 15133 c-3 -5 -2 -15 2 -22 7 -10 10 -10 16 -1 4 6 3 16 -3 22
-5 5 -12 6 -15 1z"/>
<path d="M13645 14779 c-4 -6 2 -21 14 -33 12 -12 21 -28 21 -35 0 -7 6 -11
13 -8 11 4 12 24 2 54 -6 19 -43 35 -50 22z"/>
<path d="M8145 14530 c3 -5 8 -10 11 -10 2 0 4 5 4 10 0 6 -5 10 -11 10 -5 0
-7 -4 -4 -10z"/>
<path d="M9230 14519 c0 -5 5 -7 10 -4 6 3 10 8 10 11 0 2 -4 4 -10 4 -5 0
-10 -5 -10 -11z"/>
<path d="M15360 14459 c0 -11 5 -17 10 -14 6 3 10 13 10 21 0 8 -4 14 -10 14
-5 0 -10 -9 -10 -21z"/>
<path d="M15445 14430 c-3 -5 -1 -10 4 -10 6 0 11 5 11 10 0 6 -2 10 -4 10 -3
0 -8 -4 -11 -10z"/>
<path d="M14320 14320 c0 -6 7 -10 15 -10 8 0 15 2 15 4 0 2 -7 6 -15 10 -8 3
-15 1 -15 -4z"/>
<path d="M15362 14215 c0 -16 2 -22 5 -12 2 9 2 23 0 30 -3 6 -5 -1 -5 -18z"/>
<path d="M4900 14170 c0 -5 21 -10 46 -10 27 0 43 4 39 10 -3 6 -24 10 -46 10
-21 0 -39 -4 -39 -10z"/>
<path d="M6004 13940 c-60 -26 -129 -103 -154 -169 -32 -87 -60 -336 -50 -446
5 -49 9 -141 9 -204 1 -64 7 -139 15 -170 8 -31 20 -78 27 -104 6 -26 24 -61
40 -78 15 -16 30 -47 34 -68 5 -33 10 -39 30 -37 31 1 39 35 30 114 -14 121
28 299 69 296 19 -2 22 22 4 29 -10 3 -9 12 5 35 13 23 17 53 17 131 0 83 3
106 20 133 11 18 25 51 31 73 7 24 27 55 51 78 21 20 36 42 33 47 -3 6 1 13 9
16 9 3 16 12 16 20 0 10 7 13 25 8 15 -4 30 -1 39 9 14 13 13 20 -1 58 -9 24
-21 51 -27 59 -6 8 -20 31 -30 50 -37 68 -83 116 -124 128 -51 16 -68 14 -118
-8z"/>
<path d="M9004 13861 c-40 -10 -124 -52 -124 -63 0 -4 -4 -8 -9 -8 -5 0 -22
-5 -38 -12 -15 -6 -32 -10 -36 -9 -5 1 -6 -3 -3 -8 4 -5 -10 -15 -29 -21 -19
-6 -35 -17 -35 -24 0 -7 -12 -18 -27 -25 -28 -13 -63 -39 -137 -103 -24 -21
-46 -38 -49 -38 -14 0 -134 -78 -157 -101 -14 -15 -35 -29 -47 -33 -13 -4 -23
-11 -23 -15 0 -10 -106 -76 -143 -90 -19 -8 -27 -18 -27 -35 0 -14 5 -28 10
-31 17 -11 11 -23 -20 -42 -16 -9 -30 -24 -30 -33 -1 -23 -22 -46 -50 -53 -14
-4 -36 -23 -50 -42 -14 -19 -49 -54 -78 -76 -29 -23 -55 -53 -58 -66 -6 -21
-11 -24 -34 -19 -27 5 -28 3 -41 -54 -10 -46 -17 -60 -31 -60 -11 0 -18 -7
-18 -19 0 -12 -12 -23 -32 -31 -63 -23 -77 -33 -82 -56 -4 -13 -11 -24 -16
-24 -6 0 -10 -7 -10 -16 0 -9 -20 -36 -45 -60 -34 -34 -41 -46 -30 -50 18 -7
20 -34 2 -34 -25 0 -51 -43 -48 -82 3 -48 -13 -78 -39 -71 -11 3 -20 13 -20
22 0 18 -18 41 -32 41 -4 0 -8 -11 -8 -24 0 -28 -29 -42 -107 -51 -43 -6 -53
-10 -53 -26 0 -10 -4 -19 -10 -19 -14 0 -13 -27 1 -32 6 -2 12 -17 12 -33 0
-17 8 -37 18 -46 11 -9 22 -30 25 -46 5 -24 1 -34 -20 -50 -18 -15 -26 -30
-26 -52 0 -35 -35 -81 -62 -81 -14 0 -18 8 -18 41 0 24 -4 38 -10 34 -5 -3
-10 -1 -10 4 0 6 -7 11 -15 11 -19 0 -20 -19 -1 -26 13 -5 15 -17 16 -104 1
-47 19 -110 31 -110 4 0 10 -13 14 -30 4 -16 11 -32 16 -35 12 -8 11 -39 -3
-70 -12 -27 -38 -34 -38 -10 0 8 -4 15 -9 15 -5 0 -11 10 -13 23 -6 41 -23 19
-41 -55 -13 -52 -16 -89 -11 -128 4 -30 8 -71 10 -90 7 -71 38 -198 52 -212 6
-6 21 -16 34 -22 16 -8 24 -22 26 -46 4 -63 10 -94 23 -140 7 -25 12 -48 11
-52 -3 -11 36 -20 58 -13 16 5 18 10 10 24 -11 21 7 81 28 94 17 11 15 26 -7
45 -22 19 -45 107 -34 125 4 7 11 53 15 102 4 50 13 124 21 165 13 73 14 75
40 72 16 -2 27 2 27 10 0 6 6 4 13 -6 12 -17 18 -17 69 -6 71 16 106 8 114
-26 4 -15 -1 -69 -10 -122 -19 -102 -18 -105 32 -118 12 -3 22 -10 22 -15 0
-5 9 -9 20 -9 10 0 35 -13 53 -30 19 -16 41 -30 50 -30 8 0 20 -15 28 -32 7
-18 23 -49 36 -68 13 -19 23 -41 23 -49 0 -15 66 -81 81 -81 5 0 9 7 9 15 0 8
5 15 11 15 6 0 8 8 5 18 -9 35 -18 137 -10 129 13 -12 34 52 34 103 0 53 7 61
65 78 35 10 42 10 53 -5 6 -9 12 -24 12 -33 0 -12 8 -15 33 -12 22 2 38 -2 46
-12 8 -9 21 -16 30 -16 14 0 99 -78 198 -180 68 -70 144 -120 183 -120 23 0
33 -6 40 -26 10 -26 92 -70 110 -59 6 3 10 0 10 -7 0 -7 9 -19 21 -26 17 -11
23 -11 36 0 13 10 17 10 20 1 7 -21 33 -15 33 7 0 15 -7 20 -29 20 -38 0 -46
13 -21 35 19 18 22 18 56 2 68 -33 158 -12 135 31 -4 9 -12 35 -15 57 -4 22
-14 50 -22 63 l-15 22 -45 -25 c-74 -41 -84 -33 -124 94 -19 58 -20 75 -11
102 6 18 11 45 11 60 0 40 32 56 67 33 26 -16 27 -16 50 10 13 15 28 47 34 71
16 62 31 72 68 44 16 -12 32 -28 35 -36 9 -23 33 -14 49 20 25 54 67 165 67
176 0 19 60 42 110 43 63 2 157 -43 171 -81 5 -14 12 -32 15 -40 6 -19 64 35
64 60 0 9 7 19 15 23 8 3 20 17 25 31 5 14 15 25 23 25 7 0 20 9 30 20 22 27
88 26 147 -1 25 -11 67 -23 93 -26 34 -4 47 -10 43 -19 -3 -7 -1 -16 4 -19 6
-4 10 1 10 10 0 8 8 18 18 22 9 3 31 17 49 29 54 41 74 44 225 35 126 -8 148
-12 180 -32 21 -13 58 -37 83 -52 25 -16 45 -35 45 -43 0 -8 5 -14 11 -14 5 0
7 -4 4 -10 -3 -5 -1 -10 5 -10 6 0 15 11 19 24 5 12 33 43 61 68 59 52 88 58
288 58 102 0 119 -3 147 -21 17 -12 37 -34 43 -48 7 -14 21 -37 32 -50 l20
-23 25 24 c117 117 235 115 323 -5 58 -77 65 -82 99 -60 15 10 40 32 56 50 49
56 90 75 142 67 25 -3 55 -14 66 -23 23 -19 49 -82 49 -122 0 -14 6 -33 13
-43 12 -16 14 -15 36 8 14 15 36 26 51 26 21 0 30 -9 52 -53 14 -29 31 -77 37
-107 12 -58 9 -197 -6 -241 -10 -33 -74 -89 -102 -89 -20 0 -75 52 -97 92 -10
18 -12 19 -18 3 -6 -17 10 -90 25 -110 4 -5 10 -35 14 -66 6 -51 5 -57 -17
-71 -55 -35 -204 -22 -239 21 -17 21 -17 21 -52 -14 -19 -19 -42 -35 -51 -35
-9 0 -16 -6 -16 -14 0 -18 -37 -25 -125 -23 -66 2 -74 5 -118 41 -26 21 -47
42 -47 47 0 22 -44 5 -82 -32 l-42 -41 38 -33 c22 -18 59 -41 83 -50 42 -16
47 -16 84 0 25 12 39 25 39 37 0 12 7 18 23 18 21 -1 22 -1 3 -15 -17 -13 -18
-15 -3 -15 9 0 17 -4 17 -10 0 -16 70 -12 76 5 7 17 84 22 84 5 0 -6 15 -8 38
-4 27 4 49 1 70 -10 17 -9 43 -16 57 -16 14 0 39 -7 56 -15 19 -11 41 -14 64
-9 21 4 35 2 35 -4 0 -5 18 -12 40 -16 22 -3 40 -10 40 -15 0 -5 15 -11 32
-15 24 -5 36 -2 45 10 9 13 21 14 55 9 42 -7 125 -44 101 -45 -23 0 -2 -28 25
-33 32 -6 62 8 62 28 0 8 7 15 15 15 9 0 18 7 21 15 4 8 15 15 25 15 11 0 19
7 19 16 0 19 54 69 93 85 15 6 27 15 27 20 0 4 18 13 40 19 27 7 45 19 52 36
6 13 15 24 20 24 4 0 8 8 8 19 0 10 6 24 14 30 7 6 16 34 18 62 3 27 9 54 14
59 5 5 43 17 84 25 88 19 92 19 148 17 35 -2 42 -5 42 -23 0 -11 4 -18 9 -15
5 3 11 -1 14 -9 4 -8 24 -23 47 -35 22 -11 46 -32 52 -45 15 -34 33 -31 49 8
7 17 21 43 31 56 10 13 18 34 18 46 0 23 12 50 43 97 10 15 25 63 33 108 27
156 67 275 121 356 45 68 72 98 96 107 9 3 17 13 17 21 0 19 30 36 62 36 46 0
51 -12 51 -114 -1 -84 2 -98 18 -107 11 -5 19 -16 19 -23 0 -20 30 -42 38 -29
4 6 17 13 30 17 12 4 20 11 17 16 -3 5 3 11 14 15 21 6 28 49 26 150 -1 33 -2
93 -3 132 l-2 73 -40 6 c-37 6 -40 9 -40 38 0 17 -7 40 -15 50 -19 25 -19 55
0 62 8 4 15 12 15 20 0 8 5 14 10 14 21 0 9 34 -22 62 -40 36 -69 48 -114 48
l-34 0 0 61 c0 41 5 66 14 73 8 6 17 25 21 43 5 26 2 34 -14 45 -12 7 -21 19
-21 26 0 10 -10 12 -40 7 -26 -4 -40 -3 -40 4 0 6 -18 11 -40 11 -22 0 -40 -4
-40 -9 0 -5 -18 -2 -40 6 -22 9 -40 20 -40 25 0 4 -9 8 -20 8 -11 0 -23 7 -27
16 -4 10 -13 14 -29 10 -12 -3 -26 -1 -29 4 -6 10 -83 54 -96 55 -14 1 -39 35
-39 54 0 15 -10 23 -40 31 -22 6 -40 15 -40 21 0 5 -15 18 -32 29 -46 28 -98
72 -98 83 0 5 -25 34 -55 64 -30 30 -55 56 -55 58 0 1 -16 20 -35 41 -19 21
-35 46 -35 55 0 24 -27 49 -61 56 -20 4 -29 12 -29 24 0 12 -8 20 -22 21 -13
1 -32 3 -43 4 -11 1 -26 2 -32 3 -19 2 -15 29 5 34 9 3 -2 5 -25 6 -31 1 -43
5 -43 16 0 43 -102 17 -120 -30 -5 -14 -13 -25 -17 -26 -5 0 -23 -2 -41 -5
-23 -3 -31 0 -26 7 4 8 0 9 -15 4 -18 -5 -21 -2 -21 19 0 15 -8 30 -20 36 -12
6 -25 30 -32 55 -8 30 -18 45 -29 45 -21 0 -66 -36 -74 -59 -5 -18 -71 -45
-86 -35 -5 3 -18 -5 -30 -17 -15 -15 -28 -19 -47 -14 -15 4 -30 11 -33 16 -3
6 -18 11 -33 13 -16 2 -31 7 -34 13 -4 6 -30 18 -59 27 -38 13 -53 23 -55 38
-4 26 -28 37 -28 13 0 -13 -5 -16 -22 -11 -57 18 -179 36 -239 36 -87 0 -108
20 -52 48 21 11 64 23 96 26 l57 7 0 45 c0 24 1 47 3 51 1 4 -18 6 -41 4 -33
-2 -50 2 -65 17 -12 10 -32 22 -45 25 -29 7 -92 -13 -92 -29 0 -6 -7 -14 -15
-18 -8 -3 -15 -12 -15 -21 0 -8 -4 -15 -10 -15 -5 0 -19 -9 -30 -20 -23 -23
-17 -50 11 -50 10 0 19 -5 19 -10 0 -17 -31 -24 -41 -9 -8 11 -13 10 -28 -8
-11 -13 -25 -23 -33 -23 -8 0 -7 -4 5 -11 27 -16 9 -30 -29 -23 -31 6 -34 4
-34 -19 0 -14 -6 -28 -12 -30 -7 -3 -1 -6 15 -6 34 -1 35 -14 3 -29 -14 -6
-35 -25 -47 -41 -13 -17 -28 -31 -35 -31 -7 0 -18 -8 -23 -17 -10 -17 -10 -17
-11 1 0 18 -1 18 -18 3 -25 -23 -30 -22 -62 13 -15 17 -24 30 -19 30 5 0 9 7
9 15 0 8 -8 15 -19 15 -28 0 -88 27 -94 43 -6 17 -47 29 -47 15 0 -6 -8 -4
-19 6 -16 14 -20 15 -30 2 -9 -10 -22 -13 -42 -9 -36 7 -101 -5 -94 -18 4 -5
-7 -22 -24 -36 -18 -16 -31 -37 -31 -50 0 -13 -4 -24 -10 -24 -5 -1 -14 -2
-19 -3 -5 0 -13 -5 -18 -10 -5 -5 -2 -6 7 -2 8 4 6 0 -4 -8 -24 -20 -46 -21
-46 -2 0 8 -8 13 -17 12 -9 0 -22 8 -27 19 -14 25 -43 55 -79 78 -15 9 -27 24
-27 32 0 8 -6 15 -14 15 -7 0 -35 10 -62 22 -35 16 -44 23 -30 26 10 2 22 -2
27 -9 4 -7 11 -10 15 -6 4 4 -2 21 -14 37 -25 33 -28 56 -9 63 17 5 -50 67
-71 65 -50 -4 -82 3 -82 17 0 11 -11 15 -40 15 -31 0 -40 -4 -40 -17 0 -21
-29 -59 -50 -65 -8 -3 4 -10 28 -17 23 -6 42 -16 42 -21 0 -5 8 -10 18 -13 12
-3 8 -6 -13 -12 -16 -4 -33 -13 -37 -18 -3 -6 -46 -12 -95 -14 -100 -3 -115
-7 -107 -26 3 -10 -9 -14 -53 -15 -140 -3 -146 -5 -160 -41 -12 -28 -16 -31
-29 -20 -10 8 -18 9 -22 2 -4 -5 -14 -10 -22 -11 -101 -6 -173 -17 -176 -26
-6 -18 46 -146 59 -146 11 0 87 -81 87 -92 0 -13 106 -118 119 -118 6 0 11 -4
11 -10 0 -5 9 -10 21 -10 19 0 38 -7 119 -43 14 -6 36 -19 49 -29 13 -10 39
-18 57 -18 19 0 57 -9 86 -20 32 -12 77 -20 114 -20 46 0 66 -5 83 -19 13 -11
28 -18 35 -15 7 3 39 -5 70 -16 31 -12 67 -19 79 -16 24 6 87 -26 87 -44 0 -5
7 -10 15 -10 28 0 65 -23 65 -41 0 -23 54 -41 131 -44 45 -1 65 -7 82 -23 13
-12 30 -22 38 -22 8 0 24 -6 35 -14 15 -12 17 -17 7 -27 -22 -22 -15 -26 52
-34 71 -7 105 -1 105 20 0 7 7 15 15 19 18 6 45 -2 45 -15 0 -5 23 -9 51 -9
27 0 48 4 45 9 -8 12 44 21 123 21 64 0 67 1 79 30 8 17 20 30 28 30 8 0 14 5
14 10 0 6 26 10 58 11 69 1 107 11 108 27 1 7 2 17 3 22 0 6 9 10 19 10 10 0
23 5 28 10 6 6 42 13 80 17 38 3 76 12 85 20 9 7 33 15 54 17 20 2 40 8 44 13
3 5 14 13 24 16 11 4 21 16 24 27 3 11 14 20 24 20 10 0 21 5 24 10 3 6 17 10
31 10 13 0 34 10 45 21 16 16 29 20 56 16 43 -7 83 7 90 33 3 12 14 20 26 20
12 0 34 12 49 27 23 22 31 25 37 14 10 -16 68 -6 90 17 10 10 16 11 19 3 2 -6
11 -11 20 -11 12 0 13 3 4 12 -17 17 -15 48 2 48 8 0 18 -9 21 -20 6 -19 45
-29 45 -11 0 22 34 20 57 -3 14 -14 34 -28 44 -31 10 -4 19 -11 19 -16 0 -5 7
-9 16 -9 25 0 44 -31 32 -53 -5 -10 -7 -25 -4 -33 8 -22 -4 -44 -25 -44 -10 0
-19 -4 -19 -9 0 -5 -8 -12 -18 -15 -9 -3 -23 -15 -30 -27 -17 -27 -3 -44 53
-63 42 -15 89 -52 180 -142 38 -38 74 -64 93 -69 21 -4 29 -11 25 -21 -3 -8 0
-14 6 -14 6 0 11 -8 11 -19 0 -10 7 -24 15 -31 8 -7 15 -23 15 -35 0 -12 7
-28 15 -35 8 -7 15 -21 15 -30 0 -10 9 -39 20 -64 10 -25 17 -46 14 -46 -2 0
0 -9 6 -21 7 -11 18 -18 25 -15 8 3 21 -2 30 -10 13 -13 15 -13 15 -1 0 17 41
30 64 21 9 -3 16 -12 16 -19 0 -8 6 -20 14 -27 7 -8 17 -24 20 -36 4 -12 14
-22 23 -22 8 0 17 -9 20 -20 3 -11 11 -20 18 -20 7 0 15 -6 17 -12 8 -21 -2
-38 -23 -38 -16 0 -19 -7 -19 -50 0 -27 -4 -50 -10 -50 -5 0 -10 5 -10 10 0 6
-9 10 -20 10 -11 0 -20 -4 -20 -10 0 -5 -4 -10 -10 -10 -5 0 -10 6 -10 14 0
16 -72 28 -81 13 -4 -5 -11 -7 -17 -3 -6 4 -31 -8 -55 -25 -44 -31 -46 -31
-78 -15 -18 9 -40 14 -49 11 -9 -3 -27 4 -39 15 -13 10 -36 25 -52 32 -16 7
-29 18 -29 24 0 5 -9 20 -20 32 -12 12 -17 22 -13 22 27 2 -49 29 -80 30 -45
0 -91 39 -101 85 -4 17 -13 38 -21 48 -11 16 -19 17 -52 8 -21 -6 -58 -11 -81
-11 -54 0 -146 26 -162 45 -7 8 -20 15 -29 15 -10 0 -26 7 -37 15 -10 8 -31
15 -46 15 -15 0 -31 6 -35 13 -15 22 -53 38 -91 36 -20 -1 -47 1 -60 5 -16 5
-24 3 -28 -8 -3 -9 -12 -16 -20 -16 -8 0 -14 -5 -14 -10 0 -6 -12 -16 -26 -22
-22 -10 -28 -10 -39 5 -12 17 -15 17 -54 -4 -24 -12 -48 -18 -59 -14 -15 6
-15 8 5 25 12 9 20 20 17 22 -2 3 7 3 22 0 24 -4 25 -3 15 15 -5 11 -7 24 -3
28 48 48 -194 100 -453 98 -269 -3 -325 -10 -443 -54 -103 -39 -108 -40 -139
-25 -18 9 -33 11 -33 6 0 -13 -57 -13 -65 0 -4 6 -12 5 -20 -4 -9 -9 -48 -17
-102 -21 -111 -8 -133 -12 -133 -28 0 -7 10 -17 21 -22 29 -13 29 -29 2 -33
-13 -2 -23 -7 -23 -11 0 -13 134 -51 182 -51 44 0 106 -16 97 -25 -3 -2 -18
-6 -35 -9 -17 -3 -43 -12 -60 -20 -24 -12 -87 -14 -354 -12 -179 1 -332 -1
-340 -5 -22 -10 -70 1 -70 16 0 7 6 16 13 18 6 3 2 6 -10 6 -12 1 -43 -10 -70
-24 -57 -28 -91 -34 -233 -39 -105 -4 -160 -16 -160 -36 0 -17 -25 -11 -38 10
-10 17 -20 19 -79 14 -86 -6 -123 2 -123 27 0 15 -7 19 -33 19 -19 0 -37 -3
-40 -6 -3 -4 -23 -8 -43 -9 -20 -1 -39 -6 -42 -12 -4 -5 -23 -20 -42 -33 -19
-14 -61 -51 -94 -82 -65 -64 -88 -73 -219 -88 -59 -7 -83 -7 -86 1 -2 6 -12
20 -22 30 -11 11 -19 24 -19 29 0 6 -4 10 -10 10 -5 0 -10 6 -10 14 0 7 -9 25
-21 40 -27 34 -82 36 -110 4 -16 -20 -20 -21 -29 -8 -11 18 -5 44 19 72 38 46
47 57 61 78 8 12 20 28 27 35 7 7 10 15 7 18 -8 8 33 120 48 131 8 6 20 26 27
44 8 18 35 51 62 74 87 74 99 99 113 244 9 88 20 145 34 178 12 27 22 54 22
61 0 8 4 15 10 17 5 2 11 12 13 23 3 22 80 149 96 159 5 4 12 19 16 35 3 16
16 33 30 39 16 8 26 24 32 54 9 41 78 148 95 148 4 0 8 7 8 15 0 9 8 19 18 22
30 12 82 69 82 92 0 20 4 23 39 25 8 1 15 10 17 21 5 36 25 60 71 89 63 41 83
65 83 102 0 26 7 36 41 58 34 23 40 32 36 54 -3 14 0 33 6 42 25 42 -12 59
-89 41z m2196 -431 c0 -5 -5 -10 -11 -10 -5 0 -7 5 -4 10 3 6 8 10 11 10 2 0
4 -4 4 -10z m-1345 -29 c3 -5 1 -12 -5 -16 -5 -3 -10 1 -10 9 0 18 6 21 15 7z
m1305 -51 c0 -5 -4 -10 -10 -10 -5 0 -10 5 -10 10 0 6 5 10 10 10 6 0 10 -4
10 -10z m-740 -74 c0 -3 -4 -8 -10 -11 -5 -3 -10 -1 -10 4 0 6 5 11 10 11 6 0
10 -2 10 -4z m267 -802 c39 -11 35 -32 -7 -45 -22 -7 -40 -16 -40 -21 0 -4
-11 -8 -25 -8 -20 0 -25 5 -25 25 0 20 8 29 33 40 38 17 36 16 64 9z m2591
-65 c-1 -22 -5 -39 -9 -39 -16 0 -39 32 -39 54 0 29 6 35 30 29 16 -4 19 -13
18 -44z m307 -569 c19 -8 19 -9 -2 -9 -12 -1 -25 4 -28 9 -7 12 2 12 30 0z
m-597 -112 c7 -7 12 -18 12 -26 0 -8 9 -27 21 -43 17 -25 18 -30 5 -35 -8 -3
-26 3 -40 13 -20 14 -25 27 -26 61 0 43 7 51 28 30z m-5411 -340 c-3 -8 -6 -5
-6 6 -1 11 2 17 5 13 3 -3 4 -12 1 -19z m5383 -108 c0 -11 5 -20 10 -20 13 0
13 -27 0 -35 -6 -3 -7 1 -4 9 4 10 1 16 -9 16 -23 0 -39 24 -25 38 18 18 28
15 28 -8z m0 -89 c0 -11 6 -22 13 -25 10 -5 10 -7 0 -12 -7 -3 -13 -12 -13
-20 0 -8 -9 -14 -19 -14 -11 0 -21 -6 -24 -12 -3 -10 -7 -10 -20 1 -21 17 -22
31 -2 31 8 0 21 16 29 35 16 38 36 47 36 16z m-4190 -321 c0 -5 -4 -10 -10
-10 -5 0 -10 5 -10 10 0 6 5 10 10 10 6 0 10 -4 10 -10z"/>
<path d="M11713 13813 c-33 -4 -47 -23 -18 -23 9 0 18 -7 22 -15 3 -9 33 -34
66 -57 33 -23 98 -79 143 -125 45 -45 90 -83 99 -83 10 0 58 -10 107 -22 88
-22 89 -22 83 -49 -4 -18 0 -37 10 -53 9 -14 16 -29 16 -33 -1 -4 16 -9 38
-11 29 -2 40 -8 44 -23 5 -19 31 -26 41 -10 6 9 -48 61 -62 61 -5 0 -18 8 -30
18 -25 22 -13 42 26 42 24 0 24 1 -9 32 -19 18 -41 45 -49 62 -8 16 -35 40
-60 54 -25 13 -54 30 -65 36 -32 19 -85 69 -85 81 0 12 -52 45 -71 45 -6 0
-30 15 -53 34 -34 27 -52 34 -101 38 -33 3 -75 4 -92 1z m547 -357 c0 -3 -4
-8 -10 -11 -5 -3 -10 -1 -10 4 0 6 5 11 10 11 6 0 10 -2 10 -4z"/>
<path d="M14478 13703 c-20 -21 -65 -71 -99 -110 -44 -52 -69 -73 -85 -73 -20
0 -24 -5 -24 -29 0 -17 -5 -33 -10 -36 -7 -4 -7 -13 0 -26 9 -15 7 -19 -5 -19
-8 0 -15 8 -16 18 -1 9 -5 -2 -11 -25 -6 -30 -14 -43 -26 -43 -39 0 -57 -121
-19 -128 14 -3 17 4 17 41 0 25 3 53 6 61 6 15 7 15 19 0 10 -15 14 -14 34 15
27 38 48 39 80 5 26 -28 61 -113 61 -151 0 -12 5 -25 10 -28 7 -4 10 -52 9
-123 -2 -201 22 -312 68 -312 8 0 23 -20 34 -45 11 -25 24 -45 29 -45 6 0 10
-11 10 -25 0 -18 5 -25 19 -25 19 0 27 14 52 95 7 22 17 45 22 52 9 12 53 245
66 348 15 121 -23 505 -55 552 -10 15 -21 42 -24 58 -5 29 -7 30 -65 33 -59 3
-62 2 -97 -35z"/>
<path d="M14151 13706 c-12 -13 -21 -32 -19 -42 4 -25 36 -30 45 -7 4 10 13
24 20 32 8 7 12 18 10 25 -7 20 -33 17 -56 -8z"/>
<path d="M19953 13528 c-18 -6 -33 -17 -33 -24 0 -19 -49 -18 -56 1 -4 8 -10
15 -15 15 -5 0 -9 -7 -9 -15 0 -12 -20 -15 -120 -15 -79 0 -120 -4 -120 -11 0
-7 -31 -10 -91 -8 -77 3 -93 0 -104 -14 -10 -13 -28 -17 -87 -17 -55 0 -79 -4
-88 -15 -17 -21 -30 -19 -30 5 0 17 -7 20 -40 20 -22 0 -40 -4 -40 -10 0 -5
-18 -10 -40 -10 -34 0 -40 -3 -40 -21 0 -20 -4 -21 -51 -17 -42 4 -53 2 -62
-13 -7 -11 -20 -19 -29 -19 -10 0 -18 -7 -18 -15 0 -9 -9 -15 -24 -15 -35 0
-56 -10 -56 -26 0 -9 -12 -14 -37 -14 -21 0 -45 -5 -53 -10 -11 -7 -12 -10 -2
-10 8 0 12 -9 10 -22 -2 -17 -13 -25 -40 -31 -32 -8 -38 -13 -38 -36 0 -25
-15 -39 -62 -57 -25 -9 -22 -21 7 -28 31 -8 32 -24 2 -31 -26 -7 -70 -85 -61
-109 3 -8 1 -17 -5 -21 -6 -3 -11 -17 -11 -31 0 -17 -6 -24 -18 -24 -15 0 -18
-6 -14 -32 3 -22 0 -35 -12 -43 -14 -11 -15 -19 -7 -56 13 -57 14 -109 1 -109
-16 0 -13 -335 3 -349 12 -9 13 7 11 92 -2 82 -1 92 6 52 4 -27 9 -85 9 -128
1 -58 6 -88 22 -118 18 -36 20 -56 18 -173 -3 -138 3 -176 27 -176 10 0 14
-12 14 -40 0 -22 5 -40 10 -40 6 0 10 -22 10 -50 0 -49 15 -96 36 -115 13 -11
24 -75 13 -75 -11 0 1 -38 17 -51 9 -7 11 -21 7 -37 -4 -17 -1 -29 10 -37 11
-8 19 -35 23 -83 5 -51 11 -72 21 -72 17 0 33 -41 33 -86 0 -52 -28 -45 -33 9
-2 23 -4 4 -5 -43 -1 -49 2 -79 7 -72 6 10 19 11 47 6 21 -4 34 -9 28 -11 -8
-3 -10 -18 -7 -43 4 -26 2 -40 -6 -40 -6 0 -11 -17 -11 -40 0 -22 5 -40 10
-40 6 0 10 -18 10 -40 0 -39 -1 -40 -37 -41 l-38 0 43 -17 c23 -9 42 -19 42
-22 0 -4 -18 -13 -40 -20 -47 -16 -57 -50 -15 -50 14 0 25 -3 25 -6 0 -3 -11
-15 -25 -26 -27 -21 -32 -43 -12 -52 10 -5 10 -7 0 -12 -7 -3 -13 -12 -13 -20
0 -8 -9 -14 -20 -14 -23 0 -26 -10 -8 -28 9 -9 9 -15 0 -24 -7 -7 -12 -34 -12
-60 0 -34 -4 -48 -14 -48 -10 0 -16 -22 -21 -80 l-7 -80 -32 0 c-33 0 -81 -40
-58 -48 17 -5 15 -32 -3 -32 -10 0 -17 -14 -21 -40 -5 -30 -11 -40 -25 -40
-15 0 -19 -7 -19 -35 0 -22 -6 -38 -15 -41 -10 -4 -15 -20 -15 -45 0 -32 -4
-39 -19 -39 -11 0 -22 -6 -24 -12 -4 -10 -6 -10 -6 0 -1 6 -13 12 -28 12 l-28
-1 23 -12 23 -13 -21 -19 c-12 -10 -28 -35 -37 -54 -22 -48 -21 -47 -38 -25
-8 10 -15 14 -15 7 0 -6 5 -15 10 -18 20 -12 9 -25 -20 -25 -16 0 -30 -4 -30
-8 0 -16 -78 -93 -82 -81 -2 6 -12 -7 -22 -30 -13 -27 -25 -41 -38 -41 -19 0
-100 -75 -91 -84 3 -2 -4 -2 -15 0 -20 6 -38 -19 -27 -37 4 -5 0 -7 -7 -4 -21
8 -34 -7 -52 -62 -18 -54 -29 -65 -40 -38 -3 8 -10 15 -16 15 -14 0 -13 -27 2
-32 7 -3 9 -12 5 -22 -4 -9 -12 -14 -17 -11 -6 4 -17 1 -25 -5 -12 -10 -15
-10 -15 1 0 10 -3 10 -12 1 -17 -17 -28 -15 -28 6 -1 14 -4 13 -20 -7 -25 -30
-25 -41 0 -41 34 0 22 -19 -19 -30 -25 -6 -41 -17 -44 -30 -3 -11 -12 -20 -21
-20 -9 0 -28 -7 -41 -16 -15 -10 -25 -12 -25 -5 0 18 -18 13 -23 -6 -4 -14 -5
-12 -6 5 -1 15 -7 22 -21 22 -16 0 -20 -8 -23 -57 l-3 -58 -2 58 c-2 43 -6 57
-17 57 -10 0 -15 -10 -15 -29 0 -41 -22 -131 -32 -131 -7 0 -14 503 -8 669 l2
73 -130 -4 c-134 -4 -167 4 -66 16 64 7 114 32 114 57 0 14 -13 50 -50 134
-19 42 -21 65 -9 103 8 29 8 55 -1 108 -6 38 -15 102 -20 143 -12 97 -31 120
-68 83 -26 -26 -81 -57 -129 -72 -57 -18 -166 9 -220 53 -110 91 -192 198
-193 250 0 30 14 18 40 -36 58 -121 202 -217 327 -217 58 0 69 3 105 32 39 30
40 33 34 76 -3 25 -13 53 -21 62 -21 23 -6 34 17 13 16 -14 21 -15 28 -4 30
50 10 221 -39 324 -41 85 -50 143 -25 162 11 8 28 13 39 10 27 -6 49 9 42 29
-5 11 -19 16 -52 16 -25 0 -45 5 -45 10 0 21 -68 9 -135 -24 -70 -34 -166
-103 -214 -154 -36 -38 -71 -90 -71 -106 0 -7 -9 -25 -20 -39 -11 -14 -20 -40
-21 -59 l-1 -33 -10 35 c-18 63 3 140 57 206 51 63 95 102 156 137 59 34 75
52 53 61 -22 8 -180 9 -194 1 -5 -3 -10 -2 -10 4 0 6 17 13 38 16 20 4 53 11
72 16 19 5 53 9 75 9 33 1 37 2 22 11 -37 22 -548 -7 -626 -35 -24 -9 -55 -16
-68 -16 -22 0 -66 -15 -113 -39 -8 -5 -16 -20 -18 -35 -4 -35 17 -35 138 3
139 43 187 54 260 59 58 3 63 2 45 -11 -11 -8 -81 -29 -155 -47 -183 -45 -272
-81 -281 -114 -4 -14 -1 -76 7 -138 8 -62 14 -142 14 -178 0 -36 9 -141 20
-235 11 -93 20 -202 20 -240 0 -39 7 -124 15 -190 8 -66 19 -181 25 -255 5
-74 13 -145 16 -157 5 -20 -2 -26 -57 -51 -35 -16 -91 -39 -124 -52 -33 -14
-72 -32 -87 -42 -14 -10 -29 -18 -32 -18 -4 0 -36 -13 -71 -30 -35 -16 -70
-30 -77 -30 -8 0 -21 -9 -31 -20 -9 -11 -24 -20 -33 -20 -9 0 -54 -26 -101
-57 -46 -32 -93 -63 -104 -69 -10 -6 -27 -18 -37 -27 -10 -10 -23 -17 -29 -17
-9 0 -56 -29 -162 -99 -118 -79 -136 -91 -148 -91 -7 0 -17 -9 -23 -20 -6 -11
-20 -20 -31 -20 -11 0 -22 -6 -25 -14 -5 -12 -103 -86 -162 -121 -9 -5 -54
-40 -101 -77 -46 -38 -89 -68 -97 -68 -7 0 -18 -9 -24 -20 -6 -11 -16 -20 -23
-20 -7 0 -27 -16 -46 -35 -19 -19 -37 -35 -42 -35 -4 0 -41 -27 -81 -61 -58
-49 -77 -60 -98 -55 -15 2 -44 1 -66 -4 -21 -6 -82 -17 -134 -25 -52 -9 -117
-24 -145 -34 -27 -10 -71 -21 -97 -25 -45 -7 -138 -59 -145 -81 -2 -6 26 -11
67 -12 38 -1 74 -4 80 -8 5 -3 10 -25 10 -47 0 -23 9 -61 21 -85 20 -42 29
-156 13 -172 -8 -8 -54 47 -54 65 0 8 -5 13 -10 12 -16 -4 -48 54 -32 59 16 6
15 45 -2 69 -12 15 -17 17 -27 7 -7 -7 -19 -13 -26 -13 -17 0 -53 59 -46 76 9
24 -6 33 -37 22 -59 -20 -42 -92 28 -119 15 -6 22 -16 20 -27 -3 -13 -14 -17
-48 -18 -45 -1 -45 -1 -44 -36 1 -31 22 -89 55 -150 13 -26 24 -47 54 -108 15
-30 37 -73 50 -95 13 -22 33 -60 45 -85 24 -50 32 -66 63 -119 11 -20 42 -79
68 -131 27 -52 53 -102 58 -110 5 -8 14 -26 20 -40 6 -14 16 -34 23 -45 21
-36 27 -49 59 -115 17 -36 36 -71 42 -78 6 -8 25 -44 42 -80 44 -96 55 -111
100 -134 52 -27 248 -97 302 -109 24 -4 56 -15 72 -24 17 -8 46 -15 66 -15 20
0 48 -6 63 -14 15 -8 46 -17 67 -21 22 -3 56 -12 75 -20 83 -31 229 -88 270
-105 25 -10 72 -28 105 -40 33 -12 74 -28 90 -36 17 -7 42 -16 58 -20 15 -3
30 -10 33 -15 3 -5 14 -9 25 -9 11 0 37 -9 57 -19 20 -11 75 -39 122 -62 106
-52 190 -98 210 -113 8 -7 60 -39 114 -71 87 -51 119 -71 186 -115 29 -20 235
-153 290 -188 30 -19 66 -42 80 -52 14 -9 72 -43 130 -76 58 -32 114 -64 125
-71 33 -20 264 -133 271 -133 8 0 143 -63 204 -95 l45 -24 5 -303 c3 -208 8
-287 13 -253 13 75 15 79 32 65 8 -6 18 -9 23 -6 15 9 187 8 217 -3 17 -5 56
-18 88 -28 43 -13 53 -19 40 -25 -13 -5 -11 -7 12 -7 53 -2 135 -25 135 -39 0
-9 7 -11 20 -8 11 3 29 9 40 12 11 3 20 1 20 -5 0 -5 8 -12 18 -14 16 -4 16
-5 0 -6 -27 -2 -22 -21 5 -21 13 0 27 -4 32 -9 6 -4 33 -14 60 -20 123 -30
161 -44 140 -52 -13 -5 -15 -8 -5 -8 33 -2 155 -59 152 -71 -4 -17 17 -30 50
-30 15 0 40 -11 55 -25 80 -70 94 -79 114 -67 10 7 20 8 24 2 3 -5 -3 -13 -12
-19 -29 -17 1 -29 60 -23 47 5 51 4 38 -11 -12 -15 -11 -17 12 -17 38 0 57
-10 57 -31 0 -11 7 -19 17 -19 20 0 105 -40 114 -53 4 -6 14 -7 22 -4 9 3 24
-2 35 -11 53 -45 61 -50 65 -46 8 8 95 -34 105 -51 5 -10 24 -19 41 -21 48 -6
106 -35 89 -45 -9 -6 -7 -9 9 -9 22 0 103 -37 113 -51 3 -4 16 -9 30 -10 17
-3 24 -9 22 -21 -3 -17 30 -34 46 -24 5 3 25 -8 45 -25 20 -16 60 -38 89 -48
29 -10 68 -32 87 -50 23 -22 43 -31 66 -31 24 0 44 -9 67 -30 26 -24 38 -29
63 -24 22 4 35 1 44 -10 8 -9 21 -16 30 -16 9 0 25 -7 35 -15 11 -8 32 -15 47
-15 14 0 32 -7 39 -15 7 -8 22 -15 34 -15 11 0 29 -7 40 -15 10 -8 43 -20 72
-26 33 -7 54 -18 54 -26 0 -7 11 -13 24 -13 13 0 31 -3 40 -6 15 -6 16 437 16
4970 l0 4976 -31 0 c-17 0 -28 4 -24 10 3 6 -1 10 -9 10 -9 0 -16 -7 -16 -15
0 -24 -17 -18 -40 15 -25 35 -40 39 -40 10 0 -22 -25 -27 -50 -10 -13 9 -12
12 4 25 19 14 19 15 -7 15 -17 0 -27 -5 -27 -15 0 -12 -16 -15 -80 -15 -63 0
-80 3 -80 14 0 10 14 16 43 19 26 2 12 4 -35 5 -42 1 -82 4 -90 6 -7 2 -28 -1
-45 -6z m-1153 -2439 c0 -5 -4 -9 -9 -9 -5 0 -23 -3 -40 -6 -26 -5 -31 -3 -31
13 0 16 6 18 40 15 22 -2 40 -8 40 -13z m-2418 -132 c3 -6 25 -20 48 -31 39
-19 45 -27 65 -91 23 -71 51 -163 80 -270 10 -33 23 -80 31 -105 21 -70 44
-224 51 -345 4 -83 2 -131 -11 -195 -10 -47 -16 -114 -14 -150 3 -63 4 -65 33
-70 26 -5 22 -7 -25 -14 -30 -4 -60 -12 -66 -17 -20 -17 -28 27 -27 143 2 104
-10 149 -23 91 -3 -15 -9 -42 -14 -59 -7 -29 -1 -93 15 -156 6 -24 3 -29 -18
-37 -14 -6 -42 -11 -62 -13 l-36 -3 -26 70 c-28 77 -47 150 -70 265 -8 41 -22
109 -31 150 -14 61 -17 127 -17 350 0 170 5 302 12 345 7 39 15 86 18 106 7
50 62 72 87 36z m738 -109 c0 -21 -3 -29 -10 -22 -5 5 -7 19 -4 32 9 31 14 27
14 -10z m-25 -1078 c-3 -5 -11 -10 -16 -10 -6 0 -7 5 -4 10 3 6 11 10 16 10 6
0 7 -4 4 -10z m-132 -21 c-6 -6 -48 -14 -94 -19 -46 -4 -92 -11 -101 -15 -11
-4 -18 -3 -18 3 0 13 31 19 130 28 41 3 77 8 79 10 10 9 14 3 4 -7z m347 -313
c0 -29 -32 -92 -79 -156 -18 -25 -40 -60 -47 -77 -14 -32 -34 -45 -34 -22 0
10 26 60 69 129 11 19 24 42 27 50 17 42 50 100 56 100 5 0 8 -11 8 -24z
m-180 -323 c0 -14 -19 -38 -25 -32 -8 8 5 39 16 39 5 0 9 -3 9 -7z m-40 -87
c0 -3 -4 -8 -10 -11 -5 -3 -10 -1 -10 4 0 6 5 11 10 11 6 0 10 -2 10 -4z
m-2070 -1006 c9 -17 8 -20 -14 -20 -29 0 -44 19 -25 31 21 13 27 11 39 -11z
m67 -52 c35 -25 44 -52 16 -46 -10 2 -19 13 -21 26 -2 14 -10 22 -23 22 -10 0
-19 5 -19 10 0 15 10 12 47 -12z m1578 -198 c3 -5 24 -10 46 -10 21 0 39 -4
39 -10 0 -11 -88 -14 -114 -4 -13 5 -14 9 -5 20 14 16 25 18 34 4z m585 -39
c63 -6 130 -11 148 -11 27 0 33 -4 30 -17 -2 -10 -9 -17 -15 -16 -6 1 -82 7
-170 13 -87 7 -180 16 -208 21 -27 5 -96 12 -152 16 -56 3 -101 9 -99 12 5 8
318 -4 466 -18z m-2270 -47 c8 -8 15 -26 15 -42 1 -53 29 -143 51 -167 13 -14
26 -40 29 -58 5 -27 2 -36 -21 -56 -24 -21 -31 -22 -64 -12 -44 13 -90 67 -90
105 0 13 -5 37 -11 53 -12 30 -21 147 -13 175 9 30 74 32 104 2z m213 -254
c10 -16 13 -31 9 -34 -16 -10 -52 25 -52 49 0 31 20 24 43 -15z m572 -230 c13
-14 15 -23 7 -33 -13 -15 1 -43 17 -33 6 4 11 15 11 25 0 18 30 30 117 46 47
9 53 -13 12 -47 -49 -41 -93 -58 -173 -65 l-71 -5 -2 52 c-2 40 2 56 15 66 24
19 46 17 67 -6z m1832 -2396 c-3 -3 -12 -4 -19 -1 -8 3 -5 6 6 6 11 1 17 -2
13 -5z m573 -154 c12 -8 9 -10 -12 -10 -15 0 -30 5 -33 10 -8 13 25 13 45 0z"/>
<path d="M16380 10767 c-6 -17 -19 -50 -28 -72 -14 -32 -17 -75 -17 -230 0
-188 7 -265 25 -265 5 0 14 18 20 39 7 26 22 48 42 62 l31 22 -7 88 c-4 49
-14 105 -22 125 -24 58 -22 109 5 132 22 17 23 22 13 51 -6 17 -20 43 -30 56
l-20 25 -12 -33z"/>
<path d="M20448 13513 c7 -3 16 -2 19 1 4 3 -2 6 -13 5 -11 0 -14 -3 -6 -6z"/>
<path d="M6457 13384 c-10 -10 5 -78 21 -96 8 -10 21 -18 29 -18 25 0 26 31 4
76 -21 40 -38 53 -54 38z"/>
<path d="M9568 13353 c6 -2 18 -2 25 0 6 3 1 5 -13 5 -14 0 -19 -2 -12 -5z"/>
<path d="M18738 13353 c12 -2 32 -2 45 0 12 2 2 4 -23 4 -25 0 -35 -2 -22 -4z"/>
<path d="M9495 13330 c-3 -5 1 -10 9 -10 9 0 16 5 16 10 0 6 -4 10 -9 10 -6 0
-13 -4 -16 -10z"/>
<path d="M10057 13334 c-8 -8 1 -24 14 -24 5 0 9 7 9 15 0 15 -12 20 -23 9z"/>
<path d="M14190 13160 c0 -19 3 -21 12 -12 9 9 9 15 0 24 -9 9 -12 7 -12 -12z"/>
<path d="M6082 13050 c0 -14 2 -19 5 -12 2 6 2 18 0 25 -3 6 -5 1 -5 -13z"/>
<path d="M6499 12938 c-73 -52 -110 -90 -104 -109 3 -9 -6 -47 -20 -84 -14
-37 -25 -79 -25 -94 -1 -14 -7 -43 -14 -63 -9 -26 -10 -40 -3 -47 14 -14 19
-71 15 -179 0 -18 1 -34 3 -36 9 -8 79 -14 74 -7 -3 5 11 12 30 15 19 4 48 19
65 35 30 27 30 30 40 167 6 76 15 153 21 169 5 17 13 79 16 138 5 88 3 111 -8
118 -24 15 -43 10 -90 -23z"/>
<path d="M11892 12743 c-25 -12 -30 -19 -21 -29 6 -8 9 -20 6 -28 -7 -18 33
-46 66 -46 13 0 32 6 42 14 16 12 18 18 8 37 -7 13 -15 34 -18 47 -8 26 -36
29 -83 5z"/>
<path d="M14530 12573 c0 -14 19 -38 25 -32 8 8 -5 39 -16 39 -5 0 -9 -3 -9
-7z"/>
<path d="M14510 12524 c0 -8 5 -12 10 -9 6 3 10 10 10 16 0 5 -4 9 -10 9 -5 0
-10 -7 -10 -16z"/>
<path d="M15983 12497 c-8 -13 -6 -97 7 -252 46 -573 53 -642 69 -658 6 -6 21
-5 42 2 17 6 48 11 68 11 20 0 61 12 91 26 30 14 78 32 105 39 28 8 64 21 80
29 41 22 78 20 100 -4 15 -16 31 -20 87 -20 56 0 71 4 85 20 24 28 58 25 87
-7 21 -22 27 -24 40 -14 26 22 66 5 73 -31 4 -19 27 -52 60 -85 56 -55 61 -76
29 -111 -19 -20 -66 2 -79 38 -11 29 -37 42 -37 19 0 -6 -17 -32 -38 -58 -22
-25 -44 -55 -50 -66 -10 -18 -12 -16 -31 28 -11 26 -26 47 -33 47 -7 0 -29
-16 -48 -35 -19 -19 -38 -35 -43 -35 -5 0 -22 14 -37 30 -15 17 -32 30 -37 30
-13 0 -93 -100 -93 -116 0 -22 -18 -16 -31 9 -6 12 -27 37 -45 54 -34 32 -36
33 -107 28 -40 -3 -79 -5 -87 -6 -8 0 -34 4 -57 9 -31 7 -48 6 -60 -3 -15 -11
-15 -14 5 -40 14 -17 22 -42 22 -65 0 -31 7 -44 40 -74 46 -41 41 -40 83 -22
18 7 55 16 82 20 28 4 70 11 95 16 59 12 153 18 390 26 125 4 211 11 239 20
49 16 196 20 314 9 l77 -7 0 101 0 102 -54 25 c-47 22 -65 24 -136 20 -45 -2
-84 -7 -87 -10 -4 -3 3 -16 14 -29 43 -47 54 -73 44 -101 -7 -18 -18 -26 -35
-26 -30 0 -40 13 -55 74 -7 27 -25 66 -42 87 -33 42 -38 85 -11 93 9 3 24 19
34 35 20 36 65 46 221 46 l107 0 0 372 0 373 -217 2 c-120 1 -231 2 -248 2
-124 -2 -679 17 -715 25 -67 14 -269 21 -277 8z m919 -584 c20 -23 58 -98 58
-115 0 -6 13 -26 29 -43 16 -16 31 -39 33 -50 2 -11 8 -23 13 -27 6 -5 6 -8
-1 -8 -22 0 -181 181 -190 216 -10 41 29 59 58 27z"/>
<path d="M11520 12210 c0 -5 9 -10 21 -10 11 0 17 5 14 10 -3 6 -13 10 -21 10
-8 0 -14 -4 -14 -10z"/>
<path d="M11495 12170 c-3 -5 1 -10 9 -10 9 0 16 5 16 10 0 6 -4 10 -9 10 -6
0 -13 -4 -16 -10z"/>
<path d="M13746 12092 c-11 -19 -15 -121 -5 -128 6 -3 30 1 55 11 37 14 44 21
44 44 0 20 -8 31 -37 46 -21 11 -41 24 -44 28 -4 5 -9 4 -13 -1z"/>
<path d="M17390 11606 c0 -2 7 -9 15 -16 9 -7 15 -8 15 -2 0 5 -7 12 -15 16
-8 3 -15 4 -15 2z"/>
<path d="M11526 11221 c-4 -5 -2 -21 4 -36 5 -14 10 -36 10 -48 0 -12 5 -38
10 -58 9 -34 12 -36 48 -34 23 2 38 8 40 17 2 8 -16 49 -38 91 -39 71 -60 91
-74 68z"/>
<path d="M11198 11137 c-2 -7 -1 -32 2 -57 l6 -45 8 32 c4 18 5 37 1 43 -3 5
-1 10 4 10 16 0 13 17 -3 23 -8 3 -16 0 -18 -6z"/>
<path d="M17300 11141 c-44 -8 -31 -17 38 -26 34 -4 52 -3 52 4 0 11 -33 32
-47 30 -4 -1 -24 -4 -43 -8z"/>
<path d="M9626 11088 c18 -37 53 -78 66 -78 12 0 10 38 -4 77 -10 28 -17 33
-45 33 l-34 0 17 -32z"/>
<path d="M10391 11076 c-7 -8 -14 -58 -18 -113 -3 -54 -10 -103 -15 -110 -13
-16 -1 -33 23 -33 10 0 19 -5 19 -11 0 -7 13 -9 38 -5 75 14 73 11 51 62 -10
25 -22 71 -25 102 -9 83 -22 122 -44 122 -9 0 -23 -6 -29 -14z"/>
<path d="M10739 11054 c-8 -10 -14 -50 -16 -102 -3 -63 -8 -89 -18 -95 -19
-11 -19 -37 0 -37 8 0 15 -5 15 -11 0 -10 31 -7 83 7 18 6 24 34 7 34 -5 0
-10 9 -10 19 0 11 -5 23 -11 27 -7 4 -9 23 -5 52 6 46 -8 122 -23 122 -5 0
-15 -7 -22 -16z"/>
<path d="M13420 11050 c-10 -20 -13 -44 -8 -94 3 -32 28 -49 28 -19 1 10 7 35
15 56 12 35 12 40 -6 58 -18 18 -19 18 -29 -1z"/>
<path d="M17346 11013 c7 -26 34 -107 67 -196 19 -53 27 -29 27 82 l0 88 -38
27 c-50 34 -64 34 -56 -1z"/>
<path d="M18740 11008 c0 -25 3 -29 10 -18 13 20 13 50 0 50 -5 0 -10 -15 -10
-32z"/>
<path d="M9705 10968 c4 -18 7 -41 8 -51 2 -17 23 -37 40 -37 14 0 7 35 -15
78 -27 50 -43 55 -33 10z"/>
<path d="M10030 10985 c0 -8 5 -15 10 -15 6 0 10 7 10 15 0 8 -4 15 -10 15 -5
0 -10 -7 -10 -15z"/>
<path d="M10040 10885 c0 -32 3 -35 29 -35 35 0 47 31 22 54 -31 28 -51 20
-51 -19z"/>
<path d="M4738 10773 c0 -10 -2 -22 -3 -28 -2 -5 -4 -26 -5 -45 l-2 -35 -8 30
-7 30 -6 -35 c-3 -19 -8 -107 -11 -195 -3 -88 -12 -299 -20 -470 -8 -170 -18
-400 -21 -510 -4 -110 -8 -220 -10 -245 -1 -25 -7 -162 -14 -305 -6 -143 -16
-354 -22 -470 -5 -115 -14 -340 -19 -500 -11 -330 -18 -480 -24 -545 -3 -25
-9 -202 -15 -395 -5 -192 -12 -406 -15 -475 -4 -69 -8 -201 -11 -295 -2 -93
-7 -234 -11 -312 -7 -140 -7 -143 14 -143 11 0 22 4 24 9 2 4 23 18 48 30 100
48 109 57 84 77 -18 14 -17 15 14 11 26 -3 32 0 32 15 0 10 -6 21 -14 24 -13
5 -13 12 -1 52 8 25 12 49 9 54 -3 5 -1 15 5 22 7 8 13 47 15 87 3 52 8 76 20
84 12 9 16 30 16 84 0 54 4 73 15 77 22 9 18 24 -5 24 -17 0 -20 7 -20 40 0
28 4 40 14 40 17 0 32 110 22 163 -5 27 -2 37 19 55 19 16 25 32 26 64 1 24 0
48 -1 53 -1 6 -5 29 -7 53 -5 37 -3 42 14 42 12 0 26 7 33 14 17 21 23 75 10
91 -6 7 -12 46 -14 85 -1 61 -5 75 -24 90 -15 13 -22 29 -22 54 0 31 3 36 23
36 20 1 20 2 5 11 -24 13 -23 31 2 47 22 13 17 39 -11 59 -12 9 -18 36 -23
112 -6 72 -11 101 -22 105 -23 9 -16 57 13 100 16 23 32 44 37 48 6 4 6 11 0
20 -14 19 -9 167 7 211 13 38 13 40 -14 63 l-28 24 28 0 c27 1 27 1 8 16 -19
14 -19 15 8 40 22 20 27 33 27 73 0 31 -5 53 -15 61 -12 10 -13 25 -8 69 3 31
10 58 14 61 4 3 9 55 11 115 3 110 3 110 28 110 24 0 25 2 25 59 0 39 4 61 13
64 17 5 15 27 -4 47 -11 11 -15 28 -12 58 3 30 0 45 -11 54 -14 11 -14 12 2
13 9 0 17 -4 17 -10 0 -5 9 -10 20 -10 24 0 26 18 4 49 -12 17 -15 36 -11 71
5 43 3 50 -17 63 -20 14 -22 21 -18 71 3 38 0 61 -9 72 -13 16 -22 128 -23
292 -1 59 -5 82 -13 82 -18 0 -16 31 3 44 23 18 33 87 23 173 -5 42 -5 103 0
137 5 37 5 66 -1 73 -6 7 -5 14 3 18 8 5 9 28 4 73 -8 75 -18 109 -31 103 -16
-8 -21 53 -7 81 9 19 10 34 3 53 -14 36 -13 108 2 123 8 8 8 15 -1 26 -8 10
-9 16 -1 21 19 11 11 35 -12 35 -14 0 -18 3 -12 8 19 11 21 71 4 82 -11 7 1
10 38 10 32 0 52 4 52 11 0 8 -14 10 -40 6 -29 -4 -40 -1 -40 8 0 16 -32 25
-92 25 -39 0 -48 -3 -50 -17z m132 -989 c0 -8 -4 -12 -10 -9 -5 3 -10 10 -10
16 0 5 5 9 10 9 6 0 10 -7 10 -16z m87 -721 c-2 -16 -4 -3 -4 27 0 30 2 43 4
28 2 -16 2 -40 0 -55z m-10 -243 c-15 -25 -47 -26 -47 -2 0 28 20 43 41 31 16
-8 17 -13 6 -29z m-70 -562 c-2 -13 -4 -3 -4 22 0 25 2 35 4 23 2 -13 2 -33 0
-45z m-70 -1300 c-3 -7 -5 -2 -5 12 0 14 2 19 5 13 2 -7 2 -19 0 -25z"/>
<path d="M4711 10764 c0 -11 3 -14 6 -6 3 7 2 16 -1 19 -3 4 -6 -2 -5 -13z"/>
<path d="M6136 10679 c-3 -30 -8 -225 -11 -434 -3 -209 -10 -506 -15 -660 -5
-154 -12 -674 -15 -1155 -3 -481 -10 -1005 -15 -1165 -11 -328 -13 -745 -4
-769 10 -25 24 -19 24 12 0 40 15 59 33 43 10 -8 17 -9 22 -1 9 15 -5 32 -21
26 -15 -6 -19 6 -7 18 4 4 8 33 9 64 1 32 7 58 13 60 9 3 9 7 1 18 -9 10 -9
22 -1 46 14 41 23 319 11 333 -5 5 -4 32 1 60 6 28 7 75 4 106 -5 44 -3 57 8
62 10 4 12 17 7 57 -8 62 2 139 20 150 11 6 9 12 -5 26 -15 15 -16 28 -10 83
4 37 7 77 7 91 -3 78 -2 229 1 255 9 71 32 100 40 48 3 -20 4 -15 6 15 0 28 6
45 16 48 17 7 20 37 5 63 -7 14 -4 25 14 44 16 18 20 29 14 41 -5 9 -5 23 0
33 5 10 7 23 5 30 -6 16 28 62 46 63 8 0 12 3 9 6 -4 3 0 22 9 41 8 20 11 39
6 42 -5 3 -6 43 -3 89 3 46 1 87 -4 92 -14 14 1 40 24 40 15 0 20 7 20 27 0
14 7 35 17 45 13 14 14 23 5 42 -6 15 -7 27 -1 33 5 5 11 20 14 32 2 13 11 34
20 48 9 13 13 28 9 34 -13 22 40 -3 59 -27 21 -28 37 -31 37 -8 0 9 3 14 8 12
41 -20 63 -28 96 -33 51 -8 90 -47 79 -78 -14 -39 -9 -98 10 -109 10 -5 15
-13 12 -19 -4 -5 -2 -9 4 -9 16 0 51 -42 51 -60 0 -22 47 -73 60 -65 6 3 10 2
10 -4 0 -5 29 -39 65 -76 36 -36 65 -71 65 -76 0 -31 64 -59 74 -32 3 7 12 10
21 7 8 -4 21 -1 29 5 7 6 15 8 18 6 3 -3 36 24 74 60 38 37 86 78 107 92 20
14 37 30 37 35 0 4 11 13 25 18 14 5 25 16 25 25 0 9 9 15 23 15 12 0 27 8 34
18 6 11 31 28 56 40 24 11 57 36 72 54 25 30 27 37 21 92 -3 34 -17 81 -31
108 -27 51 -32 88 -13 88 9 0 9 3 0 12 -6 6 -50 12 -99 14 -48 2 -110 7 -138
11 -44 7 -50 11 -50 33 l0 25 125 2 c162 4 168 5 176 47 9 50 -1 69 -46 88
-38 16 -52 40 -30 53 14 8 13 62 -1 71 -18 11 -30 -18 -26 -57 6 -49 -12 -57
-133 -61 l-95 -3 -3 30 c-5 40 -20 55 -35 34 -18 -23 -44 -30 -57 -15 -13 17
27 68 67 88 44 22 40 36 -27 88 -24 19 -25 20 -8 49 15 27 15 33 2 45 -17 18
-18 50 -1 63 6 6 29 13 51 16 21 3 49 13 63 22 23 15 24 18 8 35 -9 10 -20 34
-26 54 -5 19 -21 49 -34 65 -14 16 -25 32 -25 36 0 5 -11 23 -25 41 -14 18
-25 36 -25 41 0 5 -13 24 -28 43 -31 38 -92 145 -92 161 0 13 -36 64 -82 116
-21 24 -38 47 -38 53 0 17 -37 11 -41 -7 -2 -10 -1 -148 3 -308 4 -159 8 -306
8 -327 0 -20 7 -41 14 -47 10 -9 11 -20 3 -51 -8 -29 -8 -67 1 -137 7 -54 12
-123 12 -154 0 -56 0 -56 40 -74 32 -14 40 -23 40 -44 0 -14 3 -36 6 -48 5
-20 2 -22 -37 -25 -55 -4 -59 -19 -10 -46 21 -12 54 -36 71 -52 43 -40 60 -43
176 -32 70 7 101 14 109 26 12 15 45 23 45 10 0 -4 -10 -24 -22 -45 -16 -29
-28 -39 -47 -39 -14 -1 -105 -1 -201 -2 -96 -1 -192 -3 -212 -6 -34 -4 -38 -7
-38 -33 0 -16 -2 -29 -3 -29 -5 0 -71 32 -77 37 -3 3 -8 75 -11 161 -4 86 -11
180 -17 207 -9 43 -8 52 7 65 18 16 17 28 -12 95 -27 62 -32 69 -65 90 -38 24
-41 55 -7 81 16 12 25 29 25 46 0 23 -4 28 -26 28 -14 0 -23 -4 -19 -9 3 -6
-4 -15 -16 -21 -17 -10 -27 -7 -60 16 -21 15 -39 30 -39 35 0 16 -40 19 -63 5
-20 -14 -26 -14 -43 -2 -13 10 -33 13 -63 9 l-44 -6 6 63 c4 35 14 71 22 80
19 21 19 26 -5 60 -26 37 -24 99 7 159 15 30 23 64 23 97 0 27 5 55 12 62 9 9
9 12 -1 12 -9 0 -12 12 -9 40 2 22 0 40 -5 40 -5 0 -6 35 -2 79 7 78 6 79 -16
83 -17 2 -26 13 -33 38 -5 19 -16 39 -23 43 -7 4 -13 20 -13 35 1 56 -6 102
-16 112 -6 6 -43 14 -82 17 l-70 6 -6 -54z m1124 -959 c0 -5 -5 -10 -11 -10
-5 0 -7 5 -4 10 3 6 8 10 11 10 2 0 4 -4 4 -10z m-697 -173 c63 -77 97 -134
97 -158 0 -15 5 -31 11 -35 8 -4 8 -9 0 -17 -18 -18 -13 -27 15 -27 23 0 25 2
13 16 -19 23 8 37 31 15 16 -15 16 -17 1 -34 -15 -15 -23 -16 -68 -7 -48 11
-54 16 -92 74 -23 34 -41 66 -41 70 0 4 -10 21 -21 38 l-21 29 22 6 c17 4 20
11 16 29 -8 31 13 32 37 1z m964 -534 c4 -11 -35 -25 -49 -17 -14 9 -9 22 10
27 23 6 35 3 39 -10z m-1027 -28 c0 -8 -4 -15 -10 -15 -5 0 -10 7 -10 15 0 8
5 15 10 15 6 0 10 -7 10 -15z"/>
<path d="M17279 10625 c0 -17 -2 -49 -5 -72 -4 -38 -3 -43 16 -43 29 0 35 25
21 79 -15 58 -31 75 -32 36z"/>
<path d="M13440 10602 c0 -13 45 -42 65 -42 11 0 15 -11 15 -40 0 -33 -3 -40
-20 -40 -11 0 -20 -4 -20 -9 0 -15 -49 -19 -61 -5 -9 11 -7 20 5 39 9 13 16
33 16 44 0 16 -5 18 -39 14 -30 -4 -46 0 -70 18 -30 22 -32 22 -66 6 -42 -20
-57 -54 -49 -112 3 -26 -1 -64 -11 -97 -14 -51 -13 -88 4 -88 4 0 7 -9 8 -19
1 -14 -7 -22 -26 -26 -30 -6 -57 -45 -48 -68 3 -9 -2 -17 -14 -20 -14 -4 -19
-14 -19 -42 0 -33 -2 -37 -22 -32 -13 2 -31 8 -40 12 -13 5 -22 -1 -35 -25
-10 -18 -26 -40 -35 -49 -18 -15 -25 -76 -10 -83 4 -1 15 -19 26 -40 15 -31
16 -41 6 -72 -6 -20 -19 -40 -28 -46 -15 -8 -15 -11 -2 -20 22 -15 50 -12 50
5 0 8 13 21 29 29 36 19 48 46 21 46 -11 0 -20 6 -20 14 0 23 28 39 55 32 19
-5 27 -2 32 11 12 32 50 60 92 67 23 3 50 15 61 26 24 24 26 75 4 98 -18 18
-24 11 58 75 22 18 40 44 47 68 7 22 25 52 40 67 23 22 30 39 35 95 7 57 11
67 27 67 24 0 33 36 25 95 -5 33 -12 45 -24 45 -9 0 -27 3 -39 6 -13 4 -23 2
-23 -4z m-143 -382 c3 -35 -7 -39 -25 -10 -10 16 -10 23 0 34 16 18 20 13 25
-24z"/>
<path d="M12160 10550 c0 -36 13 -39 28 -6 11 25 7 36 -15 36 -8 0 -13 -12
-13 -30z"/>
<path d="M11753 10563 c-7 -2 -13 -11 -13 -18 0 -13 -29 -28 -46 -23 -24 6
-156 -15 -168 -28 -8 -8 -22 -14 -31 -14 -9 0 -28 -9 -43 -20 -15 -11 -45 -21
-67 -23 -22 -1 -47 -7 -55 -12 -8 -5 -45 -12 -83 -16 -41 -4 -74 -13 -85 -23
-13 -11 -37 -16 -74 -16 -51 0 -112 -20 -129 -42 -3 -5 -41 -7 -85 -5 -43 1
-96 -2 -116 -6 -32 -7 -38 -5 -38 9 0 14 -9 16 -76 9 -55 -5 -79 -4 -84 5 -12
20 -147 32 -178 16 -17 -8 -67 -14 -132 -15 -75 -1 -109 -6 -120 -16 -22 -20
-133 -35 -157 -21 -28 16 -40 16 -171 5 -140 -11 -148 -13 -155 -40 -3 -12
-17 -22 -36 -25 -17 -4 -28 -10 -25 -15 8 -13 -20 -11 -34 3 -7 7 -12 29 -12
50 l0 38 -69 -1 c-56 -1 -73 -5 -88 -21 -14 -16 -15 -22 -5 -36 7 -9 18 -29
25 -44 6 -16 17 -28 23 -28 8 0 13 -27 16 -77 6 -112 36 -170 105 -203 29 -14
53 -30 53 -37 0 -6 17 -17 38 -24 38 -12 95 -53 86 -62 -10 -10 9 -57 22 -57
21 0 17 30 -3 31 -12 0 -13 2 -5 6 17 7 44 -17 38 -33 -3 -7 3 -16 12 -19 30
-13 182 -26 342 -30 85 -3 187 -9 225 -15 39 -6 93 -10 120 -9 28 1 75 -6 104
-16 29 -9 63 -15 77 -12 36 7 216 -12 230 -24 7 -6 37 -15 66 -19 29 -5 82
-16 118 -24 46 -11 121 -16 258 -16 181 0 192 1 192 19 0 11 -10 22 -22 25
-20 6 -16 9 25 22 26 8 47 19 47 23 0 5 26 7 58 4 46 -4 60 -2 72 12 11 13 11
18 1 24 -9 6 -3 18 23 46 20 21 36 41 36 45 0 4 11 11 25 14 14 4 25 11 25 16
0 5 -11 12 -25 16 -30 7 -33 29 -5 44 11 6 20 17 20 24 0 7 -9 25 -20 39 -11
14 -20 37 -20 51 0 14 -4 26 -9 26 -5 0 -23 14 -40 31 -24 24 -31 39 -31 69 0
21 -5 42 -11 46 -8 5 -6 10 5 16 10 6 20 7 23 4 4 -3 1 -6 -6 -6 -7 0 -9 -4
-6 -10 8 -13 52 -13 59 -1 4 5 0 12 -6 14 -7 3 -2 6 12 6 14 1 42 17 64 37 32
29 45 35 76 33 25 -2 54 6 86 22 l49 25 0 61 c0 44 3 59 13 56 6 -3 12 -9 12
-14 0 -12 42 -49 56 -49 7 0 22 15 33 34 19 31 20 36 6 68 -8 20 -11 38 -8 41
3 4 -2 9 -11 13 -9 3 -16 11 -16 18 0 17 -53 46 -84 46 -21 0 -26 -5 -26 -26
0 -14 -7 -32 -15 -41 -14 -14 -18 -14 -33 0 -26 23 -106 47 -113 35 -8 -13
-39 -3 -39 12 0 6 10 15 23 20 18 7 16 9 -18 9 -22 -1 -46 -3 -52 -6z m-1400
-250 c-7 -2 -19 -2 -25 0 -7 3 -2 5 12 5 14 0 19 -2 13 -5z m270 0 c-13 -2
-33 -2 -45 0 -13 2 -3 4 22 4 25 0 35 -2 23 -4z m-863 -498 c0 -14 -2 -25 -4
-25 -2 0 -6 11 -8 25 -3 14 -1 25 3 25 5 0 9 -11 9 -25z"/>
<path d="M12160 10434 c0 -8 5 -12 10 -9 6 4 8 11 5 16 -9 14 -15 11 -15 -7z"/>
<path d="M17395 10408 c-11 -6 -23 -16 -27 -22 -13 -19 -9 -121 7 -198 15 -69
53 -188 61 -188 2 0 4 95 4 210 0 221 0 223 -45 198z"/>
<path d="M12370 10176 c0 -8 -6 -16 -14 -19 -33 -13 -68 -99 -46 -112 5 -3 10
-15 10 -26 0 -31 20 -22 37 19 8 20 21 40 28 44 15 9 28 69 19 92 -8 20 -34
21 -34 2z"/>
<path d="M12575 10108 c-35 -20 -47 -38 -52 -78 -5 -36 -3 -40 16 -40 11 0 21
6 21 14 0 7 9 25 21 40 11 14 19 37 17 50 -3 22 -6 23 -23 14z"/>
<path d="M11873 9933 c-24 -3 -33 -9 -33 -23 0 -10 -6 -21 -12 -24 -10 -5 -10
-7 0 -12 6 -3 12 -18 12 -34 0 -61 45 -57 52 5 2 20 9 31 23 34 32 5 49 41 20
41 -8 0 -15 5 -15 10 0 6 -3 9 -7 8 -5 0 -23 -3 -40 -5z"/>
<path d="M13105 9850 c-3 -5 -1 -10 4 -10 6 0 11 5 11 10 0 6 -2 10 -4 10 -3
0 -8 -4 -11 -10z"/>
<path d="M11840 9750 c0 -5 9 -10 20 -10 11 0 20 5 20 10 0 6 -9 10 -20 10
-11 0 -20 -4 -20 -10z"/>
<path d="M11745 9670 c3 -5 8 -10 11 -10 2 0 4 5 4 10 0 6 -5 10 -11 10 -5 0
-7 -4 -4 -10z"/>
<path d="M13300 9449 c-7 -11 -9 -26 -7 -33 3 -7 1 -19 -4 -27 -6 -10 -9 -10
-9 -1 0 21 -29 13 -46 -13 -9 -14 -27 -28 -41 -31 -14 -4 -29 -19 -38 -40 -7
-18 -37 -57 -67 -87 -85 -87 -153 -163 -171 -191 -25 -37 -65 -35 -78 4 -15
40 -32 38 -46 -7 -14 -45 -8 -57 22 -49 13 3 27 2 30 -4 3 -5 2 -10 -3 -10 -5
0 -12 -9 -15 -20 -6 -24 -27 -27 -27 -3 0 15 -2 15 -15 3 -8 -8 -26 -37 -39
-65 -16 -30 -33 -50 -43 -51 -55 -3 -63 -5 -63 -18 0 -8 -12 -24 -26 -35 -14
-11 -27 -27 -28 -36 -3 -22 -90 -67 -113 -58 -10 4 -21 11 -25 17 -4 5 -12 -2
-19 -17 -7 -15 -19 -27 -28 -27 -21 -1 -92 -65 -89 -80 4 -18 -84 -70 -118
-70 -7 0 -19 -9 -26 -20 -7 -11 -20 -20 -28 -20 -9 0 -46 -31 -84 -70 -37 -38
-75 -70 -84 -70 -9 0 -28 -11 -42 -25 -47 -47 -93 -85 -102 -85 -5 0 -28 -9
-50 -20 -23 -11 -52 -20 -65 -20 -13 0 -23 -4 -23 -9 0 -11 -93 -51 -120 -51
-16 0 -20 -5 -16 -15 3 -8 1 -15 -4 -15 -6 0 -10 -6 -10 -13 0 -19 -86 -61
-107 -52 -16 7 -14 9 10 18 30 12 31 32 1 33 -24 0 -57 14 -66 28 -6 7 -11 6
-18 -4 -7 -12 -12 -12 -22 -2 -23 23 -58 13 -95 -28 -20 -22 -39 -37 -44 -35
-4 3 -24 -10 -44 -29 -29 -28 -48 -36 -91 -42 -37 -4 -59 -3 -67 5 -6 6 -21
11 -33 11 -12 0 -24 7 -28 15 -3 8 -17 15 -31 15 -14 0 -25 5 -25 10 0 6 -11
10 -23 10 -33 0 -88 28 -114 59 -19 22 -22 23 -23 7 0 -12 -5 -16 -16 -12 -9
3 -22 6 -30 6 -8 0 -14 9 -14 20 0 11 -4 20 -10 20 -5 0 -10 9 -10 20 0 11 5
20 10 20 6 0 10 -7 10 -15 0 -8 5 -15 10 -15 6 0 13 7 16 15 4 8 12 15 20 15
31 0 11 20 -26 26 -22 4 -40 10 -40 15 0 5 18 9 40 9 22 0 40 -4 40 -10 0 -21
39 -9 59 18 11 15 21 22 21 15 0 -8 9 -8 38 0 42 13 89 51 98 79 4 13 12 17
24 13 14 -4 19 1 23 27 3 22 0 37 -10 45 -8 6 -13 22 -11 35 2 18 10 24 37 26
71 7 79 62 10 62 -35 0 -54 10 -94 48 -8 6 -18 12 -23 12 -6 0 -12 5 -14 11
-5 16 -151 44 -156 30 -2 -6 -10 -11 -18 -11 -29 0 -105 -41 -98 -52 5 -8 1
-9 -10 -5 -10 4 -22 7 -27 7 -5 0 -9 7 -9 16 0 14 -8 16 -52 10 -29 -3 -65 -6
-80 -6 -21 0 -28 -5 -28 -20 0 -17 -7 -20 -40 -20 -23 0 -40 5 -40 11 0 8 -14
10 -43 6 -24 -3 -56 -3 -71 1 -25 7 -27 9 -12 21 44 37 -5 36 -57 -1 -16 -11
-35 -17 -43 -14 -8 3 -14 1 -14 -5 0 -6 -13 -21 -29 -35 -16 -13 -32 -38 -36
-54 -8 -36 -35 -40 -72 -10 -14 11 -36 20 -48 20 -12 0 -34 13 -48 30 -29 32
-33 46 -16 52 6 2 -1 16 -15 31 -14 16 -26 32 -26 38 0 5 -16 9 -36 9 -19 0
-33 -4 -30 -8 3 -5 6 -26 8 -46 1 -21 8 -40 15 -43 8 -3 13 -24 13 -60 0 -30
5 -64 11 -75 10 -18 9 -20 -6 -15 -12 5 -16 2 -13 -11 3 -14 17 -17 86 -20
l82 -3 0 -37 c1 -38 19 -72 38 -72 8 0 9 11 5 33 -14 66 -11 72 27 71 94 -4
140 -36 106 -73 -11 -12 -29 -21 -40 -21 -25 -1 -56 -22 -56 -39 0 -15 -47
-33 -85 -33 -17 1 -37 -7 -48 -19 -10 -10 -22 -19 -27 -19 -5 0 -26 -11 -46
-25 -43 -29 -70 -31 -154 -9 -33 8 -74 13 -89 9 -20 -4 -41 1 -74 19 -55 31
-67 32 -67 6 0 -17 -4 -19 -27 -14 -16 4 -37 14 -48 24 -11 10 -33 20 -48 24
-15 4 -25 11 -22 16 3 6 1 11 -4 11 -6 1 -14 2 -18 3 -5 1 -32 6 -61 10 -31 5
-64 17 -80 31 -15 12 -41 30 -59 39 -18 9 -40 25 -50 35 -10 10 -33 22 -52 26
-20 4 -35 14 -38 26 -3 10 -13 19 -23 19 -10 0 -24 7 -31 16 -8 9 -32 25 -54
35 -22 9 -62 38 -89 63 -26 25 -52 46 -56 46 -4 0 -10 6 -13 14 -3 7 -20 16
-37 20 -18 3 -46 21 -64 41 -18 19 -38 35 -44 35 -7 0 -12 11 -12 25 0 28 -25
34 -44 11 -6 -7 -25 -16 -43 -19 -26 -5 -33 -3 -38 13 -4 11 -11 20 -17 20 -7
0 -7 5 1 14 9 11 8 15 -4 20 -17 6 -31 -16 -21 -33 13 -20 -36 3 -54 27 l-20
25 0 -27 c0 -19 -5 -26 -20 -26 -10 0 -25 -10 -31 -22 -16 -30 -14 -29 -33
-22 -9 3 -16 15 -16 25 0 12 -7 19 -20 19 -12 0 -20 -7 -20 -16 0 -8 -7 -22
-15 -30 -10 -10 -15 -35 -15 -71 0 -38 -5 -62 -16 -74 -9 -11 -13 -23 -8 -31
4 -7 9 -21 10 -32 0 -11 6 -22 12 -24 7 -2 12 -14 12 -27 0 -18 7 -25 38 -32
l37 -9 3 -69 c1 -39 5 -77 9 -85 4 -8 8 -22 9 -30 2 -8 10 -33 18 -55 8 -23
13 -55 9 -75 -4 -33 -1 -39 41 -75 29 -25 46 -47 46 -61 0 -13 5 -26 10 -29 6
-3 7 -17 4 -31 -3 -13 -2 -24 4 -24 5 0 12 -16 15 -35 4 -23 19 -47 41 -69 20
-18 36 -42 36 -53 0 -10 18 -33 42 -51 23 -18 38 -32 34 -32 -5 0 -4 -6 2 -13
6 -7 13 -31 14 -52 3 -34 10 -44 46 -68 31 -21 41 -32 33 -40 -20 -20 -12 -27
29 -27 38 0 52 -12 29 -25 -18 -12 22 -45 69 -57 24 -6 46 -17 49 -24 3 -8 16
-14 29 -14 22 0 24 -4 24 -49 0 -46 2 -50 31 -60 17 -6 42 -8 55 -5 13 3 35 3
49 0 20 -5 25 -13 25 -36 0 -17 -4 -30 -10 -30 -5 0 -10 -4 -10 -9 0 -15 37
-23 57 -13 26 14 123 3 123 -14 0 -8 -16 -14 -42 -17 l-43 -4 43 -1 c30 -1 42
-6 42 -17 0 -8 7 -15 15 -15 14 0 19 -11 16 -37 -1 -7 5 -13 14 -13 8 0 15 -4
15 -10 0 -5 6 -10 13 -10 6 0 29 -5 50 -11 32 -9 37 -14 37 -40 0 -17 6 -32
15 -35 20 -8 19 -30 -2 -39 -17 -6 -17 -7 0 -16 9 -6 22 -7 28 -4 17 11 39
-15 39 -46 0 -16 4 -29 10 -29 5 0 13 -18 16 -41 5 -27 15 -46 30 -56 14 -9
24 -25 24 -39 0 -20 5 -24 29 -24 16 0 37 -7 45 -16 9 -9 32 -20 52 -26 32 -8
36 -13 32 -36 -3 -24 -1 -27 27 -27 28 0 30 -2 28 -32 -2 -24 2 -35 17 -43 15
-8 19 -17 14 -35 -5 -19 1 -31 27 -56 51 -46 62 -55 86 -68 12 -6 37 -25 55
-42 28 -26 30 -30 11 -24 -17 5 -23 2 -23 -10 0 -9 5 -13 11 -9 6 3 21 1 34
-6 20 -10 22 -17 14 -37 -9 -24 -4 -29 54 -47 9 -3 17 -15 17 -26 0 -11 7 -20
15 -20 8 0 15 -7 15 -16 0 -9 -5 -12 -12 -8 -7 4 -4 -2 6 -14 13 -15 31 -22
53 -22 23 0 41 -8 57 -25 13 -14 29 -25 35 -25 19 0 71 -30 71 -40 0 -6 -12
-11 -27 -12 -17 0 -11 -3 17 -7 56 -7 108 -2 89 10 -18 11 30 29 77 29 19 0
34 5 34 10 0 6 24 10 59 8 41 -1 66 3 84 15 15 9 32 17 39 17 7 0 19 9 26 21
14 22 44 19 70 -7 15 -16 42 -19 42 -4 0 5 16 12 35 15 19 3 51 7 71 11 28 4
34 9 29 23 -7 22 7 27 113 37 39 3 72 11 72 16 0 6 30 7 80 3 70 -6 80 -5 80
9 0 13 13 16 80 16 47 0 80 4 80 10 0 6 12 10 27 10 26 0 26 1 7 15 -16 13
-17 16 -4 25 8 5 23 10 33 10 9 0 17 5 17 10 0 6 19 11 43 12 l42 1 -37 4
c-51 6 -49 27 4 48 31 12 57 15 105 9 34 -3 60 -10 57 -15 -3 -5 2 -9 10 -9 9
0 16 5 16 10 0 6 6 10 13 10 26 0 34 20 27 62 -11 57 -4 68 41 68 28 0 41 -5
49 -20 13 -24 36 -26 57 -5 13 14 12 17 -15 26 -17 6 -33 17 -36 25 -8 21 -86
18 -113 -5 -13 -11 -23 -29 -23 -40 0 -28 -10 -26 -49 9 l-33 30 22 45 c25 51
51 63 85 41 13 -9 40 -16 59 -16 35 0 46 12 46 54 0 13 9 34 19 48 22 28 103
57 109 39 4 -13 32 -15 32 -2 0 6 -4 13 -10 16 -20 13 -11 64 15 81 22 14 25
23 25 74 l0 57 37 6 c27 5 48 1 76 -13 21 -11 55 -20 75 -20 21 0 43 -5 50
-12 6 -6 15 -8 19 -4 4 4 1 11 -7 16 -12 8 -13 13 -2 30 15 24 16 56 2 65 -23
14 -9 43 30 60 26 12 40 25 40 37 0 10 6 18 13 18 18 0 47 32 47 52 0 19 21
28 66 28 27 0 34 4 34 19 0 16 9 21 45 27 25 3 45 10 45 14 0 5 -9 6 -20 3
-27 -7 -25 8 5 43 27 32 32 54 13 55 -20 1 25 18 50 18 16 1 22 -5 22 -21 0
-21 1 -21 28 5 28 27 52 35 52 18 0 -5 15 -15 34 -22 29 -10 33 -16 25 -30 -5
-10 -9 -67 -9 -126 0 -81 -4 -114 -15 -129 -21 -27 -21 -180 0 -188 19 -7 20
-26 1 -26 -8 0 -20 14 -28 30 -17 40 -29 34 -51 -26 -9 -27 -23 -60 -30 -73
-10 -21 -9 -25 12 -40 13 -9 36 -28 52 -43 18 -18 39 -28 59 -28 23 0 30 -4
30 -20 0 -16 -7 -20 -35 -20 -21 0 -35 -5 -35 -12 0 -9 -4 -8 -10 2 -5 8 -10
13 -11 10 -12 -66 -26 -95 -46 -98 -13 -2 -23 1 -23 7 0 6 -10 11 -23 11 -45
0 -82 -136 -43 -162 8 -6 7 -11 -3 -17 -12 -8 -11 -13 8 -28 19 -16 22 -24 16
-55 -7 -38 -34 -78 -52 -78 -16 0 -34 -50 -40 -107 -3 -29 -10 -53 -14 -53 -5
0 0 -9 10 -19 12 -12 17 -27 14 -40 -3 -12 -1 -21 5 -21 12 0 23 -38 12 -45
-4 -3 -13 2 -20 10 -13 16 -38 19 -64 9 -12 -5 -16 -21 -16 -70 0 -54 -3 -64
-17 -64 -15 0 -18 -11 -20 -70 -1 -38 -4 -78 -8 -90 -5 -16 -2 -20 14 -20 26
0 38 -20 20 -34 -16 -13 -23 -73 -9 -81 20 -12 9 -22 -25 -23 -19 -1 -37 3
-40 8 -13 20 -25 9 -25 -23 0 -19 -3 -37 -7 -41 -4 -3 -8 -27 -10 -52 -1 -25
-7 -52 -13 -59 -9 -11 -6 -17 13 -30 23 -15 28 -15 64 1 23 10 32 19 23 21
-34 8 -47 143 -14 143 8 0 14 8 15 18 0 10 3 12 6 5 2 -8 22 -13 44 -13 21 0
39 -4 39 -8 0 -5 14 -9 30 -9 38 0 44 -6 31 -32 -8 -14 -8 -22 1 -27 6 -4 14
-2 16 4 5 17 22 15 22 -3 0 -18 32 -36 59 -32 11 1 20 -1 20 -5 3 -34 0 -38
-24 -32 -34 8 -61 -2 -47 -19 6 -7 7 -38 3 -79 -7 -63 -6 -67 16 -77 24 -11
53 -5 53 10 0 5 14 9 30 9 20 0 30 -5 30 -15 0 -8 5 -15 10 -15 6 0 10 -4 10
-10 0 -5 -24 -10 -54 -10 -30 0 -58 -5 -61 -11 -11 -17 5 -25 16 -9 8 11 12
12 16 3 2 -7 18 -13 34 -13 33 0 39 -19 9 -27 -15 -4 -20 -14 -20 -37 0 -21
-7 -35 -21 -44 -16 -11 -18 -16 -9 -28 10 -12 7 -15 -19 -20 -34 -7 -44 -40
-14 -46 15 -3 15 -4 0 -19 -20 -20 -12 -29 24 -29 20 0 28 6 33 25 5 18 15 27
36 32 20 3 35 16 44 35 14 28 14 29 -10 38 -35 14 -30 18 20 16 41 -1 45 -3
39 -23 -4 -16 -1 -23 10 -23 23 0 49 31 44 51 -3 12 0 19 9 19 8 0 14 4 14 9
0 5 18 7 40 4 28 -4 40 -2 40 7 0 10 3 10 15 0 13 -11 13 -15 3 -22 -8 -6 6
-7 37 -3 59 8 66 11 59 28 -3 8 11 21 33 32 l38 19 -35 4 c-46 5 -64 22 -24
23 99 5 103 7 177 73 71 63 73 66 85 133 7 37 17 106 23 153 5 47 17 119 25
160 8 41 19 109 24 150 5 41 14 107 19 145 6 39 15 104 21 145 5 41 17 120 25
175 8 55 15 119 15 142 0 23 4 44 9 47 4 3 11 48 15 101 3 52 11 106 16 121 6
14 15 80 20 147 6 67 15 147 20 177 29 168 30 645 2 720 -5 14 -12 49 -16 79
-4 30 -13 66 -20 80 -7 14 -16 45 -20 69 -7 44 -73 249 -86 267 -4 6 -13 28
-20 50 -7 22 -22 58 -34 80 -31 59 -36 75 -26 75 5 0 16 -12 23 -26 25 -48 26
-10 1 42 -39 83 -89 125 -101 87 -3 -7 5 -21 16 -32 19 -19 12 -39 -9 -26 -16
10 -20 -36 -12 -131 9 -114 4 -184 -13 -184 -7 0 -16 -6 -18 -12 -4 -10 -6
-10 -6 0 -2 28 -20 9 -26 -28 -4 -24 -14 -44 -26 -50 -21 -12 -26 -56 -6 -63
7 -3 5 -6 -5 -6 -19 -1 -24 -26 -8 -36 18 -11 10 -46 -16 -70 -15 -14 -31 -22
-36 -19 -11 7 -1 40 20 64 17 20 23 68 9 77 -4 3 -21 0 -36 -7 -23 -9 -27 -16
-23 -37 4 -23 2 -25 -22 -21 -31 6 -33 -5 -8 -30 15 -15 17 -22 7 -35 -7 -10
-22 -17 -34 -17 -15 0 -21 -6 -21 -24 0 -13 6 -29 14 -36 20 -16 10 -37 -27
-55 -21 -11 -33 -12 -37 -4 -4 6 -18 9 -31 6 l-24 -4 23 -8 c12 -4 22 -9 22
-11 0 -9 -24 -54 -29 -54 -10 0 -41 39 -41 50 0 6 -18 10 -40 10 -69 0 -41 25
40 36 32 4 50 30 50 71 0 29 -3 33 -25 33 -16 0 -25 6 -25 15 0 8 -7 15 -15
15 -18 0 -20 36 -2 44 10 5 10 7 0 12 -18 8 -16 34 2 34 18 0 20 17 3 22 -26
9 6 28 48 28 44 0 44 0 44 36 0 25 7 41 23 55 l22 18 -24 1 -24 0 28 22 c25
19 26 23 11 34 -14 10 -8 13 39 19 l55 6 1 42 c1 23 1 48 0 55 -1 7 5 33 15
57 11 29 14 57 10 82 -4 21 -7 47 -8 58 -1 11 -8 25 -16 31 -21 16 -31 84 -16
114 6 14 14 63 17 110 8 112 27 261 37 280 4 8 6 32 5 53 -3 29 1 41 16 50 10
6 19 19 19 28 0 9 6 22 14 28 8 7 17 34 21 61 4 27 13 51 21 54 8 3 14 18 14
33 0 16 20 69 45 118 43 86 56 135 35 135 -5 0 -14 -9 -20 -21z m-223 -871
c-2 -13 -4 -3 -4 22 0 25 2 35 4 23 2 -13 2 -33 0 -45z m-2837 -113 c0 -26
-14 -33 -25 -15 -9 14 1 40 15 40 5 0 10 -11 10 -25z m720 0 c0 -8 -4 -15 -9
-15 -5 0 -14 7 -21 15 -10 13 -9 15 9 15 12 0 21 -6 21 -15z m-491 -118 c6 -8
7 -17 3 -21 -4 -4 -2 -7 3 -6 21 5 46 0 41 -8 -6 -10 5 -26 26 -38 12 -7 5 -9
-27 -9 -24 0 -41 3 -39 7 2 4 -4 9 -15 13 -10 3 -21 13 -24 23 -3 9 -8 25 -12
35 -5 13 -2 17 13 17 11 0 25 -6 31 -13z m116 -147 c3 -5 -1 -10 -9 -10 -9 0
-16 5 -16 10 0 6 4 10 9 10 6 0 13 -4 16 -10z m2465 -30 c-5 -10 -10 -35 -10
-54 0 -35 -1 -36 -40 -36 l-40 0 0 40 c0 29 4 40 15 40 8 0 15 7 15 15 0 18
21 20 38 3 9 -9 12 -8 12 6 0 9 5 14 10 11 7 -4 7 -12 0 -25z m-360 -620 c0
-5 -5 -10 -11 -10 -5 0 -7 5 -4 10 3 6 8 10 11 10 2 0 4 -4 4 -10z m125 -20
c3 -5 1 -10 -4 -10 -6 0 -11 5 -11 10 0 6 2 10 4 10 3 0 8 -4 11 -10z m195
-135 c0 -9 -9 -15 -25 -15 -26 0 -34 15 -12 23 23 10 37 7 37 -8z m-50 -130
c0 -35 -3 -43 -15 -39 -8 4 -15 17 -15 31 0 22 -4 25 -25 21 -19 -4 -25 -1
-25 13 0 15 8 19 40 19 l40 0 0 -45z m-67 -33 c9 -10 20 -33 23 -50 9 -44 44
-46 44 -2 0 22 5 30 18 30 14 0 15 -2 2 -10 -13 -9 -13 -11 0 -20 12 -8 13
-13 2 -27 -7 -10 -15 -26 -19 -37 -5 -15 -13 -17 -43 -13 -20 2 -44 0 -53 -5
-21 -11 -49 3 -55 28 -13 62 -9 84 22 104 38 24 39 24 59 2z m-28 -182 c-3 -5
-1 -10 4 -10 22 0 11 -41 -14 -52 -21 -9 -29 -9 -40 3 -13 13 -13 17 4 36 11
11 17 24 14 27 -4 3 4 6 16 6 12 0 19 -4 16 -10z m40 0 c3 -5 -1 -10 -9 -10
-9 0 -16 5 -16 10 0 6 4 10 9 10 6 0 13 -4 16 -10z m-3138 -39 c-6 -23 34 -61
64 -61 30 0 59 -18 53 -34 -3 -9 3 -17 15 -21 12 -3 21 -12 21 -18 0 -7 14
-39 30 -71 17 -32 30 -65 30 -72 0 -8 5 -14 10 -14 6 0 10 -8 10 -18 0 -11 15
-26 39 -38 l40 -19 -19 -35 c-18 -33 -19 -33 -20 -10 l-1 25 -14 -25 c-18 -32
-18 -40 0 -40 11 0 15 -11 15 -40 0 -22 -4 -40 -8 -40 -5 0 -8 -10 -8 -22 1
-19 -4 -23 -29 -23 -23 0 -31 5 -33 23 -2 12 -9 22 -17 22 -7 0 -16 8 -18 18
-4 14 -5 13 -6 -3 -1 -18 -6 -20 -36 -17 -33 4 -35 6 -35 43 0 21 -4 39 -10
39 -5 0 -10 -18 -10 -39 0 -44 -10 -55 -41 -46 -20 7 -21 12 -15 79 9 91 13
104 38 117 15 8 22 8 28 -1 6 -9 13 -9 29 -1 18 10 19 14 8 31 -6 11 -17 20
-24 20 -7 0 -13 7 -13 15 0 8 -4 15 -9 15 -19 0 -42 32 -36 50 4 13 0 20 -15
25 -11 3 -20 13 -20 21 0 8 -7 14 -15 14 -8 0 -15 5 -15 10 0 6 -11 10 -25 10
-22 0 -25 4 -25 39 0 22 5 42 13 44 9 4 8 8 -3 16 -11 8 -5 12 28 17 26 4 42
12 42 20 0 8 3 14 6 14 4 0 4 -9 1 -19z m-222 -347 c0 -13 -8 -20 -27 -22 -32
-4 -39 21 -10 37 23 14 37 8 37 -15z m3225 -14 c0 -5 -4 -10 -10 -10 -5 0 -10
5 -10 10 0 6 5 10 10 10 6 0 10 -4 10 -10z m-3077 -47 c5 -3 4 -10 -2 -16 -19
-19 -12 -27 23 -27 29 0 33 3 29 19 -3 10 0 22 6 25 8 5 11 -14 11 -58 l0 -66
-60 0 -60 0 0 46 c0 37 -4 47 -20 51 -11 3 -20 14 -20 25 0 18 4 19 43 13 23
-4 46 -10 50 -12z m3107 -163 c0 -5 -4 -10 -9 -10 -6 0 -13 5 -16 10 -3 6 1
10 9 10 9 0 16 -4 16 -10z m-1240 -130 c0 -5 -7 -10 -15 -10 -9 0 -20 -11 -25
-25 -13 -33 -53 -35 -48 -2 2 14 11 23 26 25 12 2 22 8 22 13 0 5 9 9 20 9 11
0 20 -4 20 -10z m7 -66 c-3 -3 -12 -4 -19 -1 -8 3 -5 6 6 6 11 1 17 -2 13 -5z
m-397 -69 c0 -8 -4 -15 -10 -15 -5 0 -10 7 -10 15 0 8 5 15 10 15 6 0 10 -7
10 -15z m50 -6 c0 -5 -4 -9 -10 -9 -5 0 -10 7 -10 16 0 8 5 12 10 9 6 -3 10
-10 10 -16z m-20 -74 c0 -8 -4 -15 -10 -15 -5 0 -10 7 -10 15 0 8 5 15 10 15
6 0 10 -7 10 -15z m160 0 c0 -12 -14 -15 -62 -15 -74 0 -68 17 7 23 28 2 51 4
53 5 1 1 2 -5 2 -13z m-1255 -135 c-3 -5 -10 -10 -16 -10 -5 0 -9 5 -9 10 0 6
7 10 16 10 8 0 12 -4 9 -10z m2645 -806 c0 -15 -63 -20 -94 -8 -32 12 -15 22
39 22 40 0 55 -4 55 -14z m297 -226 c7 -5 11 -14 8 -18 -6 -10 -58 3 -62 16
-4 13 38 15 54 2z"/>
<path d="M6959 9175 c-4 -3 -4 -16 -2 -29 4 -18 10 -22 29 -18 19 3 24 10 22
26 -3 20 -36 34 -49 21z"/>
<path d="M12458 8713 c7 -3 16 -2 19 1 4 3 -2 6 -13 5 -11 0 -14 -3 -6 -6z"/>
<path d="M11093 8609 c-28 -8 -30 -11 -20 -33 15 -32 84 -66 129 -64 35 1 36
2 33 35 -3 35 -27 62 -55 63 -8 0 -24 2 -35 4 -11 3 -34 0 -52 -5z"/>
<path d="M7545 8468 c-124 -109 -177 -194 -191 -303 -7 -52 -9 -56 -15 -30 -5
21 -7 9 -8 -41 0 -39 -4 -73 -7 -77 -3 -3 -8 -45 -10 -94 -7 -157 -23 -293
-35 -293 -12 0 -16 -41 -7 -74 4 -17 3 -35 -3 -42 -5 -7 -13 -44 -16 -83 -3
-39 -9 -71 -13 -71 -4 0 -10 -35 -14 -77 -3 -42 -10 -79 -15 -82 -15 -10 -23
-81 -10 -81 8 0 7 -4 -3 -12 -10 -9 -18 -38 -22 -87 -5 -58 -11 -80 -27 -94
-16 -15 -20 -27 -15 -51 4 -17 9 -51 13 -76 3 -25 16 -87 29 -138 13 -51 24
-102 24 -115 0 -30 39 -184 117 -457 20 -69 39 -141 43 -160 4 -19 18 -71 30
-115 12 -44 26 -96 31 -115 17 -70 107 -417 129 -495 12 -44 30 -111 40 -150
24 -96 71 -248 80 -260 4 -5 10 -21 13 -35 5 -25 31 -99 46 -135 5 -11 21 -54
36 -95 15 -41 38 -85 51 -97 13 -12 24 -27 24 -33 0 -5 6 -10 13 -10 31 0 42
224 15 312 -7 23 -9 68 -5 118 5 65 4 82 -8 86 -10 4 -14 24 -14 72 1 37 -2
94 -5 127 -6 58 -12 90 -37 220 -6 33 -13 112 -14 176 -1 64 -6 125 -9 137 -4
11 0 37 9 58 8 21 20 78 25 128 5 53 14 93 22 97 15 10 14 107 -2 123 -15 15
-12 30 15 70 18 27 22 42 16 59 -4 12 -7 36 -6 52 2 17 -1 46 -6 65 -5 20 -9
57 -10 83 -1 26 -7 47 -12 47 -5 0 -7 13 -5 30 2 16 1 31 -3 32 -4 2 -10 14
-12 28 -2 14 -9 39 -16 55 -13 30 -22 67 -41 164 -8 43 -8 56 2 63 9 5 9 8 2
8 -7 0 -15 11 -18 25 -4 15 -11 23 -17 19 -6 -4 -15 0 -20 7 -13 21 -11 29 7
29 13 0 15 7 10 31 -3 17 -6 40 -6 50 0 9 -7 25 -16 34 -11 11 -17 37 -19 80
-1 43 -8 73 -20 92 -29 43 -27 25 -34 303 -3 110 7 304 20 404 10 79 5 628 -6
647 -10 16 -19 11 -90 -53z"/>
<path d="M11200 8396 c0 -28 14 -35 23 -12 3 8 -1 20 -9 26 -12 10 -14 8 -14
-14z"/>
<path d="M4880 8378 c0 -20 1 -21 20 -3 11 10 20 20 20 22 0 1 -9 3 -20 3 -14
0 -20 -7 -20 -22z"/>
<path d="M7120 8344 c0 -8 5 -12 10 -9 6 3 10 10 10 16 0 5 -4 9 -10 9 -5 0
-10 -7 -10 -16z"/>
<path d="M7080 8336 c0 -9 5 -16 10 -16 6 0 10 4 10 9 0 6 -4 13 -10 16 -5 3
-10 -1 -10 -9z"/>
<path d="M9933 8233 c9 -2 25 -2 35 0 9 3 1 5 -18 5 -19 0 -27 -2 -17 -5z"/>
<path d="M12940 7859 c-11 -8 -12 -12 -2 -16 19 -8 15 -71 -5 -76 -14 -4 -13
-5 4 -6 12 0 23 -5 25 -11 2 -5 19 -7 40 -4 36 6 37 7 21 30 -8 13 -26 27 -39
30 -16 4 -24 14 -26 35 -2 23 -6 26 -18 18z"/>
<path d="M4858 6953 c7 -3 16 -2 19 1 4 3 -2 6 -13 5 -11 0 -14 -3 -6 -6z"/>
<path d="M12152 6723 c-10 -4 -10 -8 -1 -19 9 -11 15 -11 25 -3 23 19 6 34
-24 22z"/>
<path d="M11970 6514 c0 -8 5 -12 10 -9 6 4 8 11 5 16 -9 14 -15 11 -15 -7z"/>
<path d="M11877 6484 c-4 -4 -7 -24 -7 -45 0 -30 4 -37 23 -41 21 -4 22 -2 17
41 -5 42 -18 60 -33 45z"/>
<path d="M11920 6439 c0 -18 2 -19 15 -9 15 12 12 30 -6 30 -5 0 -9 -10 -9
-21z"/>
<path d="M11830 6400 c0 -13 18 -22 24 -11 3 5 -1 11 -9 15 -8 3 -15 1 -15 -4z"/>
<path d="M11680 6390 c0 -5 4 -10 9 -10 6 0 13 5 16 10 3 6 -1 10 -9 10 -9 0
-16 -4 -16 -10z"/>
<path d="M11698 6148 c9 -9 15 -9 24 0 9 9 7 12 -12 12 -19 0 -21 -3 -12 -12z"/>
<path d="M11111 6008 c-44 -8 -51 -12 -37 -20 9 -5 42 -12 71 -15 41 -4 55
-10 55 -22 0 -13 2 -13 18 2 16 17 16 19 0 31 -10 7 -18 18 -18 25 0 13 -14
13 -89 -1z"/>
<path d="M12426 5990 c-19 -39 -2 -49 28 -17 21 23 21 25 5 35 -15 10 -20 7
-33 -18z"/>
<path d="M10978 5993 c12 -2 32 -2 45 0 12 2 2 4 -23 4 -25 0 -35 -2 -22 -4z"/>
<path d="M11288 5993 c7 -3 16 -2 19 1 4 3 -2 6 -13 5 -11 0 -14 -3 -6 -6z"/>
<path d="M11245 5830 c3 -5 13 -10 21 -10 8 0 14 5 14 10 0 6 -9 10 -21 10
-11 0 -17 -4 -14 -10z"/>
<path d="M12280 5575 c0 -18 4 -23 15 -19 8 4 15 15 15 25 0 10 -7 19 -15 19
-9 0 -15 -9 -15 -25z"/>
<path d="M12320 5480 c0 -5 7 -10 15 -10 8 0 15 5 15 10 0 6 -7 10 -15 10 -8
0 -15 -4 -15 -10z"/>
<path d="M12408 5283 c7 -3 16 -2 19 1 4 3 -2 6 -13 5 -11 0 -14 -3 -6 -6z"/>
<path d="M12240 5197 c0 -20 4 -25 15 -21 13 5 13 9 3 23 -7 9 -14 18 -15 20
-2 2 -3 -8 -3 -22z"/>
<path d="M12480 5190 c0 -5 7 -7 15 -4 8 4 15 8 15 10 0 2 -7 4 -15 4 -8 0
-15 -4 -15 -10z"/>
<path d="M12530 5196 c0 -2 7 -6 15 -10 8 -3 15 -1 15 4 0 6 -7 10 -15 10 -8
0 -15 -2 -15 -4z"/>
<path d="M12300 5130 c-13 -8 -12 -10 3 -10 9 0 17 5 17 10 0 12 -1 12 -20 0z"/>
<path d="M10320 5099 c0 -14 5 -19 17 -17 26 5 29 38 4 38 -15 0 -21 -6 -21
-21z"/>
<path d="M13645 5060 c3 -5 8 -10 11 -10 2 0 4 5 4 10 0 6 -5 10 -11 10 -5 0
-7 -4 -4 -10z"/>
<path d="M12160 5028 c0 -5 7 -8 15 -8 8 0 15 -5 15 -11 0 -5 20 -19 44 -30
25 -11 47 -28 51 -38 8 -27 35 -35 35 -12 0 21 18 30 58 32 15 1 3 5 -27 9
-29 5 -57 12 -62 17 -13 13 -1 41 19 46 10 3 -20 4 -65 3 -46 0 -83 -4 -83 -8z"/>
<path d="M12450 5000 c0 -5 9 -10 20 -10 11 0 20 5 20 10 0 6 -9 10 -20 10
-11 0 -20 -4 -20 -10z"/>
<path d="M13786 4971 c-8 -12 21 -34 34 -26 8 5 8 11 -1 21 -13 16 -25 18 -33
5z"/>
<path d="M13843 4916 c4 -10 7 -22 7 -27 0 -5 5 -9 11 -9 15 0 7 43 -10 48
-10 3 -12 0 -8 -12z"/>
<path d="M12940 4845 c0 -8 5 -15 10 -15 6 0 10 7 10 15 0 8 -4 15 -10 15 -5
0 -10 -7 -10 -15z"/>
<path d="M12885 4790 c-3 -6 1 -7 9 -4 18 7 21 14 7 14 -6 0 -13 -4 -16 -10z"/>
</g>
</svg>
