<?xml version="1.0" standalone="no"?>
<!DOCTYPE svg PUBLIC "-//W3C//DTD SVG 20010904//EN"
 "http://www.w3.org/TR/2001/REC-SVG-20010904/DTD/svg10.dtd">
<svg version="1.0" xmlns="http://www.w3.org/2000/svg"
 width="4242.000000pt" height="2828.000000pt" viewBox="0 0 4242.000000 2828.000000"
 preserveAspectRatio="xMidYMid meet">

<g transform="translate(0.000000,2828.000000) scale(0.100000,-0.100000)"
fill="#000000" stroke="none">
<path d="M0 14140 l0 -14140 21210 0 21210 0 0 14140 0 14140 -21210 0 -21210
0 0 -14140z m4915 7440 c-3 -5 -12 -10 -18 -10 -7 0 -6 4 3 10 19 12 23 12 15
0z m34 -16 c-9 -11 -8 -14 5 -14 9 0 16 -4 16 -10 0 -5 0 -13 0 -17 0 -5 -8
-9 -17 -10 -10 -1 -28 -5 -39 -8 -18 -6 -22 -2 -26 25 -3 23 -1 30 9 26 7 -3
18 3 25 13 6 11 18 17 25 14 10 -4 11 -9 2 -19z m30743 -3189 c0 -5 -19 -21
-43 -33 -24 -13 -46 -27 -49 -31 -9 -13 -134 -31 -140 -21 -4 6 -14 4 -26 -6
-18 -15 -18 -15 4 -9 17 5 22 2 22 -12 0 -11 -5 -24 -11 -30 -11 -11 -18 -11
-56 3 -44 17 -158 -25 -191 -68 -7 -10 -19 -18 -25 -18 -30 -1 -81 -66 -120
-152 -22 -48 -33 -60 -70 -76 -26 -12 -52 -33 -63 -51 -10 -17 -34 -37 -53
-45 -39 -15 -70 -11 -52 7 6 6 11 18 10 26 0 11 -2 12 -6 4 -2 -7 -17 -13 -32
-13 -15 0 -42 -7 -59 -15 -41 -21 -122 -27 -122 -10 0 7 15 18 33 26 17 7 40
21 50 31 10 10 26 18 37 18 10 0 21 4 24 9 3 5 17 12 31 15 22 6 105 81 105
96 0 4 24 22 53 40 67 43 64 40 47 50 -11 7 -11 11 -1 24 8 9 22 16 32 16 10
0 41 14 67 30 27 17 57 30 66 30 9 0 16 5 16 10 0 6 10 10 23 10 27 1 115 30
177 59 59 27 280 98 302 97 10 -1 19 -5 20 -11z m143 -36 c10 -15 -1 -23 -20
-15 -9 3 -13 10 -10 16 8 13 22 13 30 -1z m95 -9 c0 -5 -2 -10 -4 -10 -3 0 -8
5 -11 10 -3 6 -1 10 4 10 6 0 11 -4 11 -10z m-241 -150 c-43 -76 -94 -97 -54
-22 16 29 53 61 73 62 2 0 -7 -18 -19 -40z m-249 20 c0 -5 -4 -10 -10 -10 -5
0 -10 5 -10 10 0 6 5 10 10 10 6 0 10 -4 10 -10z m307 -68 c-26 -26 -47 -26
-31 0 5 7 9 15 10 18 0 3 4 13 8 22 7 16 9 16 23 2 14 -14 13 -18 -10 -42z
m-287 23 c-7 -8 -16 -15 -20 -15 -4 0 -10 7 -14 15 -4 11 2 15 21 15 21 0 24
-2 13 -15z m390 -80 c0 -28 -5 -31 -72 -39 -46 -5 -48 -4 -48 19 0 13 5 27 10
30 6 3 10 -1 10 -9 0 -22 17 -20 30 4 7 13 21 20 40 20 25 0 30 -4 30 -25z
m-975 -21 c-7 -8 -16 -14 -19 -14 -11 0 -44 -38 -51 -59 -3 -12 -13 -21 -21
-21 -20 0 -17 30 4 31 10 0 12 3 5 6 -24 9 -79 -17 -97 -47 -9 -17 -21 -28
-26 -25 -14 9 -68 -23 -86 -50 -19 -29 -71 -58 -76 -43 -3 7 -11 7 -26 -1 -12
-6 -34 -10 -49 -8 -16 2 -47 -4 -71 -15 -24 -10 -46 -18 -48 -18 -10 0 -2 29
11 40 8 7 12 16 9 21 -3 5 2 12 10 15 18 7 22 39 6 49 -5 3 -25 -9 -42 -28
-54 -55 -62 -59 -91 -44 -25 13 -25 14 -8 33 11 10 22 30 25 44 l7 25 -20 -24
c-22 -25 -55 -23 -45 4 3 8 10 15 15 15 5 0 9 5 9 12 0 19 31 47 46 41 8 -3
22 1 32 10 11 10 34 15 68 14 44 -2 50 -4 46 -21 -8 -29 20 -15 36 18 13 27
16 28 70 22 109 -11 254 -3 306 17 22 8 49 15 62 15 19 0 21 -3 9 -14z m-1142
-57 c-3 -6 -11 -3 -19 8 -7 10 -11 22 -7 28 3 6 11 3 19 -8 7 -10 11 -22 7
-28z m65 3 c0 -22 -4 -40 -9 -40 -5 0 -9 5 -9 12 0 24 -19 -7 -22 -37 -2 -21
-9 -31 -24 -33 -18 -3 -21 2 -21 42 -1 38 2 44 18 41 12 -2 23 4 30 18 10 18
27 36 36 37 1 0 1 -18 1 -40z m52 -4 c0 -3 -4 -8 -10 -11 -5 -3 -10 -1 -10 4
0 6 5 11 10 11 6 0 10 -2 10 -4z m114 -45 c11 -18 -5 -36 -39 -47 -19 -6 -35
-8 -35 -3 0 4 -3 14 -6 23 -7 19 26 22 44 4 9 -9 12 -9 12 0 0 7 -4 12 -10 12
-5 0 -10 5 -10 10 0 12 37 13 44 1z m-508 -22 c3 -6 1 -16 -6 -22 -10 -9 -12
-8 -7 5 3 9 1 19 -6 22 -9 3 -9 5 0 5 6 1 15 -4 19 -10z m402 -6 c-2 -9 -16
-20 -32 -24 -16 -4 -37 -17 -48 -28 -10 -12 -25 -21 -33 -21 -27 0 6 39 43 51
18 6 36 17 39 25 7 20 35 18 31 -3z m902 2 c-7 -9 -15 -13 -17 -11 -7 7 7 26
19 26 6 0 6 -6 -2 -15z m-1350 -13 c0 -15 -11 -21 -27 -15 -12 5 -12 7 -1 14
17 11 28 11 28 1z m1250 -27 c-7 -9 -15 -13 -17 -11 -6 6 20 36 26 30 2 -2 -2
-10 -9 -19z m1400 15 c0 -5 -5 -10 -11 -10 -5 0 -7 5 -4 10 3 6 8 10 11 10 2
0 4 -4 4 -10z m-3150 -20 c0 -5 -8 -10 -17 -10 -15 0 -16 2 -3 10 19 12 20 12
20 0z m970 -15 c0 -8 -7 -15 -16 -15 -14 0 -14 3 -4 15 7 8 14 15 16 15 2 0 4
-7 4 -15z m-1016 -29 c-3 -9 -15 -16 -26 -16 -28 0 -58 -18 -58 -35 0 -8 -4
-15 -10 -15 -5 0 -10 5 -10 10 0 6 -10 10 -22 10 l-23 1 22 18 c12 10 43 22
67 25 25 4 48 12 52 17 9 15 15 4 8 -15z m526 19 c0 -2 -8 -20 -17 -40 -16
-33 -43 -48 -43 -25 0 22 31 70 45 70 8 0 15 -2 15 -5z m440 -9 c0 -2 -8 -10
-17 -17 -16 -13 -17 -12 -4 4 13 16 21 21 21 13z m-700 -40 c0 -3 -4 -8 -10
-11 -5 -3 -10 -1 -10 4 0 6 5 11 10 11 6 0 10 -2 10 -4z m-20 -40 c0 -8 -5
-18 -11 -21 -6 -4 -14 -17 -19 -29 -7 -20 -8 -20 -15 7 -5 17 -3 33 5 42 16
19 40 19 40 1z m210 -22 c0 -15 -22 -44 -31 -39 -11 7 7 45 21 45 6 0 10 -3
10 -6z m1725 -75 c4 -5 0 -18 -9 -28 -9 -10 -16 -21 -16 -26 0 -5 7 -16 16
-26 25 -28 7 -43 -23 -19 l-26 20 -22 -20 c-12 -11 -27 -20 -33 -20 -17 0 -15
25 3 40 21 17 19 29 -7 50 -21 17 -22 19 -5 25 11 5 25 1 36 -9 23 -21 34 -20
49 4 14 22 27 26 37 9z m-6878 -441 c-3 -7 -5 -2 -5 12 0 14 2 19 5 13 2 -7 2
-19 0 -25z m7553 -33 c-7 -8 -16 -15 -21 -15 -13 0 -11 24 3 38 18 18 35 -3
18 -23z m706 -44 c-12 -19 -24 -12 -19 10 4 13 9 17 15 11 6 -6 7 -15 4 -21z
m-1042 -2 c-3 -5 -10 -7 -15 -3 -5 3 -7 10 -3 15 3 5 10 7 15 3 5 -3 7 -10 3
-15z m-9274 6 c0 -2 -9 -9 -20 -15 -16 -9 -18 -8 -14 5 5 13 34 22 34 10z
m9648 -41 c-7 -15 -14 -21 -16 -15 -5 16 5 41 17 41 7 0 6 -10 -1 -26z m-9608
-93 c0 -38 -20 -65 -97 -127 -24 -19 -33 -22 -33 -11 0 8 -7 18 -16 21 -12 5
1 22 55 75 39 37 71 77 71 87 0 16 2 17 10 4 5 -8 10 -30 10 -49z m-88 -13
c-12 -13 -22 -16 -26 -9 -4 5 3 20 16 33 15 15 23 18 26 9 2 -7 -5 -22 -16
-33z m10635 20 c-3 -8 -6 -5 -6 6 -1 11 2 17 5 13 3 -3 4 -12 1 -19z m-890
-40 c-3 -8 -6 -5 -6 6 -1 11 2 17 5 13 3 -3 4 -12 1 -19z m603 -2 c0 -3 -4 -8
-10 -11 -5 -3 -10 -1 -10 4 0 6 5 11 10 11 6 0 10 -2 10 -4z m-581 -27 c-16
-10 -23 -4 -14 10 3 6 11 8 17 5 6 -4 5 -9 -3 -15z m-8572 -15 c-9 -9 -28 6
-21 18 4 6 10 6 17 -1 6 -6 8 -13 4 -17z m-1977 8 c0 -4 14 -13 31 -21 19 -8
29 -19 27 -30 -5 -22 -112 -25 -131 -3 -10 13 -9 15 6 9 14 -5 19 0 23 21 4
18 12 28 25 29 10 1 19 -1 19 -5z m1140 -11 c0 -5 -7 -14 -15 -21 -13 -10 -15
-9 -15 9 0 12 6 21 15 21 8 0 15 -4 15 -9z m-106 -34 c-11 -12 -21 -24 -24
-27 -13 -13 -33 -61 -27 -66 4 -4 9 0 13 9 3 9 11 14 18 11 7 -3 19 2 26 11 7
8 18 15 25 15 8 0 15 6 18 13 2 6 8 9 12 5 5 -5 2 -16 -6 -25 -8 -10 -21 -31
-29 -46 -8 -16 -27 -39 -42 -52 -31 -26 -37 -40 -12 -31 9 3 20 4 25 0 18 -11
-42 -94 -68 -94 -15 0 -18 46 -3 55 6 4 10 14 8 23 -1 10 1 23 5 30 5 7 2 15
-9 19 -19 7 -58 -32 -48 -48 3 -5 3 -9 0 -9 -2 0 -11 -3 -20 -6 -25 -9 -20 20
9 54 14 17 25 41 25 55 0 24 39 92 65 112 7 6 23 11 35 12 22 2 22 2 4 -20z
m342 -4 c-10 -10 -19 5 -10 18 6 11 8 11 12 0 2 -7 1 -15 -2 -18z m9776 -7 c4
-20 0 -25 -21 -29 -14 -3 -34 -9 -43 -12 -31 -12 -20 18 15 42 42 27 44 27 49
-1z m-9935 -28 c-7 -54 -123 -226 -175 -260 l-41 -26 16 26 c9 15 24 35 32 45
12 15 13 20 2 26 -16 10 -4 36 29 66 12 11 37 52 55 91 30 64 37 72 60 70 25
-1 27 -4 22 -38z m9433 38 c0 -3 -4 -8 -10 -11 -5 -3 -10 -1 -10 4 0 6 5 11
10 11 6 0 10 -2 10 -4z m-11730 -16 c-8 -5 -19 -10 -25 -10 -5 0 -3 5 5 10 8
5 20 10 25 10 6 0 3 -5 -5 -10z m1535 0 c-3 -5 -14 -10 -23 -10 -15 0 -15 2
-2 10 20 13 33 13 25 0z m1365 1 c0 -6 -4 -13 -10 -16 -5 -3 -10 1 -10 9 0 9
5 16 10 16 6 0 10 -4 10 -9z m-2860 -16 c0 -8 -4 -15 -10 -15 -5 0 -10 7 -10
15 0 8 5 15 10 15 6 0 10 -7 10 -15z m12020 5 c0 -5 -5 -10 -11 -10 -5 0 -7 5
-4 10 3 6 8 10 11 10 2 0 4 -4 4 -10z m-11923 -6 c-3 -3 -12 -4 -19 -1 -8 3
-5 6 6 6 11 1 17 -2 13 -5z m108 -4 c-3 -5 -16 -10 -28 -9 -20 1 -20 2 3 9 14
4 26 8 28 9 2 1 0 -3 -3 -9z m11715 0 c0 -5 -5 -10 -11 -10 -5 0 -7 5 -4 10 3
6 8 10 11 10 2 0 4 -4 4 -10z m-12080 -15 c0 -8 -4 -15 -10 -15 -5 0 -7 7 -4
15 4 8 8 15 10 15 2 0 4 -7 4 -15z m45 5 c-3 -5 -11 -10 -16 -10 -6 0 -7 5 -4
10 3 6 11 10 16 10 6 0 7 -4 4 -10z m355 -11 c0 -5 -4 -9 -10 -9 -5 0 -10 7
-10 16 0 8 5 12 10 9 6 -3 10 -10 10 -16z m-444 -75 c-8 -16 -12 -19 -14 -9
-2 8 -9 15 -17 15 -18 0 -27 29 -14 48 9 14 10 14 6 1 -5 -15 30 -45 40 -35 3
3 -1 8 -9 11 -11 4 -14 14 -10 28 5 21 6 20 17 -7 9 -21 9 -35 1 -52z m514 41
c-10 -10 -20 -11 -30 -5 -12 8 -10 10 9 10 18 0 22 4 16 18 -5 14 -4 15 6 4
11 -10 10 -15 -1 -27z m2417 20 c0 -8 -4 -15 -9 -15 -10 0 -11 14 -1 23 9 10
10 9 10 -8z m9013 -4 c0 -14 -5 -18 -20 -14 -21 5 -25 15 -13 26 13 14 33 6
33 -12z m465 9 c-9 -14 -81 -50 -100 -50 -27 0 -16 19 23 39 39 21 87 28 77
11z m-12332 -20 c-3 -11 -7 -20 -9 -20 -2 0 -4 9 -4 20 0 11 4 20 9 20 5 0 7
-9 4 -20z m2565 -22 c0 -18 -5 -39 -11 -45 -6 -9 -6 -13 1 -13 5 0 13 7 16 16
3 8 10 12 16 9 14 -8 -6 -45 -25 -45 -19 0 -75 -49 -75 -66 0 -8 -7 -14 -16
-14 -13 0 -15 7 -10 31 7 36 33 61 56 54 10 -3 15 3 15 19 0 13 -3 22 -7 19
-5 -2 -8 3 -8 12 0 8 7 18 15 21 8 4 15 12 15 20 0 8 4 14 9 14 5 0 9 -15 9
-32z m322 0 c0 -5 -4 -8 -10 -8 -5 0 -10 10 -10 23 0 18 2 19 10 7 5 -8 10
-18 10 -22z m-430 18 c0 -3 -4 -8 -10 -11 -5 -3 -10 -1 -10 4 0 6 5 11 10 11
6 0 10 -2 10 -4z m269 -33 c-3 -47 -26 -78 -46 -62 -19 17 -16 50 9 76 30 32
39 29 37 -14z m8676 17 c0 -7 -6 -15 -12 -17 -8 -3 -13 4 -13 17 0 13 5 20 13
18 6 -3 12 -11 12 -18z m-9778 -7 c-9 -9 -19 -14 -23 -11 -10 10 6 28 24 28
15 0 15 -1 -1 -17z m353 3 c0 -7 -7 -19 -15 -26 -8 -7 -15 -23 -15 -36 0 -12
-5 -26 -10 -29 -6 -4 -20 -26 -31 -51 -21 -43 -32 -50 -62 -38 -25 9 93 194
125 194 4 0 8 -6 8 -14z m27 -19 c-8 -12 -17 -34 -21 -49 -7 -30 -26 -39 -26
-13 0 26 40 96 51 89 6 -4 5 -13 -4 -27z m483 13 c0 -5 -4 -10 -9 -10 -15 0
-91 -82 -85 -92 7 -11 54 30 54 48 0 6 6 14 14 17 17 7 15 -18 -2 -35 -7 -7
-12 -18 -12 -25 0 -7 -7 -13 -15 -13 -8 0 -15 -7 -15 -16 0 -14 -3 -14 -15 -4
-13 11 -20 9 -39 -9 -19 -18 -28 -21 -43 -12 -17 10 -17 10 0 11 9 0 17 3 17
8 0 4 14 23 31 42 17 19 37 45 46 57 8 13 19 21 23 18 4 -3 13 2 20 10 14 17
30 20 30 5z m130 0 c0 -5 -7 -10 -16 -10 -8 0 -12 5 -9 10 3 6 10 10 16 10 5
0 9 -4 9 -10z m470 2 c0 -4 -11 -9 -26 -10 -14 -1 -23 2 -19 8 7 12 45 14 45
2z m-2505 -12 c3 -6 -1 -7 -9 -4 -18 7 -21 14 -7 14 6 0 13 -4 16 -10z m1235
-19 c-11 -39 -29 -71 -40 -71 -5 0 0 23 12 50 22 54 42 69 28 21z m10245 2
c-8 -16 -20 -35 -27 -44 -9 -13 -8 -20 5 -33 17 -17 24 -15 107 33 74 43 132
59 157 43 16 -10 -36 -76 -75 -94 -36 -18 -36 -44 0 -40 14 1 29 -2 33 -8 4
-6 18 -5 41 5 18 7 34 10 34 4 0 -5 -6 -9 -13 -9 -8 0 -20 -11 -27 -24 -7 -15
-24 -26 -38 -28 -29 -3 -43 -28 -15 -28 13 0 8 -6 -15 -20 -18 -11 -49 -37
-68 -58 -19 -20 -51 -54 -71 -74 -34 -35 -35 -38 -15 -38 28 0 28 -5 -3 -42
-14 -16 -25 -34 -25 -39 0 -15 18 -10 29 9 9 15 10 15 11 0 0 -24 -28 -48 -47
-41 -12 5 -14 3 -8 -7 6 -10 4 -11 -6 -4 -20 12 -39 14 -39 4 0 -5 -10 -6 -22
-4 -13 3 -31 7 -40 8 -23 3 -68 38 -68 54 0 7 7 15 15 18 9 4 15 19 15 39 0
23 10 43 35 69 19 21 35 46 35 57 0 10 5 19 10 19 14 0 13 37 -1 46 -8 4 -7 9
2 15 22 14 49 11 43 -5 -3 -8 3 -16 15 -19 13 -3 21 -13 21 -26 0 -29 56 -30
65 -1 3 11 16 25 28 31 31 16 67 50 67 64 0 6 -12 11 -27 10 -34 0 -46 34 -15
42 13 3 18 11 15 19 -8 23 -26 16 -53 -21 -25 -33 -69 -53 -90 -40 -6 4 -9 19
-5 35 6 25 4 27 -20 22 -19 -3 -24 -9 -20 -22 4 -11 -3 -20 -22 -29 -23 -11
-29 -10 -39 4 -14 19 -47 13 -79 -14 -11 -10 -31 -18 -44 -19 -26 -1 -49 -18
-39 -28 4 -3 16 -1 27 6 17 8 21 8 21 -3 0 -15 -31 -30 -82 -41 -24 -6 -28 -3
-28 17 0 13 8 31 18 39 29 27 150 88 172 88 34 0 60 19 60 43 0 18 14 31 58
55 31 17 58 31 60 32 1 0 -4 -12 -13 -27z m-12118 -25 c-3 -7 -5 -2 -5 12 0
14 2 19 5 13 2 -7 2 -19 0 -25z m1646 25 c13 -23 -57 -90 -112 -108 -22 -7
-22 -6 -6 32 19 45 21 47 60 67 33 17 51 20 58 9z m-1693 -31 c0 -15 -2 -15
-10 -2 -13 20 -13 33 0 25 6 -3 10 -14 10 -23z m740 24 c0 -3 -4 -8 -10 -11
-5 -3 -10 -1 -10 4 0 6 5 11 10 11 6 0 10 -2 10 -4z m140 -26 c-6 -11 -13 -20
-16 -20 -2 0 0 9 6 20 6 11 13 20 16 20 2 0 0 -9 -6 -20z m10750 11 c0 -11
-31 -24 -39 -16 -3 3 1 10 9 15 19 12 30 12 30 1z m-10815 -11 c3 -5 1 -10 -4
-10 -6 0 -11 5 -11 10 0 6 2 10 4 10 3 0 8 -4 11 -10z m171 -3 c3 -3 12 -3 20
0 8 3 14 1 14 -5 0 -9 -29 -23 -55 -26 -5 -1 -16 -5 -23 -9 -9 -6 -12 -1 -10
20 1 23 7 28 25 27 13 0 26 -3 29 -7z m10768 7 c30 -12 16 -24 -26 -24 -40 1
-42 2 -24 15 22 17 27 18 50 9z m-10204 -22 c0 -4 -16 -23 -35 -42 -19 -19
-35 -29 -35 -22 0 7 -5 12 -11 12 -5 0 -8 -4 -5 -9 3 -5 -2 -12 -11 -16 -10
-3 -19 -1 -21 4 -2 6 -13 11 -25 11 -20 1 -21 1 -4 11 10 6 24 8 31 6 7 -3 32
8 56 24 44 30 60 35 60 21z m207 -35 c-27 -35 -46 -45 -43 -23 3 22 47 67 58
60 5 -3 -2 -20 -15 -37z m-460 0 c-6 -15 -16 -27 -20 -27 -5 0 -5 5 -2 10 3 6
0 10 -7 10 -7 1 -3 9 11 21 29 24 34 20 18 -14z m546 -2 c4 -8 3 -16 -1 -19
-4 -3 -9 4 -9 15 -2 23 3 25 10 4z m-826 -35 c-6 -11 -15 -20 -20 -20 -4 0 -5
-4 -2 -10 3 -6 -1 -7 -9 -4 -21 8 -20 13 5 41 25 26 44 21 26 -7z m1100 -20
c-23 -42 -37 -51 -37 -25 0 21 41 76 52 69 4 -3 -2 -23 -15 -44z m9377 41 c3
-5 -1 -12 -10 -15 -8 -3 -12 -11 -9 -16 10 -16 -5 -71 -18 -69 -7 1 -20 -1
-31 -6 -12 -5 -21 -3 -27 6 -6 11 -11 11 -21 1 -16 -16 -101 -16 -96 1 3 6 15
14 28 15 13 2 33 10 44 17 20 14 25 15 46 15 6 0 10 7 10 15 0 18 21 20 38 3
9 -9 12 -7 12 8 0 30 21 46 34 25z m-10541 -41 c-5 -20 -23 -31 -61 -37 -21
-3 -22 -2 -12 17 6 11 15 21 20 21 6 1 16 2 23 3 6 1 11 7 10 14 -2 6 3 9 11
6 8 -3 12 -14 9 -24z m417 10 c-6 -11 -16 -20 -22 -20 -6 0 -3 9 7 20 10 11
20 20 22 20 2 0 -1 -9 -7 -20z m9950 10 c0 -11 -101 -61 -111 -54 -15 9 1 25
42 43 40 18 69 23 69 11z m-9890 -29 c0 -5 -7 -12 -16 -15 -14 -5 -15 -4 -4 9
14 17 20 19 20 6z m10120 -3 c0 -13 -29 -48 -41 -48 -4 0 -1 14 7 30 16 30 34
40 34 18z m1993 -8 c20 -8 36 -19 34 -25 -4 -11 -56 -8 -72 5 -5 4 -19 4 -30
-1 -11 -4 -38 -8 -60 -8 -36 0 -38 1 -22 14 11 7 25 11 32 9 7 -3 26 1 42 10
15 8 30 14 33 13 3 -1 22 -9 43 -17z m-11749 -6 c9 -3 16 -11 16 -16 0 -6 -6
-8 -14 -5 -8 3 -16 1 -18 -5 -2 -6 -9 -8 -16 -4 -9 5 -9 10 1 21 15 17 12 16
31 9z m-44 -65 c0 -10 -12 -25 -28 -33 -23 -12 -30 -12 -46 -1 -23 17 -15 42
16 54 31 11 58 2 58 -20z m12065 1 c-10 -11 -22 -17 -27 -14 -12 8 11 34 30
34 13 0 12 -3 -3 -20z m61 -36 c-28 -25 -56 -42 -64 -39 -7 3 -20 5 -28 5 -26
0 48 62 80 67 17 3 33 7 35 9 2 2 9 4 15 4 6 0 -11 -21 -38 -46z m-13470 -6
c-2 -18 -4 -41 -5 -51 0 -10 -5 -15 -11 -12 -5 3 -10 0 -10 -8 0 -8 -14 -20
-31 -26 -21 -7 -29 -16 -27 -28 4 -22 -35 -56 -60 -51 -9 2 -16 11 -16 21 1 9
-3 14 -8 11 -6 -4 -9 -1 -6 6 2 8 22 19 44 27 l39 12 -40 -4 c-34 -5 -37 -3
-24 7 11 9 14 20 9 33 -10 26 -4 35 21 35 11 0 22 7 25 15 4 9 19 15 40 15 18
0 39 7 46 15 7 8 14 14 15 15 1 0 0 -15 -1 -32z m78 -5 c-19 -14 -44 -7 -44
13 0 21 20 17 21 -3 0 -13 3 -11 10 7 8 20 12 22 19 10 7 -10 5 -19 -6 -27z
m11896 17 c0 -5 -4 -10 -10 -10 -5 0 -10 5 -10 10 0 6 5 10 10 10 6 0 10 -4
10 -10z m-575 -20 c-3 -5 -13 -10 -21 -10 -8 0 -12 5 -9 10 3 6 13 10 21 10 8
0 12 -4 9 -10z m-11144 -23 c-10 -9 -11 -8 -5 6 3 10 9 15 12 12 3 -3 0 -11
-7 -18z m13349 6 c30 -3 56 -6 57 -7 2 -2 -13 -22 -33 -45 -27 -32 -34 -45
-25 -54 17 -17 13 -27 -8 -27 -11 0 -23 -5 -26 -11 -4 -6 -14 -8 -22 -5 -8 3
-29 -2 -46 -11 -32 -17 -129 -34 -197 -34 -124 -1 -133 0 -121 15 7 9 21 18
32 21 10 4 19 13 19 21 0 7 9 19 20 26 11 7 20 17 20 23 0 6 17 25 37 44 l37
34 8 -23 c7 -20 10 -21 21 -8 6 9 34 18 62 22 27 3 56 13 65 21 8 9 21 13 30
9 8 -3 40 -8 70 -11z m-13430 -10 c0 -2 -11 -15 -25 -29 -14 -14 -23 -29 -20
-34 2 -4 -6 -10 -20 -12 -29 -6 -33 6 -7 21 9 6 14 11 10 11 -12 0 36 46 50
46 6 0 12 -1 12 -3z m-390 -37 c0 -2 -7 -6 -15 -10 -8 -3 -15 -1 -15 4 0 6 7
10 15 10 8 0 15 -2 15 -4z m400 -17 c0 -6 -4 -7 -10 -4 -5 3 -10 11 -10 16 0
6 5 7 10 4 6 -3 10 -11 10 -16z m1620 0 c0 -6 -13 -16 -30 -22 -16 -6 -30 -17
-30 -24 0 -7 -4 -13 -10 -13 -15 0 -12 9 11 41 20 28 59 40 59 18z m10100 -19
c-6 -11 -15 -20 -21 -20 -6 0 -6 7 1 20 6 11 15 20 21 20 6 0 6 -7 -1 -20z
m-10024 -24 l26 -23 -26 0 c-15 0 -35 -8 -45 -17 -28 -25 -34 -19 -12 13 12
16 21 34 21 40 0 16 8 14 36 -13z m-1874 -8 c-7 -7 -12 -8 -12 -2 0 14 12 26
19 19 2 -3 -1 -11 -7 -17z m11535 -39 c-25 -47 -72 -73 -112 -63 -30 7 -31 15
-7 38 22 19 111 65 129 65 8 1 4 -14 -10 -40z m-9754 24 c-7 -2 -19 -2 -25 0
-7 3 -2 5 12 5 14 0 19 -2 13 -5z m10077 -57 c-8 -7 -28 -17 -45 -21 -35 -8
-32 -3 10 19 37 20 54 21 35 2z m-12080 -16 c0 -5 -4 -10 -10 -10 -5 0 -10 5
-10 10 0 6 5 10 10 10 6 0 10 -4 10 -10z m-86 -25 c-7 -17 -20 -20 -28 -6 -4
5 0 12 6 14 23 9 28 7 22 -8z m8416 -95 c0 -5 -19 -10 -42 -10 -52 0 -504 -25
-648 -35 -36 -2 -148 -7 -250 -10 -184 -6 -322 -12 -890 -40 -667 -32 -878
-38 -860 -26 8 6 61 11 117 11 56 0 168 4 250 10 81 5 398 21 703 35 305 14
575 27 600 30 25 2 113 7 195 10 83 3 170 8 195 10 25 3 142 7 260 11 118 3
217 8 219 10 10 9 151 3 151 -6z m-8900 -110 c-20 -13 -33 -13 -25 0 3 6 14
10 23 10 15 0 15 -2 2 -10z m310 -9 c0 -5 -7 -11 -15 -15 -9 -3 -15 0 -15 9 0
8 7 15 15 15 8 0 15 -4 15 -9z m-280 -51 c0 -5 -7 -7 -15 -4 -8 4 -15 8 -15
10 0 2 7 4 15 4 8 0 15 -4 15 -10z m8468 -262 c3 -15 -4 -18 -47 -18 -48 0
-51 -2 -51 -25 0 -23 4 -25 45 -25 32 0 45 -4 45 -14 0 -17 -22 -26 -61 -26
-28 0 -30 -2 -27 -32 l3 -32 53 3 c48 2 53 0 50 -16 -3 -15 -13 -18 -73 -18
l-70 0 -3 107 -3 107 43 4 c72 7 93 3 96 -15z m-268 -7 c0 -10 -23 -53 -50
-95 -54 -83 -53 -88 15 -84 30 2 40 -1 40 -12 0 -12 -17 -16 -77 -18 -60 -2
-78 0 -78 11 0 7 23 47 50 89 28 42 50 79 50 82 0 4 -22 4 -50 0 -46 -6 -50
-5 -50 14 0 19 7 21 63 25 34 2 68 4 75 5 6 1 12 -6 12 -17z m-278 -107 c2
-80 0 -108 -10 -112 -7 -2 -15 -2 -18 1 -4 3 -9 53 -11 111 -6 102 -5 106 15
106 19 0 21 -6 24 -106z m-192 86 c30 -16 36 -67 11 -94 -26 -27 -26 -34 -1
-66 24 -30 25 -50 5 -50 -9 0 -28 20 -43 45 -15 26 -34 45 -44 45 -15 0 -18
-9 -18 -45 0 -38 -3 -45 -19 -45 -18 0 -20 9 -23 106 -2 58 -1 108 1 110 9 8
113 4 131 -6z m-263 -17 c3 -8 -12 -13 -44 -15 -41 -3 -48 -6 -51 -25 -3 -21
1 -23 37 -23 34 0 41 -3 41 -19 0 -16 -8 -20 -37 -23 -35 -3 -38 -6 -38 -33 0
-29 1 -30 44 -27 28 2 47 -1 52 -9 14 -23 -1 -29 -72 -29 l-69 0 0 110 0 111
67 -3 c40 -2 68 -8 70 -15z m-286 -11 c52 -43 15 -122 -57 -122 -33 0 -34 -1
-34 -39 0 -36 -18 -59 -34 -44 -3 4 -6 55 -6 115 l0 108 54 0 c37 0 61 -6 77
-18z m-278 -94 c20 -57 37 -106 37 -110 0 -5 -8 -8 -19 -8 -13 0 -20 9 -24 30
-6 27 -10 30 -47 30 -37 0 -41 -2 -47 -31 -6 -29 -27 -48 -40 -35 -7 7 46 195
60 214 25 32 43 12 80 -90z m-249 66 c9 -8 16 -29 16 -45 0 -40 -32 -69 -74
-69 -34 0 -35 -1 -38 -42 -2 -31 -8 -44 -20 -46 -15 -3 -17 10 -20 103 -2 59
-1 109 1 111 2 2 30 4 62 4 39 0 63 -5 73 -16z m2253 -501 c-6 -5 -246 -16
-887 -38 -250 -9 -461 -18 -467 -20 -9 -3 -14 -30 -15 -82 l-2 -78 -3 78 -4
77 -82 0 c-106 0 -594 -17 -952 -34 -154 -7 -284 -9 -289 -4 -6 5 -2 8 10 8
10 0 69 3 129 5 61 3 232 10 380 15 149 5 374 14 500 19 127 6 426 17 665 27
239 9 563 21 720 28 267 11 309 11 297 -1z m-8814 -70 c-7 -2 -21 -2 -30 0
-10 3 -4 5 12 5 17 0 24 -2 18 -5z m27 -58 c-19 -7 -43 -14 -54 -14 -15 -1
-16 2 -6 14 8 9 28 15 54 14 l41 -1 -35 -13z m230 -55 c0 -5 -8 -10 -17 -10
-15 0 -16 2 -3 10 19 12 20 12 20 0z m7197 -317 c-2 -37 -3 -9 -3 62 0 72 1
102 3 68 2 -34 2 -93 0 -130z m-7997 97 c0 -5 -7 -10 -16 -10 -8 0 -12 5 -9
10 3 6 10 10 16 10 5 0 9 -4 9 -10z m-244 -47 c-10 -11 -37 -12 -30 -2 3 5 12
9 21 9 9 0 13 -3 9 -7z m11021 -39 c-3 -3 -12 -4 -19 -1 -8 3 -5 6 6 6 11 1
17 -2 13 -5z m-252 -15 c-77 -3 -201 -6 -275 -6 l-135 1 110 6 c61 3 184 6
275 6 l165 1 -140 -8z m-552 -16 c-23 -2 -64 -2 -90 0 -26 2 -7 3 42 3 50 0
71 -1 48 -3z m846 -259 c1 -117 -1 -133 -16 -139 -10 -4 -130 -8 -268 -10
l-250 -3 250 9 c138 5 256 11 264 14 11 4 13 40 8 203 -3 115 -2 168 3 127 4
-38 8 -129 9 -201z m-1126 249 l-103 -4 -2 -142 -2 -142 -6 140 c-4 77 -8 141
-9 142 0 2 -58 1 -128 -1 -97 -3 -108 -2 -48 3 44 4 152 7 240 7 94 0 118 -2
58 -3z m-610 -20 c-29 -2 -77 -2 -105 0 -29 2 -6 3 52 3 58 0 81 -1 53 -3z
m-280 -10 c-35 -2 -91 -2 -125 0 -35 2 -7 3 62 3 69 0 97 -1 63 -3z m-260 -10
c-24 -2 -62 -2 -85 0 -24 2 -5 4 42 4 47 0 66 -2 43 -4z m-534 -145 c-2 -161
-7 -151 -11 25 -2 64 0 117 4 117 5 0 7 -64 7 -142z m138 135 c-20 -2 -52 -2
-70 0 -17 2 0 4 38 4 39 0 53 -2 32 -4z m-244 -10 c-29 -2 -78 -2 -110 0 -32
2 -8 3 52 3 61 0 87 -1 58 -3z m-325 -10 c-16 -2 -40 -2 -55 0 -16 2 -3 4 27
4 30 0 43 -2 28 -4z m59 1 c-3 -3 -12 -4 -19 -1 -8 3 -5 6 6 6 11 1 17 -2 13
-5z m-582 -20 c-69 -7 -232 -8 -222 -2 7 4 66 7 132 6 66 -1 107 -3 90 -4z
m-932 -31 c-34 -2 -93 -2 -130 0 -37 2 -9 3 62 3 72 0 102 -1 68 -3z m704 -35
c-3 -7 -5 -2 -5 12 0 14 2 19 5 13 2 -7 2 -19 0 -25z m-1304 15 c-13 -2 -33
-2 -45 0 -13 2 -3 4 22 4 25 0 35 -2 23 -4z m4944 -9 c-3 -3 -12 -4 -19 -1 -8
3 -5 6 6 6 11 1 17 -2 13 -5z m-507 -40 c0 -32 2 -35 15 -24 25 21 27 5 2 -18
l-23 -22 -23 24 c-23 24 -23 25 -2 19 19 -5 20 -2 15 26 -4 20 -3 31 5 31 6 0
11 -16 11 -36z m400 32 c0 -2 -9 -6 -20 -9 -11 -3 -20 -1 -20 4 0 5 9 9 20 9
11 0 20 -2 20 -4z m-4923 -98 c-2 -18 -4 -4 -4 32 0 36 2 50 4 33 2 -18 2 -48
0 -65z m5023 78 c0 -2 -7 -6 -15 -10 -8 -3 -15 -1 -15 4 0 6 7 10 15 10 8 0
15 -2 15 -4z m-1220 -22 c0 -12 -4 -14 -12 -7 -7 6 -20 13 -28 16 -9 3 -3 6
13 6 19 1 27 -4 27 -15z m83 9 c-7 -2 -19 -2 -25 0 -7 3 -2 5 12 5 14 0 19 -2
13 -5z m865 0 c-10 -2 -26 -2 -35 0 -10 3 -2 5 17 5 19 0 27 -2 18 -5z m-1242
-15 c5 -8 2 -9 -11 -5 -9 4 -25 2 -34 -5 -14 -12 -14 -11 -2 5 16 20 37 22 47
5z m121 -20 c-3 -7 -5 -2 -5 12 0 14 2 19 5 13 2 -7 2 -19 0 -25z m253 4 c-8
-3 -18 -10 -22 -16 -5 -6 -8 -2 -8 11 0 17 4 20 22 15 16 -4 18 -7 8 -10z
m1054 3 c-4 -9 -17 -15 -33 -14 -20 1 -22 2 -6 6 11 3 24 9 30 14 13 13 15 11
9 -6z m-2117 -22 c-8 -7 -37 9 -31 19 3 5 12 4 20 -3 8 -6 13 -14 11 -16z m71
12 c-2 -5 -8 -10 -15 -10 -7 0 -25 -13 -41 -28 -29 -27 -52 -35 -52 -17 0 6 6
10 13 10 7 0 26 14 42 30 27 29 60 38 53 15z m2138 -3 c-10 -2 -22 0 -28 6 -6
6 0 7 19 4 21 -5 23 -7 9 -10z m-2783 -9 c-7 -2 -19 -2 -25 0 -7 3 -2 5 12 5
14 0 19 -2 13 -5z m-478 -73 c-10 -11 -23 -20 -29 -20 -6 0 -5 5 2 12 20 20
14 28 -25 29 -27 1 -30 3 -13 6 49 8 54 12 39 31 -7 9 0 5 16 -10 28 -27 28
-28 10 -48z m1745 50 c-6 -11 -16 -20 -22 -20 -6 0 -3 9 7 20 10 11 20 20 22
20 2 0 -1 -9 -7 -20z m280 -3 c9 -3 4 -6 -12 -6 -27 -1 -35 8 -21 22 4 4 9 3
12 -1 3 -5 13 -12 21 -15z m-2345 -238 c22 -3 -34 -6 -125 -5 -127 0 -138 1
-47 3 l117 4 2 127 2 127 6 -125 5 -125 40 -6z m1728 244 c-7 -2 -19 -2 -25 0
-7 3 -2 5 12 5 14 0 19 -2 13 -5z m220 -14 c-6 -6 -19 -9 -29 -6 -16 4 -15 5
4 6 12 0 22 6 22 13 0 6 3 8 7 5 4 -4 2 -12 -4 -18z m490 14 c-7 -2 -19 -2
-25 0 -7 3 -2 5 12 5 14 0 19 -2 13 -5z m-983 -23 c0 -16 -21 -22 -36 -9 -11
9 -12 14 -3 20 14 8 39 1 39 -11z m-2600 -10 c0 -5 7 -10 15 -10 8 0 15 -6 15
-14 0 -8 2 -20 5 -28 2 -7 -6 -21 -19 -30 -20 -14 -28 -15 -49 -5 -33 15 -35
68 -3 84 28 14 36 15 36 3z m393 3 c-7 -2 -21 -2 -30 0 -10 3 -4 5 12 5 17 0
24 -2 18 -5z m90 0 c-7 -2 -19 -2 -25 0 -7 3 -2 5 12 5 14 0 19 -2 13 -5z
m-186 -29 c-3 -3 -12 -4 -19 -1 -8 3 -5 6 6 6 11 1 17 -2 13 -5z m1466 -1 c-7
-2 -19 -2 -25 0 -7 3 -2 5 12 5 14 0 19 -2 13 -5z m-2056 -155 c-2 -29 -3 -6
-3 52 0 58 1 81 3 53 2 -29 2 -77 0 -105z m1148 132 c-3 -5 -12 -10 -18 -10
-7 0 -6 4 3 10 19 12 23 12 15 0z m-102 -7 c-7 -2 -19 -2 -25 0 -7 3 -2 5 12
5 14 0 19 -2 13 -5z m-538 -13 c-3 -5 -14 -10 -23 -9 -14 0 -13 2 3 9 27 11
27 11 20 0z m85 -6 c0 -2 -7 -4 -15 -4 -8 0 -15 4 -15 10 0 5 7 7 15 4 8 -4
15 -8 15 -10z m1992 -521 c3 -46 1 -83 -2 -83 -4 0 -10 111 -14 246 -4 136 -7
250 -8 253 0 3 1 33 2 66 2 33 7 -43 11 -170 4 -126 9 -267 11 -312z m1591
470 c12 3 166 8 342 11 l320 4 -355 -13 c-195 -7 -422 -13 -505 -12 l-150 1
155 6 155 5 5 25 c4 25 4 25 8 -3 3 -24 7 -28 25 -24z m-515 -20 c-16 -2 -40
-2 -55 0 -16 2 -3 4 27 4 30 0 43 -2 28 -4z m-188 -7 c-3 -2 -138 -6 -300 -9
-162 -2 -234 -1 -160 2 186 8 465 13 460 7z m-792 -23 c-16 -2 -40 -2 -55 0
-16 2 -3 4 27 4 30 0 43 -2 28 -4z m-275 -10 c-51 -2 -135 -2 -185 0 -51 1
-10 3 92 3 102 0 143 -2 93 -3z m-350 -10 c-29 -2 -77 -2 -105 0 -29 2 -6 3
52 3 58 0 81 -1 53 -3z m-360 -10 c-35 -2 -91 -2 -125 0 -35 2 -7 3 62 3 69 0
97 -1 63 -3z m-675 -20 c-26 -2 -71 -2 -100 0 -29 2 -8 3 47 3 55 0 79 -1 53
-3z m-438 -14 c-124 -4 -301 -10 -394 -13 -93 -3 -166 -3 -163 0 8 8 375 21
602 21 l180 0 -225 -8z m2705 -448 c-3 -6 -97 -9 -218 -8 l-212 1 180 6 c99 3
197 7 218 8 21 1 36 -2 32 -7z m-695 -11 c0 -5 -21 -9 -47 -8 l-48 1 45 7 c25
4 46 8 48 8 1 1 2 -2 2 -8z m73 -7 c-13 -2 -33 -2 -45 0 -13 2 -3 4 22 4 25 0
35 -2 23 -4z m-268 -9 c-45 -7 -413 -9 -402 -2 7 4 104 7 217 6 113 0 196 -2
185 -4z m936 -247 c1 -89 -2 -132 -10 -140 -9 -9 -86 -13 -274 -14 -144 -1
-257 -1 -252 2 6 2 121 5 256 8 135 2 251 7 258 11 9 6 11 55 7 199 -3 128 -2
170 4 127 4 -36 9 -123 11 -193z m-1346 -154 c3 -10 81 -12 357 -9 274 3 308
2 153 -4 -278 -10 -498 -11 -512 -2 -9 5 -14 65 -17 202 l-5 195 10 -185 c5
-102 12 -191 14 -197z m5409 278 c7 -11 -18 -21 -55 -21 -28 0 -37 9 -22 23
10 10 71 8 77 -2z m-5056 -63 c2 -15 -4 -39 -14 -53 -15 -24 -22 -26 -73 -23
-53 3 -56 4 -59 32 -2 19 4 36 19 52 20 21 31 24 74 22 46 -3 50 -5 53 -30z
m549 26 c-3 -3 -12 -4 -19 -1 -8 3 -5 6 6 6 11 1 17 -2 13 -5z m96 -1 c-7 -2
-19 -2 -25 0 -7 3 -2 5 12 5 14 0 19 -2 13 -5z m-480 -10 c-23 -4 -39 -35 -28
-54 4 -6 18 -8 32 -4 16 4 22 2 18 -5 -8 -14 -38 -13 -53 2 -26 26 -6 69 33
67 19 -2 18 -2 -2 -6z m174 -30 c-3 -10 -5 -4 -5 12 0 17 2 24 5 18 2 -7 2
-21 0 -30z m395 5 c-7 -7 -12 -8 -12 -2 0 14 12 26 19 19 2 -3 -1 -11 -7 -17z
m-195 6 c-3 -3 -12 -4 -19 -1 -8 3 -5 6 6 6 11 1 17 -2 13 -5z m113 -5 c0 -4
-9 -9 -20 -12 -12 -3 -20 0 -20 7 0 6 9 12 20 12 11 0 20 -3 20 -7z m-374 -21
c4 -7 3 -8 -5 -4 -6 4 -18 2 -26 -4 -8 -7 -15 -8 -15 -3 0 23 33 32 46 11z
m175 -26 c-7 -2 -18 1 -23 6 -8 8 -4 9 13 5 13 -4 18 -8 10 -11z m-84 2 c-3
-3 -12 -4 -19 -1 -8 3 -5 6 6 6 11 1 17 -2 13 -5z m8983 -904 c0 -5 -8 -10
-17 -10 -15 0 -16 2 -3 10 19 12 20 12 20 0z m-1005 -210 c4 -6 -9 -10 -32
-10 -28 0 -34 3 -23 10 20 13 47 13 55 0z m-2225 -28 c0 -4 -15 -9 -32 -10
-25 -2 -29 0 -18 8 18 12 50 13 50 2z m925 -21 c17 -4 37 -3 46 3 20 11 52 0
47 -17 -9 -26 -162 -38 -172 -12 -3 8 -13 15 -23 16 -16 0 -16 1 2 9 23 10 58
10 100 1z m-138 -46 c-7 -16 -47 -22 -47 -7 0 9 42 32 49 26 2 -2 1 -10 -2
-19z m-6593 -241 c25 -14 46 -29 46 -34 0 -9 -90 -64 -94 -58 -7 7 -14 106 -9
112 8 8 4 9 57 -20z m-3485 0 c29 -15 32 -20 29 -57 l-3 -42 -82 -3 -83 -3 0
45 c0 39 4 47 28 59 37 20 73 20 111 1z m664 -14 c16 0 27 -20 27 -51 0 -26
-18 -24 -22 3 -4 30 -28 36 -28 6 0 -21 -4 -24 -47 -25 -27 0 -40 2 -30 4 18
5 18 6 -2 19 -25 18 -17 44 14 44 15 0 22 -6 21 -16 0 -9 5 -19 13 -22 11 -3
12 2 7 22 -9 35 3 55 19 33 7 -10 19 -17 28 -17z m9167 4 c0 -8 -10 -14 -25
-14 -25 0 -33 14 -15 25 6 3 10 1 10 -5 0 -6 5 -8 10 -5 6 4 7 11 4 17 -4 7
-2 8 4 4 7 -4 12 -14 12 -22z m-9710 -30 c0 -24 5 -34 15 -34 8 0 16 8 16 18
1 9 2 22 4 27 1 6 3 16 3 23 3 24 22 1 22 -27 0 -67 -66 -85 -83 -22 -4 18 -6
40 -3 48 10 24 26 4 26 -33z m330 1 c0 -25 -4 -45 -10 -45 -5 0 -10 20 -10 45
0 25 5 45 10 45 6 0 10 -20 10 -45z m-192 -12 c2 -19 -1 -33 -7 -33 -6 0 -11
12 -11 26 0 35 -23 26 -31 -12 -5 -28 -5 -28 -13 -6 -12 37 2 64 32 60 22 -2
28 -9 30 -35z m63 23 c-10 -11 -8 -16 5 -24 15 -9 16 -13 5 -26 -15 -18 -51
-22 -51 -6 0 6 8 10 18 10 16 1 16 2 -2 15 -23 18 -14 45 15 45 17 0 19 -3 10
-14z m95 -11 c7 -27 -10 -55 -32 -55 -8 0 -14 -4 -14 -10 0 -5 -4 -10 -10 -10
-5 0 -10 23 -10 50 0 49 1 50 30 50 23 0 31 -5 36 -25z m109 -15 c0 -39 -19
-49 -50 -26 -15 11 -17 17 -8 27 6 6 9 18 6 26 -4 11 1 14 23 11 26 -3 29 -7
29 -38z m9635 -116 c0 -15 -10 -17 -34 -8 -12 5 -13 9 -3 19 14 15 37 8 37
-11z m-203 -96 c5 13 33 17 33 4 0 -4 -10 -13 -22 -21 -19 -12 -23 -11 -35 5
-7 10 -13 14 -13 10 0 -5 -7 -3 -15 4 -13 11 -13 15 -3 22 8 5 20 0 32 -15 13
-15 20 -18 23 -9z m-9546 -29 c-9 -22 -10 -22 -10 -3 -1 11 2 24 6 27 12 12
14 0 4 -24z m159 13 c0 -10 -11 -29 -25 -42 -25 -23 -25 -23 -39 -4 -12 16
-13 19 -1 22 8 2 17 12 20 23 8 25 45 26 45 1z m-194 -49 c-10 -10 -19 5 -10
18 6 11 8 11 12 0 2 -7 1 -15 -2 -18z m94 8 c0 -11 -4 -22 -9 -25 -11 -7 -23
22 -15 35 9 16 24 10 24 -10z m10001 2 c0 -11 3 -13 6 -5 2 6 9 12 14 12 4 0
6 -7 2 -16 -5 -14 -3 -15 18 -3 31 17 43 19 59 9 25 -15 -40 -95 -69 -85 -9 4
-11 0 -7 -10 3 -8 1 -15 -4 -15 -6 0 -10 9 -10 20 0 11 -6 20 -14 20 -16 0
-28 50 -15 66 5 6 6 14 2 17 -3 4 -1 7 5 7 7 0 12 -8 13 -17z m-10791 -4 c0
-6 -6 -9 -14 -6 -7 3 -19 0 -25 -6 -8 -8 -11 -7 -11 6 0 11 8 17 25 17 14 0
25 -5 25 -11z m1590 -48 c0 -6 -4 -13 -10 -16 -5 -3 -10 1 -10 9 0 9 5 16 10
16 6 0 10 -4 10 -9z m-3580 -12 c0 -15 -49 -41 -61 -33 -8 5 -5 12 11 24 23
18 50 22 50 9z m11410 -26 c0 -3 -7 -2 -16 1 -12 4 -14 1 -9 -13 3 -11 1 -22
-5 -26 -5 -3 -10 -1 -10 5 0 6 -5 8 -11 4 -6 -3 -4 5 6 19 10 15 22 24 31 20
8 -3 14 -7 14 -10z m-456 -30 c9 4 16 2 16 -4 0 -16 -43 -6 -47 11 -4 12 -3
13 5 1 6 -8 17 -11 26 -8z m2212 4 c4 -3 -3 -4 -16 -2 -19 4 -20 2 -8 -12 9
-12 9 -15 1 -9 -8 4 -13 1 -13 -8 0 -11 -9 -16 -27 -15 -16 0 -22 3 -15 6 6 2
9 9 6 14 -16 26 48 50 72 26z m-132 -13 c3 -8 10 -13 15 -9 5 3 12 1 15 -4 10
-16 -5 -41 -30 -47 -13 -3 -22 -9 -19 -13 2 -4 -2 -8 -10 -8 -16 0 -19 9 -8
21 8 7 9 12 11 54 2 25 17 29 26 6z m-2214 -29 c0 -8 -7 -15 -15 -15 -26 0
-18 20 13 29 1 1 2 -6 2 -14z m30 5 c0 -5 -5 -10 -11 -10 -5 0 -7 5 -4 10 3 6
8 10 11 10 2 0 4 -4 4 -10z m223 -5 c4 -8 2 -17 -3 -20 -6 -4 -10 3 -10 14 0
25 6 27 13 6z m-3096 -1 c-3 -3 -12 -4 -19 -1 -8 3 -5 6 6 6 11 1 17 -2 13 -5z
m2790 -16 c-3 -8 -6 -5 -6 6 -1 11 2 17 5 13 3 -3 4 -12 1 -19z m-64 -56 c-13
-13 -16 -13 -24 -1 -6 11 -9 8 -9 -10 0 -16 4 -21 15 -17 8 3 21 -1 29 -9 7
-8 16 -12 19 -9 3 3 10 -4 17 -15 6 -12 14 -20 18 -17 4 2 8 -7 8 -20 2 -30
-1 -30 -30 1 -13 14 -33 25 -44 25 l-22 0 20 -35 c13 -24 16 -36 8 -41 -6 -4
-8 -3 -5 3 9 15 -24 26 -37 13 -7 -7 -6 -10 4 -10 9 0 10 -3 5 -9 -17 -17 -92
-20 -112 -5 -17 13 -17 13 4 14 27 0 37 15 27 38 -8 20 -13 40 -17 67 -2 17 3
20 39 17 39 -2 42 0 47 28 6 28 8 29 31 19 22 -11 23 -13 9 -27z m2211 13 c3
-9 0 -15 -8 -15 -7 0 -13 7 -13 15 0 8 4 15 8 15 4 0 9 -7 13 -15z m46 3 c0
-11 -12 -10 -30 2 -12 7 -10 9 8 7 12 0 22 -5 22 -9z m-318 -46 c-7 -2 -12
-10 -12 -18 0 -11 -4 -10 -20 3 -20 18 -28 39 -10 28 5 -3 18 -2 27 4 13 7 19
6 22 -2 2 -6 -1 -13 -7 -15z m-1739 -11 c-2 -6 5 -11 14 -11 12 0 14 -3 6 -11
-14 -14 -53 5 -53 27 0 9 -5 12 -12 8 -7 -4 -8 -3 -4 4 8 14 52 -1 49 -17z
m1035 -59 c3 -9 -2 -13 -14 -10 -9 1 -19 9 -22 16 -3 9 2 13 14 10 9 -1 19 -9
22 -16z m-1432 -10 c9 -5 8 -11 -2 -20 -8 -7 -14 -8 -14 -2 0 5 -9 10 -21 10
-11 0 -17 5 -14 10 7 12 35 13 51 2z m25 -69 c10 -11 10 -14 2 -9 -7 4 -13 2
-13 -3 0 -6 -8 -11 -17 -11 -14 0 -15 -2 -4 -9 10 -7 10 -10 1 -16 -7 -4 -16
-1 -21 6 -6 10 -2 17 11 23 11 5 20 15 20 23 0 17 5 17 21 -4z m999 -10 c0 -5
-5 -15 -10 -23 -8 -12 -10 -11 -10 8 0 12 5 22 10 22 6 0 10 -3 10 -7z m-1070
-28 c14 -16 10 -18 -14 -9 -9 3 -16 10 -16 15 0 14 16 11 30 -6z m568 -34 c30
-26 29 -45 -3 -37 -17 4 -25 2 -26 -6 -1 -14 -16 28 -18 50 -1 18 23 15 47 -7z
m71 -18 c0 -31 -2 -34 -9 -18 -12 28 -12 55 0 55 6 0 10 -17 9 -37z m76 27 c3
-5 0 -10 -9 -10 -8 0 -16 -5 -18 -12 -5 -15 -28 -1 -28 18 0 16 45 20 55 4z
m-815 -101 c0 -6 -4 -7 -10 -4 -5 3 -10 11 -10 16 0 6 5 7 10 4 6 -3 10 -11
10 -16z m40 1 c0 -5 -4 -10 -10 -10 -5 0 -10 5 -10 10 0 6 5 10 10 10 6 0 10
-4 10 -10z m695 0 c3 -5 -1 -10 -10 -10 -9 0 -13 5 -10 10 3 6 8 10 10 10 2 0
7 -4 10 -10z m-585 -25 c0 -16 -6 -25 -15 -25 -8 0 -15 5 -15 10 0 6 5 10 10
10 6 0 9 3 9 8 -2 12 1 22 6 22 3 0 5 -11 5 -25z m515 16 c3 -5 1 -12 -4 -15
-5 -3 -11 1 -15 9 -6 16 9 21 19 6z m745 -96 c0 -14 6 -25 13 -26 6 0 2 -5
-10 -11 -13 -6 -23 -15 -23 -20 0 -4 -11 -8 -24 -8 -17 0 -26 7 -30 26 -9 33
-4 37 35 36 23 0 29 3 25 14 -3 8 -1 14 4 14 6 0 10 -11 10 -25z m70 -5 c0 -5
3 -17 7 -27 6 -16 5 -16 -10 -4 -15 12 -17 11 -17 -8 0 -11 -4 -21 -10 -21 -5
0 -10 14 -10 30 0 17 -5 30 -12 31 -7 0 -4 4 7 8 22 9 45 4 45 -9z m-166 -45
c-4 -8 -1 -15 5 -15 6 0 11 -4 11 -10 0 -5 -4 -10 -9 -10 -12 0 -23 29 -15 41
9 14 14 10 8 -6z m2819 -724 c3 -14 1 -18 -9 -14 -8 3 -14 11 -14 19 0 21 17
17 23 -5z m-1886 -193 c-3 -8 -6 -5 -6 6 -1 11 2 17 5 13 3 -3 4 -12 1 -19z
m-15027 -253 c0 -21 -5 -25 -30 -25 -23 0 -30 5 -30 19 0 18 6 21 53 30 4 0 7
-10 7 -24z m2488 0 c3 -25 -42 -48 -66 -35 -10 5 -26 12 -37 16 -19 7 -18 8 5
12 13 2 34 10 45 18 26 19 49 14 53 -11z m-1338 6 c0 -4 25 -7 55 -6 l55 2 0
-64 c0 -46 -4 -63 -13 -63 -9 0 -12 9 -9 30 3 24 0 30 -20 35 -14 4 -42 5 -64
3 -35 -3 -39 -6 -39 -30 1 -16 -3 -28 -7 -28 -9 0 -11 91 -2 114 6 16 44 23
44 7z m-1240 -16 c0 -8 -7 -15 -15 -15 -8 0 -15 7 -15 15 0 8 7 15 15 15 8 0
15 -7 15 -15z m490 -15 c0 -5 -4 -10 -10 -10 -5 0 -10 5 -10 10 0 6 5 10 10
10 6 0 10 -4 10 -10z m4184 -15 c-4 -8 -8 -15 -10 -15 -2 0 -4 7 -4 15 0 8 4
15 10 15 5 0 7 -7 4 -15z m1944 -27 l-1 -43 -4 38 -4 37 -94 0 c-89 0 -94 -1
-98 -22 -4 -20 -4 -19 -6 5 l-1 27 105 0 105 0 -2 -42z m-4430 -5 c-1 -42 -31
-83 -60 -83 -17 0 -18 1 -2 25 10 15 15 38 12 60 -4 33 -2 35 24 35 25 0 27
-3 26 -37z m786 31 c9 -3 16 -16 16 -28 -1 -19 -2 -19 -11 -3 -12 21 -29 22
-29 2 0 -8 5 -15 10 -15 6 0 10 -9 10 -20 0 -26 -7 -25 -31 3 -22 26 -23 39
-7 55 14 14 20 14 42 6z m-2974 -24 c0 -11 -7 -20 -15 -20 -8 0 -15 9 -15 20
0 11 7 20 15 20 8 0 15 -9 15 -20z m88 -10 c-1 -23 -5 -29 -15 -25 -8 3 -21 5
-29 5 -8 0 -14 10 -14 25 0 21 5 25 29 25 27 0 30 -3 29 -30z m2496 11 c-10
-10 -25 -16 -33 -13 -11 4 -10 8 5 19 10 7 24 13 33 13 11 0 10 -4 -5 -19z
m-880 0 c7 -10 -23 -38 -44 -42 -18 -4 -60 18 -60 31 0 5 16 6 35 3 23 -4 35
-2 35 6 0 13 26 15 34 2z m-1217 -23 c-3 -8 -6 -5 -6 6 -1 11 2 17 5 13 3 -3
4 -12 1 -19z m4763 -38 c0 -33 -3 -60 -7 -60 -5 0 -6 27 -5 60 5 77 12 77 12
0z m-4847 43 c-7 -2 -19 -2 -25 0 -7 3 -2 5 12 5 14 0 19 -2 13 -5z m4342 -2
c3 -5 1 -12 -5 -16 -5 -3 -10 1 -10 9 0 18 6 21 15 7z m322 -43 c-2 -13 -4 -5
-4 17 -1 22 1 32 4 23 2 -10 2 -28 0 -40z m115 27 c-2 -14 -6 -25 -8 -25 -2 0
-4 11 -4 25 0 14 4 25 9 25 4 0 6 -11 3 -25z m418 5 c0 -5 -5 -10 -11 -10 -5
0 -7 5 -4 10 3 6 8 10 11 10 2 0 4 -4 4 -10z m921 -25 c25 -36 46 -48 35 -19
-12 32 6 34 35 3 21 -22 29 -40 27 -58 -3 -26 -3 -26 -98 -26 l-95 0 -3 31
c-2 23 4 39 22 59 15 16 26 32 26 36 0 21 29 6 51 -26z m-5236 5 c-3 -5 -13
-10 -21 -10 -8 0 -14 5 -14 10 0 6 9 10 21 10 11 0 17 -4 14 -10z m16940 -20
c3 -6 -1 -7 -9 -4 -18 7 -21 14 -7 14 6 0 13 -4 16 -10z m-70 -70 c18 -8 17
-9 -7 -9 -16 -1 -28 4 -28 9 0 12 8 12 35 0z m185 -6 c0 -2 -9 -4 -20 -4 -11
0 -20 4 -20 9 0 5 9 7 20 4 11 -3 20 -7 20 -9z m224 -103 c3 -5 -3 -11 -15
-14 -16 -4 -18 -3 -8 9 13 16 16 17 23 5z m-74 -11 c0 -5 -2 -10 -4 -10 -3 0
-8 5 -11 10 -3 6 -1 10 4 10 6 0 11 -4 11 -10z m-115 -20 c3 -6 -1 -7 -9 -4
-18 7 -21 14 -7 14 6 0 13 -4 16 -10z m-185 -26 c0 -2 -9 -4 -21 -4 -11 0 -18
4 -14 10 5 8 35 3 35 -6z m-204 -21 c-6 -6 -36 9 -36 18 0 5 9 4 20 -3 10 -7
18 -14 16 -15z m391 5 c-3 -8 -6 -5 -6 6 -1 11 2 17 5 13 3 -3 4 -12 1 -19z
m-332 2 c3 -5 2 -10 -4 -10 -5 0 -13 5 -16 10 -3 6 -2 10 4 10 5 0 13 -4 16
-10z m242 -6 c-3 -3 -12 -4 -19 -1 -8 3 -5 6 6 6 11 1 17 -2 13 -5z m280 0
c-3 -3 -12 -4 -19 -1 -8 3 -5 6 6 6 11 1 17 -2 13 -5z m-12327 -629 c10 -12
10 -21 2 -40 -11 -23 -25 -28 -69 -24 -5 0 -15 11 -23 25 -14 24 -13 27 13 50
30 25 49 23 77 -11z m155 9 c9 -9 15 -28 13 -42 -2 -20 -11 -29 -37 -36 -28
-8 -36 -7 -47 9 -40 55 24 116 71 69z m-327 -16 c22 -22 13 -38 -20 -38 -53 0
-66 15 -32 34 36 19 37 19 52 4z m3012 -71 c0 -36 -15 -57 -40 -57 -25 0 -50
33 -48 63 2 25 6 27 45 27 42 0 43 -1 43 -33z m260 13 c0 -5 -4 -10 -10 -10
-5 0 -10 5 -10 10 0 6 5 10 10 10 6 0 10 -4 10 -10z m-104 -11 c3 -6 -3 -20
-14 -32 -21 -20 -22 -20 -42 -2 -31 28 -25 45 14 45 19 0 38 -5 42 -11z m297
2 c11 -1 8 -59 -4 -66 -5 -4 -21 -4 -35 -1 -19 5 -24 13 -24 39 0 34 2 34 63
28z m313 -6 c4 -8 1 -22 -5 -29 -9 -11 -9 -15 1 -19 7 -3 3 -6 -9 -6 -26 -1
-30 11 -8 29 15 13 11 35 -6 25 -5 -4 -9 -1 -9 4 0 17 30 13 36 -4z m60 0 c4
-8 1 -22 -5 -29 -13 -16 2 -32 19 -21 6 3 10 1 10 -5 0 -6 -12 -10 -27 -8 -28
3 -29 5 -15 52 4 14 2 17 -8 11 -9 -5 -11 -4 -6 3 10 17 26 15 32 -3z m-526
-25 c0 -28 -3 -30 -37 -30 l-37 0 29 30 c16 17 32 30 37 30 4 0 8 -13 8 -30z
m612 -20 c6 0 8 11 3 28 -5 20 -4 24 5 16 14 -14 9 -56 -7 -61 -16 -6 -36 35
-27 55 6 14 9 11 12 -10 2 -16 8 -28 14 -28z m58 39 c0 23 13 4 16 -24 3 -28
-7 -38 -29 -29 -14 5 -15 19 -8 64 1 3 6 -2 11 -10 8 -12 10 -12 10 -1z m95 1
c4 -6 1 -18 -6 -26 -10 -13 -10 -17 2 -25 11 -7 9 -9 -8 -9 -26 0 -30 12 -8
30 15 13 11 35 -6 25 -5 -4 -9 -1 -9 4 0 14 27 14 35 1z m60 -25 c0 -20 -6
-31 -17 -33 -10 -2 -18 2 -18 8 0 6 4 9 9 5 13 -8 10 38 -4 48 -6 5 -2 7 10 5
15 -2 20 -11 20 -33z m84 21 c9 -10 9 -16 1 -21 -6 -4 -9 -13 -6 -21 3 -9 -2
-14 -15 -14 -18 0 -19 1 -3 25 15 23 15 25 0 25 -10 0 -14 5 -11 10 9 14 20
12 34 -4z m-668 -23 c-12 -20 -14 -14 -5 12 4 9 9 14 11 11 3 -2 0 -13 -6 -23z
m60 -6 c-8 -8 -14 -8 -23 2 -11 10 -10 11 5 6 12 -5 17 -2 18 11 0 12 2 14 6
6 3 -8 0 -19 -6 -25z m64 -5 c-8 -8 -25 10 -25 26 0 13 2 13 14 -4 8 -10 13
-21 11 -22z m595 6 c0 -36 -4 -35 -14 5 -4 16 -2 27 4 27 5 0 10 -14 10 -32z
m-4036 -173 c3 -8 1 -15 -4 -15 -6 0 -10 7 -10 15 0 8 2 15 4 15 2 0 6 -7 10
-15z m46 -1 c0 -8 -5 -12 -10 -9 -6 4 -8 11 -5 16 9 14 15 11 15 -7z m-165
-44 c-3 -5 -12 -10 -18 -10 -7 0 -6 4 3 10 19 12 23 12 15 0z m3945 -70 c32
-25 52 -25 75 0 21 23 35 26 35 8 0 -12 -61 -58 -76 -58 -10 0 -74 52 -74 61
0 14 13 10 40 -11z m-3802 -78 c14 11 15 10 9 -5 -4 -10 -2 -27 3 -38 7 -11 7
-19 1 -19 -5 0 -12 6 -14 13 -4 9 -7 9 -15 -1 -11 -16 -25 55 -14 72 4 6 8 1
10 -12 3 -20 6 -21 20 -10z m52 7 c0 -11 -4 -17 -10 -14 -5 3 -10 13 -10 21 0
8 5 14 10 14 6 0 10 -9 10 -21z m100 -34 c5 -31 3 -45 -4 -42 -6 2 -12 26 -14
53 -4 59 8 52 18 -11z m89 13 c-2 -57 -12 -72 -20 -28 -5 31 4 70 16 70 3 0 4
-19 4 -42z m45 -17 c2 -23 0 -41 -4 -41 -9 0 -21 70 -14 82 10 15 15 2 18 -41z
m98 17 l16 -33 12 33 c17 46 30 39 29 -15 -1 -27 -4 -38 -6 -25 -2 12 -8 22
-13 22 -4 0 -11 -10 -14 -22 l-6 -23 -15 25 c-14 25 -14 25 -15 3 0 -13 -4
-23 -10 -23 -5 0 -10 20 -10 45 0 53 10 57 32 13z m-578 6 c9 -24 7 -44 -4
-44 -5 0 -10 12 -10 26 0 35 -23 26 -31 -12 -6 -27 -7 -27 -8 9 -1 33 2 37 23
37 13 0 27 -7 30 -16z m74 -6 c3 -13 -3 -18 -20 -18 -22 -1 -22 -1 -4 -15 16
-12 17 -15 4 -15 -23 0 -41 26 -33 50 8 26 48 24 53 -2z m50 11 c-10 -5 -18
-16 -18 -24 0 -8 8 -19 18 -24 16 -10 16 -10 0 -11 -25 0 -43 37 -27 56 6 8
19 14 28 14 14 -1 14 -2 -1 -11z m167 0 c-4 -5 0 -18 9 -28 15 -16 15 -19 1
-31 -12 -10 -19 -10 -27 -2 -9 9 -7 12 8 12 18 1 19 1 0 15 -19 14 -16 45 4
45 6 0 8 -5 5 -11z m491 -18 c11 9 14 8 14 -2 0 -8 3 -25 6 -39 6 -24 6 -25
-9 -5 -9 11 -17 15 -17 8 0 -7 -4 -13 -10 -13 -5 0 -9 19 -9 43 1 24 4 32 6
19 4 -19 7 -21 19 -11z m144 0 c0 -16 -3 -36 -6 -45 -7 -18 -49 -22 -59 -6 -4
7 2 9 19 4 25 -6 26 -4 26 35 0 23 5 41 10 41 6 0 10 -13 10 -29z m196 -10
c11 9 14 8 14 -4 0 -8 3 -24 7 -34 6 -15 4 -16 -8 -6 -12 10 -18 10 -27 1 -9
-9 -12 0 -11 38 1 30 4 38 6 21 4 -23 7 -26 19 -16z m-404 8 c-12 -5 -22 -12
-22 -17 0 -14 26 -33 33 -25 4 3 7 1 7 -5 0 -7 -6 -12 -13 -12 -18 0 -37 21
-37 42 0 19 29 40 44 31 5 -4 0 -10 -12 -14z m710 9 c-15 -15 -16 -64 -2 -73
6 -3 10 -12 10 -18 -1 -19 -40 33 -40 53 0 18 25 50 38 50 3 0 1 -5 -6 -12z
m-765 -45 c-3 -10 -5 -2 -5 17 0 19 2 27 5 18 2 -10 2 -26 0 -35z m331 24 c2
-12 -3 -17 -17 -17 -28 0 -27 -20 2 -21 19 -1 20 -2 3 -6 -27 -7 -49 23 -35
49 12 23 42 20 47 -5z m70 11 c7 -7 12 -23 11 -37 -1 -24 -2 -23 -10 7 -5 17
-13 32 -18 32 -13 0 -21 -27 -15 -45 4 -8 1 -15 -5 -15 -12 0 -15 52 -4 63 10
11 28 8 41 -5z m672 -34 c0 -44 -1 -45 -27 -42 -22 2 -29 9 -31 30 -3 24 11
38 56 57 1 1 2 -20 2 -45z m126 22 c43 -13 32 -83 -12 -74 -15 2 -20 13 -22
53 -1 28 1 45 5 39 5 -6 18 -14 29 -18z m-689 -33 c-3 -10 -5 -2 -5 17 0 19 2
27 5 18 2 -10 2 -26 0 -35z m79 7 l2 -35 -5 33 c-5 38 -33 45 -33 7 0 -28 -16
-35 -17 -7 -2 32 7 43 29 40 19 -2 23 -10 24 -38z m54 30 c-13 -8 -12 -11 4
-23 21 -16 14 -37 -12 -37 -15 0 -15 2 -2 10 13 8 12 11 -4 23 -21 16 -14 37
12 37 15 0 15 -2 2 -10z m220 -35 c0 -16 -10 -28 -30 -39 l-30 -14 0 43 c0 33
4 44 18 47 24 6 42 -10 42 -37z m551 38 c4 -45 3 -83 -3 -83 -5 0 -8 6 -8 14
0 7 -3 28 -6 45 -4 20 -3 31 5 31 6 0 11 -3 12 -7z m-511 -18 c-7 -8 -10 -22
-6 -30 3 -8 1 -15 -4 -15 -6 0 -10 14 -10 30 0 21 5 30 16 30 13 0 14 -3 4
-15z m93 -7 c13 -20 -6 -48 -34 -48 -20 0 -36 40 -24 60 10 16 46 8 58 -12z
m307 -13 c0 -8 -7 -15 -15 -15 -9 0 -12 6 -9 15 4 9 0 15 -9 15 -10 0 -13 -8
-9 -25 2 -14 11 -25 20 -25 8 0 13 -3 9 -6 -3 -3 -15 -3 -26 1 -23 7 -29 43
-9 63 14 14 48 -2 48 -23z m415 5 c11 9 14 8 13 -7 0 -10 3 -27 8 -38 7 -18 6
-19 -10 -6 -14 12 -19 12 -26 2 -5 -9 -9 2 -12 28 -4 44 4 69 10 31 3 -17 6
-19 17 -10z m125 -15 c0 -30 -10 -55 -21 -55 -5 0 -4 12 1 26 7 16 7 32 0 44
-14 27 -12 34 5 20 8 -7 15 -23 15 -35z m-470 0 c0 -30 -3 -35 -24 -35 -32 0
-41 27 -14 41 17 9 18 13 7 20 -10 6 -8 9 9 9 19 0 22 -5 22 -35z m128 -1 c2
-22 -2 -33 -14 -38 -22 -8 -44 11 -44 39 0 28 9 37 35 33 14 -2 21 -12 23 -34z
m157 26 c3 -5 1 -10 -6 -10 -8 0 -6 -7 5 -19 20 -22 14 -41 -12 -41 -15 0 -15
2 -2 10 13 9 13 12 -4 25 -11 8 -16 21 -13 30 7 17 23 20 32 5z m-107 -15 c11
20 11 20 26 0 15 -19 15 -19 16 -1 0 11 3 17 6 14 3 -3 1 -21 -5 -39 -9 -33
-10 -33 -17 -10 -7 23 -8 23 -20 6 -16 -22 -21 -19 -28 20 -5 21 -4 24 2 10 9
-19 9 -19 20 0z m219 -37 c-2 -13 -4 -5 -4 17 -1 22 1 32 4 23 2 -10 2 -28 0
-40z m-389 -751 c2 -15 10 -28 18 -28 8 -1 20 -2 26 -3 7 -1 13 8 13 18 0 11
6 21 13 23 6 3 12 -1 12 -7 0 -6 8 -9 18 -6 23 7 39 -4 51 -37 16 -41 31 -32
31 19 0 56 23 57 28 1 2 -25 8 -37 18 -37 22 0 44 25 44 49 0 12 2 21 4 21 2
0 11 3 19 6 11 4 16 -6 21 -41 5 -31 11 -43 19 -38 12 7 17 9 36 12 5 0 12 9
14 19 4 14 6 14 12 -5 10 -30 25 -29 25 1 0 19 4 24 20 21 29 -6 40 -14 40
-31 0 -22 17 -17 23 8 6 22 6 22 27 -4 11 -14 20 -31 20 -37 0 -13 3 -13 24
-5 10 4 16 18 16 35 0 16 2 29 4 29 2 0 11 3 20 6 12 4 16 0 16 -15 0 -37 44
-96 62 -85 5 3 8 14 8 25 0 10 5 19 10 19 6 0 10 21 10 46 0 27 4 43 10 39 6
-3 10 -23 10 -45 0 -25 5 -40 16 -44 25 -10 32 -7 37 12 4 14 5 13 6 -4 2 -34
31 -25 32 10 1 17 3 23 6 14 2 -10 9 -18 14 -18 5 0 9 -7 9 -15 0 -9 7 -18 15
-21 19 -8 66 41 59 60 -3 9 -1 16 5 16 6 0 11 -11 11 -25 0 -14 5 -25 10 -25
6 0 10 -13 10 -28 0 -25 4 -28 30 -28 21 0 30 5 30 15 0 14 1 14 10 1 6 -10 7
2 3 38 -4 36 -2 52 6 52 6 0 11 -15 11 -34 0 -21 6 -36 15 -40 11 -4 15 1 15
18 0 13 6 23 15 23 9 0 15 -9 15 -23 0 -12 6 -24 13 -27 14 -5 50 17 41 25 -3
4 -1 9 5 13 7 4 11 -8 11 -34 0 -27 4 -40 12 -38 24 4 38 26 38 58 0 31 1 32
15 13 13 -16 16 -17 25 -4 8 12 10 9 10 -12 0 -18 8 -31 23 -39 12 -7 25 -17
29 -23 4 -6 8 6 8 27 0 26 4 36 11 31 9 -5 10 6 7 40 -3 25 -2 46 3 46 4 0 9
-26 11 -57 2 -44 7 -58 18 -58 11 0 14 10 12 39 -1 23 3 43 10 47 19 12 28 1
28 -36 0 -20 6 -35 15 -39 9 -3 15 0 15 9 0 8 4 15 9 15 5 0 12 12 14 28 2 15
5 4 6 -24 1 -37 6 -54 17 -58 17 -7 44 15 44 36 0 10 3 9 10 -2 5 -8 10 -10
10 -5 0 6 5 3 10 -5 5 -8 10 -10 10 -4 0 15 28 13 34 -3 3 -7 12 -13 20 -13
12 0 13 11 9 55 -4 38 -2 55 6 55 6 0 11 -9 11 -20 0 -11 5 -20 10 -20 6 0 10
-12 10 -26 0 -14 4 -23 9 -20 5 4 12 0 14 -6 3 -7 6 4 6 25 1 20 5 37 10 37 5
0 12 8 14 18 3 9 5 -11 6 -45 1 -63 6 -70 44 -64 4 0 8 -25 9 -56 l1 -58 7 60
c5 46 7 52 10 25 l2 -35 7 30 c7 28 8 28 13 -15 2 -25 6 -83 7 -130 1 -46 5
-87 8 -90 2 -3 3 45 2 105 -2 61 0 116 4 123 5 7 3 12 -4 12 -8 0 -8 4 1 15 7
9 13 33 12 55 -2 33 1 37 18 33 15 -4 20 0 20 16 0 11 5 21 10 21 6 0 10 -16
10 -36 0 -19 7 -42 15 -50 12 -12 15 -12 15 -2 0 10 2 10 9 -1 5 -7 13 -11 19
-7 6 3 13 0 16 -6 3 -7 4 6 1 30 -6 45 5 54 28 22 8 -11 17 -17 20 -13 4 3 8
-43 9 -103 l2 -109 6 110 c3 61 7 95 8 77 1 -19 6 -31 12 -27 6 3 10 2 10 -3
0 -6 10 -8 21 -5 19 5 21 11 16 59 -3 31 -2 54 4 54 5 0 9 -18 9 -40 0 -22 4
-40 9 -40 5 0 17 -7 25 -16 15 -14 16 -14 17 3 1 10 1 21 0 26 0 4 3 7 9 7 5
0 10 7 10 15 0 8 7 15 15 15 11 0 14 7 9 25 -4 15 -2 25 5 25 7 0 11 -68 13
-204 2 -112 0 -202 -4 -199 -5 2 -8 -3 -8 -11 0 -9 5 -16 11 -16 6 0 4 -7 -5
-15 -22 -22 -196 -17 -196 5 0 13 -1 13 -10 0 -8 -12 -10 -8 -11 15 l-2 30 -4
-29 c-4 -22 -7 -26 -14 -15 -6 10 -9 10 -9 2 0 -8 -15 -13 -40 -13 l-40 0 -2
43 -1 42 -4 -43 c-4 -40 -6 -43 -31 -40 -15 2 -30 7 -34 13 -5 7 -8 6 -8 -1 0
-7 -20 -10 -52 -8 -29 1 -136 5 -238 8 -102 3 -273 9 -380 12 -154 5 -193 4
-183 -6 6 -7 40 -14 75 -17 34 -3 71 -10 81 -15 12 -6 17 -5 18 4 0 7 4 4 9
-7 l9 -20 1 20 c1 13 3 15 7 6 5 -11 7 -11 14 0 7 11 9 9 9 -6 0 -17 2 -17 10
-5 9 13 10 13 10 0 0 -13 1 -13 11 0 8 11 12 12 16 3 3 -10 9 -9 21 3 15 15
16 15 23 -2 6 -14 8 -15 9 -4 1 10 4 9 10 -5 7 -17 9 -17 9 -2 1 19 31 24 31
5 0 -10 2 -10 9 0 13 21 36 9 42 -23 l6 -30 3 35 3 35 7 -35 7 -35 3 35 2 35
8 -30 8 -30 1 28 c1 23 3 26 15 15 10 -9 11 -15 2 -20 -6 -5 -2 -8 11 -8 15 0
21 5 17 14 -6 17 23 29 32 14 4 -7 3 -8 -4 -4 -9 5 -12 -14 -12 -69 0 -97 -7
-105 -85 -94 -32 4 -62 6 -67 3 -4 -3 -8 1 -8 8 0 9 -3 9 -10 -2 -6 -10 -10
-11 -10 -2 0 14 -46 17 -55 3 -6 -11 -49 -5 -77 10 -13 7 -23 7 -31 1 -7 -6
-23 -10 -37 -10 -14 0 -42 -1 -62 -2 -20 -1 -50 6 -68 17 -30 17 -32 17 -45 0
-11 -16 -26 -17 -141 -13 -101 4 -129 8 -136 20 -11 20 -22 20 -43 0 -11 -12
-25 -14 -48 -10 -18 4 -41 7 -52 7 -138 0 -219 2 -260 5 -27 2 -121 5 -207 7
-134 2 -159 5 -176 20 -15 14 -21 15 -24 5 -4 -10 -10 -10 -34 0 -19 9 -30 10
-32 3 -6 -19 -93 -13 -108 7 -12 16 -13 16 -19 0 -8 -21 -84 -25 -103 -6 -8 8
-15 8 -24 0 -16 -13 -146 -6 -164 9 -7 6 -18 7 -25 3 -23 -14 -77 -13 -83 2
-6 16 -36 19 -36 4 0 -5 -11 -10 -25 -10 -14 0 -25 5 -25 12 0 9 -3 9 -12 0
-18 -18 -105 -15 -112 4 -5 14 -7 14 -22 0 -22 -23 -70 -20 -93 5 -18 19 -20
19 -29 4 -8 -15 -18 -17 -67 -10 -34 4 -53 10 -46 15 7 4 12 10 12 14 -1 3 -1
41 -1 84 0 53 3 72 10 62 9 -13 10 -13 12 0 1 8 5 -21 8 -65 l6 -80 2 73 2 74
28 -3 c15 -2 33 1 41 5 11 7 301 2 511 -9 142 -8 336 -15 550 -21 118 -3 218
-8 223 -11 4 -2 7 28 5 69 l-3 73 -132 10 c-72 6 -134 12 -136 15 -2 3 -8 70
-11 149 -6 117 -5 142 6 139 7 -3 14 -17 16 -31z m1842 -79 c0 -62 -5 -60 -14
5 -5 31 -4 47 3 47 7 0 11 -22 11 -52z m-223 0 c-3 -7 -5 -2 -5 12 0 14 2 19
5 13 2 -7 2 -19 0 -25z m-3650 -271 c6 -4 18 -4 27 -1 14 5 16 -3 16 -56 0
-57 -1 -60 -16 -45 -10 9 -20 12 -23 7 -8 -13 -71 -26 -72 -15 -2 29 -9 48
-18 51 -6 2 -11 18 -11 36 0 33 1 33 43 32 23 -1 47 -5 54 -9z m104 -47 l6
-45 1 41 c1 27 7 44 17 48 12 4 15 -6 17 -57 l1 -62 6 55 c8 75 31 79 31 5 0
-30 -4 -55 -10 -55 -5 0 -10 -7 -10 -16 0 -14 -1 -14 -16 0 -8 9 -24 16 -35
16 -15 0 -19 7 -20 38 -1 33 -2 34 -9 12 -4 -14 -9 -20 -9 -15 -1 6 -6 3 -11
-5 -7 -11 -10 -1 -10 36 0 47 2 51 23 50 18 -1 23 -8 28 -46z m141 -3 l1 -42
6 45 c7 54 24 55 32 3 l6 -38 2 38 c1 26 6 37 16 37 11 0 15 -11 15 -41 0 -22
4 -48 9 -58 5 -9 6 -23 2 -30 -6 -9 -10 -5 -15 13 -8 31 -21 30 -58 -7 l-28
-28 0 31 c0 18 -4 29 -10 25 -6 -4 -11 11 -12 37 -1 42 -1 42 -8 -12 l-7 -55
-1 60 c-2 58 -1 61 23 63 23 2 25 -2 27 -41z m229 21 c5 -7 9 -8 9 -3 0 14 63
15 72 1 5 -7 8 -6 8 4 0 13 1 13 10 0 6 -9 10 -11 10 -3 0 7 7 10 15 7 10 -4
15 -19 14 -48 l-2 -41 -7 35 c-6 30 -8 26 -10 -30 -1 -36 -4 -57 -7 -47 -2 9
-8 17 -13 17 -5 0 -11 21 -13 48 -2 34 -4 27 -4 -23 0 -38 1 -62 4 -52 5 18 5
18 19 0 19 -26 17 -31 -11 -25 -23 4 -25 9 -27 56 l-1 51 -7 -45 c-7 -43 -7
-42 -10 25 l-3 70 -7 -55 c-6 -46 -7 -49 -10 -20 l-2 35 -8 -30 c-7 -28 -8
-27 -10 15 l-3 45 -7 -40 -6 -40 -6 40 -5 40 -2 -45 c-2 -35 -4 -41 -11 -25
-7 17 -9 16 -10 -10 -2 -30 -2 -30 -10 -5 -4 14 -8 21 -9 16 -1 -6 -7 -2 -14
8 -11 15 -18 16 -34 8 -27 -15 -33 -7 -33 43 l0 42 66 -3 c42 -1 70 -7 75 -16z
m170 -3 c5 14 8 5 8 -31 1 -37 -3 -53 -14 -58 -12 -4 -15 5 -14 52 1 31 4 48
7 37 l5 -20 8 20z m59 -7 c0 -9 3 -10 8 -2 9 14 72 14 72 0 0 -7 3 -7 8 -1 4
6 13 11 20 13 9 1 12 -20 10 -85 l-1 -88 -7 65 -7 65 -3 -50 -3 -50 -7 60 -7
60 -3 -75 -3 -75 -7 65 -7 65 -3 -65 -4 -65 -6 80 -6 80 -4 -80 c-2 -60 -5
-70 -8 -40 l-6 40 -6 -40 c-6 -34 -7 -28 -9 33 0 39 -4 72 -9 72 -4 0 -6 -18
-4 -41 4 -39 4 -40 -17 -27 -30 18 -31 98 -1 98 11 0 20 -6 20 -12z m162 -52
l1 -61 7 65 7 65 1 -75 c1 -76 -11 -111 -35 -103 -9 3 -13 30 -13 87 0 67 3
83 15 83 12 0 15 -15 17 -61z m-182 -66 c0 -16 -2 -30 -4 -30 -2 0 -6 14 -8
30 -3 17 -1 30 4 30 4 0 8 -13 8 -30z m2969 3 c1 10 6 15 11 12 6 -3 11 -41
12 -83 l2 -77 3 68 c2 37 8 67 13 67 5 0 11 10 13 23 2 12 6 -16 7 -63 3 -82
3 -83 10 -30 l6 55 5 -50 c5 -46 6 -44 8 25 3 72 4 73 11 30 5 -25 6 -54 4
-65 -3 -11 -1 -32 5 -45 9 -22 10 -19 12 25 2 49 2 49 10 15 6 -25 7 -18 3 28
-3 37 -1 62 5 62 5 0 9 -10 9 -22 -1 -13 0 -45 2 -73 l3 -50 7 65 7 65 1 -76
2 -76 -27 4 c-16 2 -59 4 -98 4 -107 0 -105 -2 -105 87 0 53 3 72 10 62 8 -12
10 -10 11 10 1 20 3 18 9 -10 l7 -35 3 40 c2 35 3 37 10 15 6 -18 8 -20 9 -7z
m234 -75 c2 -49 2 -88 -2 -88 -3 0 -13 5 -21 10 -12 7 -12 12 -2 22 7 7 12 40
12 82 0 94 6 81 13 -26z m-116 50 c-3 -7 -5 -2 -5 12 0 14 2 19 5 13 2 -7 2
-19 0 -25z m335 -70 c2 -31 0 -54 -4 -51 -5 2 -7 39 -7 81 2 80 6 68 11 -30z
m38 92 c0 -5 -8 -10 -17 -10 -15 0 -16 2 -3 10 19 12 20 12 20 0z m41 -15 c1
11 5 -14 9 -55 l6 -75 3 75 c2 55 5 68 11 50 l8 -25 2 25 c3 31 18 -35 21 -95
2 -24 5 -8 9 40 l6 80 4 -65 3 -65 7 60 7 60 3 -85 4 -85 6 90 6 90 2 -77 c1
-54 7 -81 18 -92 14 -15 10 -16 -46 -16 -34 0 -70 5 -81 11 -13 6 -25 7 -32 1
-7 -5 -29 -10 -49 -10 -28 -1 -38 3 -38 14 0 12 6 15 24 10 23 -6 25 -3 28 36
4 57 26 61 31 6 2 -27 4 -14 6 37 2 55 5 74 11 60 l9 -20 2 20z m-344 -102
c-2 -21 -4 -4 -4 37 0 41 2 58 4 38 2 -21 2 -55 0 -75z m20 40 c-2 -16 -4 -5
-4 22 0 28 2 40 4 28 2 -13 2 -35 0 -50z m220 10 c-3 -10 -5 -2 -5 17 0 19 2
27 5 18 2 -10 2 -26 0 -35z m-96 -83 c6 0 8 3 6 8 -3 4 -1 16 4 27 7 18 8 18
8 -5 1 -20 3 -22 11 -10 8 12 10 10 11 -10 1 -14 5 -6 9 20 l7 45 3 -45 3 -45
7 45 7 45 1 -47 2 -48 -60 0 -60 0 1 43 c1 39 2 40 9 12 7 -26 8 -23 11 25 l3
55 3 -57 c2 -32 9 -58 14 -58z m149 106 c0 -3 -4 -8 -10 -11 -5 -3 -10 -1 -10
4 0 6 5 11 10 11 6 0 10 -2 10 -4z m-200 -67 c0 -45 -2 -49 -15 -35 -8 8 -15
23 -14 33 0 16 1 16 9 -2 7 -16 9 -13 9 18 1 56 11 44 11 -14z m147 -21 c-3
-7 -5 -2 -5 12 0 14 2 19 5 13 2 -7 2 -19 0 -25z m-2362 -153 l20 -60 3 58 c3
59 16 74 31 35 l8 -22 14 22 c9 15 24 22 45 22 36 0 48 -9 33 -26 -21 -25 10
-24 36 1 26 27 52 27 83 2 18 -14 5 -77 -23 -107 -22 -24 -29 -41 -26 -67 1
-18 28 -16 35 2 3 8 10 15 16 15 16 0 12 -37 -5 -44 -8 -3 -15 -14 -15 -24 0
-26 -20 -82 -30 -82 -8 0 2 59 13 77 6 10 -50 57 -68 58 -5 0 -20 6 -32 13
-20 11 -23 10 -23 -2 0 -9 11 -18 25 -22 35 -9 31 -24 -7 -24 -29 0 -30 -1
-15 -18 19 -20 22 -42 7 -42 -5 0 -13 7 -18 17 -15 26 -42 8 -42 -27 0 -16 -4
-30 -10 -30 -11 0 -14 49 -4 74 3 9 15 16 26 16 19 0 20 4 15 52 -4 28 -13 59
-22 67 -13 14 -15 9 -15 -42 0 -78 -23 -78 -46 1 -24 84 -36 89 -32 13 2 -41
-1 -66 -8 -68 -14 -5 -24 64 -24 159 0 61 2 69 18 66 11 -2 24 -24 37 -63z
m341 10 c8 -43 18 -45 30 -3 13 45 39 52 30 8 -8 -42 9 -67 31 -45 8 8 13 23
12 32 -3 32 1 44 11 38 6 -3 10 -21 10 -38 0 -18 5 -39 10 -47 7 -11 11 -4 16
28 4 24 14 47 23 52 22 11 65 -9 69 -33 4 -21 -16 -23 -24 -2 -8 20 -34 19
-34 -1 0 -9 16 -45 36 -81 l37 -65 -22 -28 c-11 -16 -21 -34 -21 -40 0 -5 -11
-10 -25 -10 -23 0 -29 -8 -26 -37 1 -6 -3 -14 -9 -18 -5 -3 -10 2 -10 12 0 10
-3 28 -6 41 -5 19 -2 22 20 22 30 0 32 7 11 34 -8 11 -15 23 -15 28 0 14 28 9
34 -7 7 -20 36 -19 36 1 0 33 -20 54 -45 48 -25 -6 -36 10 -12 19 8 3 6 7 -7
12 -13 6 -21 3 -28 -8 -5 -10 -16 -17 -24 -17 -8 0 -13 4 -10 9 3 5 -1 14 -9
21 -13 10 -15 9 -15 -9 0 -12 -4 -19 -10 -16 -5 3 -10 16 -10 28 0 16 -3 18
-12 9 -7 -7 -8 -15 -1 -24 9 -12 33 -86 33 -102 0 -20 -25 4 -35 34 -17 50
-35 50 -35 1 0 -23 -4 -41 -10 -41 -5 0 -11 3 -11 8 -2 11 -9 74 -11 97 -4 49
3 125 12 125 5 0 12 -16 16 -35z m362 7 c2 -6 -4 -12 -14 -12 -16 0 -17 -12
-11 -145 3 -80 2 -145 -3 -145 -9 0 -17 53 -28 188 -6 73 -12 96 -25 103 -9 6
-17 15 -17 20 0 15 92 7 98 -9z m229 -28 c26 -16 38 -53 29 -89 -7 -27 -52
-55 -90 -55 -14 0 -28 -4 -31 -10 -8 -14 -45 -13 -45 1 0 6 -11 24 -25 41 -36
43 -34 93 5 117 35 21 120 18 157 -5z m498 -34 c0 -21 -6 -26 -38 -31 -20 -3
-41 -9 -45 -13 -11 -11 37 -46 63 -46 24 0 35 -16 27 -37 -7 -21 -42 -14 -65
13 -12 14 -38 29 -57 33 -28 5 -35 11 -35 31 0 21 6 26 40 31 24 4 45 15 54
28 20 30 56 24 56 -9z m360 -10 c0 -22 -29 -18 -33 3 -3 14 1 18 15 15 10 -2
18 -10 18 -18z m168 -5 c-3 -14 -48 -18 -100 -10 -70 10 -50 26 30 23 41 -2
71 -7 70 -13z m431 -10 c3 -9 -1 -18 -10 -22 -19 -7 -39 11 -30 26 10 16 33
13 40 -4z m-598 -36 c10 -17 -13 -36 -27 -22 -12 12 -4 33 11 33 5 0 12 -5 16
-11z m143 -5 c57 -12 32 -25 -41 -22 -46 2 -73 7 -76 16 -4 13 61 17 117 6z
m461 -30 c0 -17 -36 -19 -46 -3 -8 14 14 29 33 22 7 -3 13 -11 13 -19z
m-27436 -15 c-7 -11 -34 -12 -34 -1 0 14 11 21 26 15 8 -3 11 -9 8 -14z
m24640 -5 c25 -9 19 -22 -11 -26 -23 -2 -29 -9 -34 -38 -3 -21 -8 -29 -11 -20
-11 27 -17 77 -11 84 8 8 47 8 67 0z m126 -14 c0 -6 -6 -13 -14 -16 -8 -3 -16
-19 -20 -35 -6 -32 -26 -31 -26 2 0 10 -9 24 -20 31 -32 20 -24 28 30 28 28 0
50 -5 50 -10z m120 -9 c5 -11 10 -35 9 -53 0 -18 -3 -27 -6 -20 -4 10 -8 10
-18 2 -11 -9 -15 -4 -21 24 -10 58 13 89 36 47z m1950 4 c0 -8 -6 -15 -14 -15
-17 0 -28 14 -19 24 12 12 33 6 33 -9z m146 5 c13 0 24 -4 24 -10 0 -12 -137
-14 -144 -1 -10 16 10 23 53 17 24 -3 54 -6 67 -6z m-1996 -45 c0 -48 -4 -53
-26 -31 -14 15 -19 58 -7 69 19 20 33 5 33 -38z m60 -11 c0 -28 -4 -43 -10
-39 -5 3 -10 26 -10 51 0 28 4 43 10 39 6 -3 10 -26 10 -51z m2386 35 c3 -6 1
-16 -4 -21 -13 -13 -45 8 -36 23 7 12 31 11 40 -2z m-2196 -39 c0 -22 -4 -40
-9 -40 -5 0 -11 18 -13 40 -2 28 0 40 9 40 8 0 13 -14 13 -40z m248 -8 c2 -23
-1 -42 -6 -42 -13 0 -22 25 -22 62 0 46 24 29 28 -20z m176 22 c11 -28 6 -52
-10 -58 -9 -4 -18 -5 -19 -4 -3 3 -8 59 -6 71 2 13 29 7 35 -9z m126 -35 c0
-24 -4 -38 -10 -34 -5 3 -10 22 -10 41 0 19 5 34 10 34 6 0 10 -18 10 -41z
m64 19 c-3 -13 -13 -34 -20 -48 -13 -24 -13 -24 -14 -3 0 12 4 33 10 47 12 32
34 35 24 4z m66 -23 c0 -25 -4 -45 -9 -45 -9 0 -20 77 -12 86 14 13 21 -1 21
-41z m80 -1 c0 -7 2 -18 5 -26 4 -9 -3 -13 -20 -13 -14 0 -25 5 -26 10 0 6 -2
21 -5 34 -6 31 16 47 34 24 6 -9 12 -22 12 -29z m60 -5 c0 -21 -4 -39 -9 -39
-9 0 -21 70 -14 83 10 17 23 -7 23 -44z m120 21 c17 -32 1 -45 -25 -20 -27 25
-40 13 -31 -27 9 -34 -16 -26 -28 9 -14 40 -2 58 38 58 25 0 38 -6 46 -20z
m-15680 -629 c0 -11 -59 -36 -66 -28 -3 3 7 12 23 21 33 18 43 19 43 7z"/>
<path d="M4920 21541 c0 -7 -5 -9 -12 -5 -7 5 -8 3 -3 -5 5 -9 10 -10 18 -2 6
6 8 14 4 18 -4 3 -7 1 -7 -6z"/>
<path d="M34880 17924 c0 -11 5 -14 16 -10 9 3 20 6 25 6 6 0 7 5 4 10 -10 16
-45 12 -45 -6z"/>
<path d="M34522 17970 c-18 -29 -15 -36 8 -15 20 18 26 35 12 35 -4 0 -13 -9
-20 -20z"/>
<path d="M34370 17950 c0 -5 5 -10 10 -10 6 0 10 5 10 10 0 6 -4 10 -10 10 -5
0 -10 -4 -10 -10z"/>
<path d="M25260 16910 c-8 -5 -10 -10 -5 -10 6 0 17 5 25 10 8 5 11 10 5 10
-5 0 -17 -5 -25 -10z"/>
<path d="M26231 16834 c0 -11 3 -14 6 -6 3 7 2 16 -1 19 -3 4 -6 -2 -5 -13z"/>
<path d="M26464 16882 c3 -5 0 -12 -6 -15 -7 -2 -10 -7 -7 -11 3 -4 12 0 18 8
9 11 9 16 0 22 -7 4 -9 3 -5 -4z"/>
<path d="M26430 16829 c0 -5 5 -7 10 -4 6 3 10 8 10 11 0 2 -4 4 -10 4 -5 0
-10 -5 -10 -11z"/>
<path d="M36135 16425 c-5 -2 -27 -6 -47 -10 -21 -3 -38 -9 -38 -13 0 -4 17
-12 38 -19 33 -10 39 -9 60 9 32 31 26 46 -13 33z"/>
<path d="M24978 16713 c7 -3 16 -2 19 1 4 3 -2 6 -13 5 -11 0 -14 -3 -6 -6z"/>
<path d="M35432 16598 c6 -18 28 -21 28 -4 0 9 -7 16 -16 16 -9 0 -14 -5 -12
-12z"/>
<path d="M31298 15648 c-3 -7 -2 -23 0 -36 4 -19 10 -23 35 -20 41 4 59 34 33
54 -24 17 -63 18 -68 2z"/>
<path d="M30752 15598 c3 -29 6 -33 28 -30 60 8 63 62 3 62 -33 0 -34 -1 -31
-32z"/>
<path d="M30492 15585 c-12 -43 -5 -59 21 -49 20 7 21 19 3 59 l-13 30 -11
-40z"/>
<path d="M30215 15600 c-4 -6 -4 -22 -1 -36 11 -43 81 -27 74 17 -2 19 -10 25
-35 27 -17 2 -34 -2 -38 -8z"/>
<path d="M28920 14265 c-10 -12 -9 -16 5 -21 19 -8 40 9 31 25 -10 15 -21 14
-36 -4z"/>
<path d="M30900 13410 c0 -5 5 -10 11 -10 5 0 7 5 4 10 -3 6 -8 10 -11 10 -2
0 -4 -4 -4 -10z"/>
<path d="M30923 13387 c-34 -17 -28 -27 18 -27 33 0 40 3 37 17 -4 21 -25 25
-55 10z"/>
<path d="M27741 11857 c-8 -10 -7 -18 2 -31 17 -24 61 -18 65 9 4 20 3 20 -11
1 -9 -12 -20 -17 -31 -13 -24 9 -15 30 15 38 l24 7 -26 1 c-15 1 -32 -5 -38
-12z"/>
<path d="M28200 11839 c0 -24 23 -21 28 4 2 10 -3 17 -12 17 -10 0 -16 -9 -16
-21z"/>
<path d="M28320 11829 c0 -5 5 -7 10 -4 6 3 10 8 10 11 0 2 -4 4 -10 4 -5 0
-10 -5 -10 -11z"/>
<path d="M29365 8630 c3 -5 8 -10 11 -10 2 0 4 5 4 10 0 6 -5 10 -11 10 -5 0
-7 -4 -4 -10z"/>
<path d="M32027 8587 c-20 -14 -14 -42 11 -52 23 -9 49 21 36 42 -14 23 -27
26 -47 10z"/>
<path d="M29180 8160 c0 -5 5 -10 10 -10 6 0 10 5 10 10 0 6 -4 10 -10 10 -5
0 -10 -4 -10 -10z"/>
<path d="M30100 8140 c0 -5 7 -10 16 -10 8 0 12 5 9 10 -3 6 -10 10 -16 10 -5
0 -9 -4 -9 -10z"/>
<path d="M30833 8114 c-8 -21 13 -42 28 -27 13 13 5 43 -11 43 -6 0 -13 -7
-17 -16z"/>
<path d="M30992 8098 c2 -13 8 -23 13 -23 6 0 11 10 13 23 2 15 -2 22 -13 22
-11 0 -15 -7 -13 -22z"/>
<path d="M30632 8109 c1 -13 8 -23 13 -21 15 3 12 35 -3 40 -9 3 -13 -3 -10
-19z"/>
<path d="M30755 8120 c-10 -16 16 -43 28 -31 11 11 2 41 -12 41 -5 0 -13 -5
-16 -10z"/>
<path d="M31140 8080 c0 -5 7 -10 15 -10 8 0 15 5 15 10 0 6 -7 10 -15 10 -8
0 -15 -4 -15 -10z"/>
<path d="M31264 8106 c-7 -19 3 -36 22 -36 10 0 14 8 12 22 -4 26 -26 36 -34
14z"/>
<path d="M33234 7095 c0 -71 1 -99 3 -62 2 37 2 96 0 130 -2 34 -3 4 -3 -68z"/>
<path d="M33144 7115 c0 -49 1 -71 3 -48 2 23 2 64 0 90 -2 26 -3 8 -3 -42z"/>
<path d="M33104 7045 c0 -82 2 -115 3 -72 2 43 2 110 0 150 -1 40 -3 5 -3 -78z"/>
<path d="M33454 7085 c0 -60 1 -84 3 -52 2 32 2 81 0 110 -2 29 -3 3 -3 -58z"/>
<path d="M32621 7164 c0 -11 3 -14 6 -6 3 7 2 16 -1 19 -3 4 -6 -2 -5 -13z"/>
<path d="M33252 7150 c0 -19 2 -27 5 -17 2 9 2 25 0 35 -3 9 -5 1 -5 -18z"/>
<path d="M33362 7140 c0 -14 2 -19 5 -12 2 6 2 18 0 25 -3 6 -5 1 -5 -13z"/>
<path d="M32883 7065 c0 -44 2 -61 4 -37 2 23 2 59 0 80 -2 20 -4 1 -4 -43z"/>
<path d="M32844 7025 c0 -60 1 -84 3 -52 2 32 2 81 0 110 -2 29 -3 3 -3 -58z"/>
<path d="M32971 7094 c0 -11 3 -14 6 -6 3 7 2 16 -1 19 -3 4 -6 -2 -5 -13z"/>
<path d="M33191 7094 c0 -11 3 -14 6 -6 3 7 2 16 -1 19 -3 4 -6 -2 -5 -13z"/>
<path d="M33362 7080 c0 -19 2 -27 5 -17 2 9 2 25 0 35 -3 9 -5 1 -5 -18z"/>
<path d="M33083 7035 c0 -38 2 -53 4 -32 2 20 2 52 0 70 -2 17 -4 1 -4 -38z"/>
<path d="M33324 7015 c0 -49 1 -71 3 -48 2 23 2 64 0 90 -2 26 -3 8 -3 -42z"/>
<path d="M32711 7064 c0 -11 3 -14 6 -6 3 7 2 16 -1 19 -3 4 -6 -2 -5 -13z"/>
<path d="M32973 7000 c0 -41 2 -58 4 -37 2 20 2 54 0 75 -2 20 -4 3 -4 -38z"/>
<path d="M33121 7054 c0 -11 3 -14 6 -6 3 7 2 16 -1 19 -3 4 -6 -2 -5 -13z"/>
<path d="M33189 6998 c0 -35 -2 -75 -3 -90 -1 -16 2 -28 6 -28 4 0 8 41 8 90
0 50 -2 90 -5 90 -3 0 -5 -28 -6 -62z"/>
<path d="M33212 7030 c0 -14 2 -19 5 -12 2 6 2 18 0 25 -3 6 -5 1 -5 -13z"/>
<path d="M33012 7020 c0 -14 2 -19 5 -12 2 6 2 18 0 25 -3 6 -5 1 -5 -13z"/>
<path d="M33412 7010 c0 -14 2 -19 5 -12 2 6 2 18 0 25 -3 6 -5 1 -5 -13z"/>
<path d="M33431 6994 c0 -11 3 -14 6 -6 3 7 2 16 -1 19 -3 4 -6 -2 -5 -13z"/>
<path d="M33392 6970 c0 -19 2 -27 5 -17 2 9 2 25 0 35 -3 9 -5 1 -5 -18z"/>
<path d="M33171 6964 c0 -11 3 -14 6 -6 3 7 2 16 -1 19 -3 4 -6 -2 -5 -13z"/>
<path d="M33282 6960 c0 -14 2 -19 5 -12 2 6 2 18 0 25 -3 6 -5 1 -5 -13z"/>
<path d="M33302 6950 c0 -14 2 -19 5 -12 2 6 2 18 0 25 -3 6 -5 1 -5 -13z"/>
<path d="M33153 6895 c0 -22 2 -30 4 -17 2 12 2 30 0 40 -3 9 -5 -1 -4 -23z"/>
<path d="M33220 6919 c0 -5 5 -7 10 -4 6 3 10 8 10 11 0 2 -4 4 -10 4 -5 0
-10 -5 -10 -11z"/>
<path d="M30102 6900 c0 -14 2 -19 5 -12 2 6 2 18 0 25 -3 6 -5 1 -5 -13z"/>
<path d="M33391 6894 c0 -11 3 -14 6 -6 3 7 2 16 -1 19 -3 4 -6 -2 -5 -13z"/>
<path d="M30063 6860 c0 -25 2 -35 4 -22 2 12 2 32 0 45 -2 12 -4 2 -4 -23z"/>
<path d="M33442 6875 c0 -16 2 -22 5 -12 2 9 2 23 0 30 -3 6 -5 -1 -5 -18z"/>
<path d="M32075 6880 c-3 -5 3 -10 15 -10 12 0 18 5 15 10 -3 6 -10 10 -15 10
-5 0 -12 -4 -15 -10z"/>
<path d="M32591 6774 c0 -11 3 -14 6 -6 3 7 2 16 -1 19 -3 4 -6 -2 -5 -13z"/>
<path d="M32612 6760 c0 -19 2 -27 5 -17 2 9 2 25 0 35 -3 9 -5 1 -5 -18z"/>
<path d="M32700 6765 c0 -8 2 -15 4 -15 2 0 6 7 10 15 3 8 1 15 -4 15 -6 0
-10 -7 -10 -15z"/>
<path d="M32481 6744 c0 -11 3 -14 6 -6 3 7 2 16 -1 19 -3 4 -6 -2 -5 -13z"/>
<path d="M32352 6720 c0 -19 2 -27 5 -17 2 9 2 25 0 35 -3 9 -5 1 -5 -18z"/>
<path d="M32572 6730 c0 -14 2 -19 5 -12 2 6 2 18 0 25 -3 6 -5 1 -5 -13z"/>
<path d="M32702 6690 c0 -14 2 -19 5 -12 2 6 2 18 0 25 -3 6 -5 1 -5 -13z"/>
<path d="M29323 6905 c0 -22 2 -30 4 -17 2 12 2 30 0 40 -3 9 -5 -1 -4 -23z"/>
<path d="M29221 6914 c0 -11 3 -14 6 -6 3 7 2 16 -1 19 -3 4 -6 -2 -5 -13z"/>
<path d="M29281 6894 c0 -11 3 -14 6 -6 3 7 2 16 -1 19 -3 4 -6 -2 -5 -13z"/>
<path d="M29733 6880 c0 -25 2 -35 4 -22 2 12 2 32 0 45 -2 12 -4 2 -4 -23z"/>
<path d="M30003 6850 c0 -41 2 -58 4 -37 2 20 2 54 0 75 -2 20 -4 3 -4 -38z"/>
<path d="M32783 6745 c0 -8 4 -12 9 -9 5 3 6 10 3 15 -9 13 -12 11 -12 -6z"/>
<path d="M32812 6690 c0 -14 2 -19 5 -12 2 6 2 18 0 25 -3 6 -5 1 -5 -13z"/>
<path d="M33333 6735 c0 -22 2 -30 4 -17 2 12 2 30 0 40 -3 9 -5 -1 -4 -23z"/>
<path d="M33293 6690 c0 -25 2 -35 4 -22 2 12 2 32 0 45 -2 12 -4 2 -4 -23z"/>
</g>
</svg>
